<?xml version="1.0" encoding="UTF-8" standalone="no"?>
<!-- Created with Inkscape (http://www.inkscape.org/) -->

<svg
   xmlns:dc="http://purl.org/dc/elements/1.1/"
   xmlns:cc="http://creativecommons.org/ns#"
   xmlns:rdf="http://www.w3.org/1999/02/22-rdf-syntax-ns#"
   xmlns:svg="http://www.w3.org/2000/svg"
   xmlns="http://www.w3.org/2000/svg"
   xmlns:sodipodi="http://sodipodi.sourceforge.net/DTD/sodipodi-0.dtd"
   xmlns:inkscape="http://www.inkscape.org/namespaces/inkscape"
   width="210mm"
   height="85mm"
   viewBox="0 0 210 85"
   version="1.1"
   id="svg8"
   inkscape:version="0.92.1 r"
   sodipodi:docname="logo.svg">
  <defs
     id="defs2" />
  <sodipodi:namedview
     id="base"
     pagecolor="#ffffff"
     bordercolor="#666666"
     borderopacity="1.0"
     inkscape:pageopacity="0.0"
     inkscape:pageshadow="2"
     inkscape:zoom="0.70000001"
     inkscape:cx="461.11541"
     inkscape:cy="318.64425"
     inkscape:document-units="mm"
     inkscape:current-layer="layer1"
     showgrid="false"
     inkscape:window-width="1366"
     inkscape:window-height="740"
     inkscape:window-x="0"
     inkscape:window-y="0"
     inkscape:window-maximized="1" />
  <metadata
     id="metadata5">
    <rdf:RDF>
      <cc:Work
         rdf:about="">
        <dc:format>image/svg+xml</dc:format>
        <dc:type
           rdf:resource="http://purl.org/dc/dcmitype/StillImage" />
        <dc:title></dc:title>
      </cc:Work>
    </rdf:RDF>
  </metadata>
  <g
     inkscape:label="Layer 1"
     inkscape:groupmode="layer"
     id="layer1"
     transform="translate(0,-212)">
    <path
       style="fill:#ffffff;stroke-width:1.24149132;fill-opacity:1"
       d="m 187.01046,293.44429 c -4.51918,-3.06674 -4.64073,-3.08102 -5.28406,-0.62075 -0.58685,2.24308 -1.65994,2.51819 -9.82489,2.51819 h -9.16642 v -40.96921 -40.9692 h 9.93195 9.93188 v 9.31117 c 0,5.12116 0.2476,9.31118 0.54985,9.31118 0.30227,0 2.56246,-1.1875 5.02242,-2.63887 5.82959,-3.43956 13.3195,-2.62195 17.8952,1.95344 l 3.2247,3.22449 v 25.85485 c 0,28.64687 -0.49841,30.91985 -7.50593,34.24522 -5.69961,2.70463 -9.44681,2.39508 -14.77462,-1.22051 z m 1.51517,-31.01278 c 0.18649,-12.18411 -0.13833,-22.63145 -0.72271,-23.21634 -0.58441,-0.58491 -1.99482,-0.70597 -3.13327,-0.26913 -1.82105,0.6988 -2.06985,3.35972 -2.06985,22.13925 0,15.06857 0.44295,21.78761 1.50528,22.85026 3.44816,3.44818 4.08604,0.34567 4.42143,-21.50401 z M 1.3412668,254.37252 v -40.9692 h 9.9318772 9.931951 v 40.9692 40.96922 H 11.273144 1.3412668 Z m 29.7958642,-0.0419 v -41.01115 l 13.345959,0.35235 13.346041,0.35234 2.203198,14.27714 c 4.277051,27.71508 3.884596,27.55644 6.925515,2.79917 l 2.097494,-17.07631 13.957387,-0.35113 13.957456,-0.35122 -0.327969,40.69965 -0.327174,40.69967 -9.000898,0.36473 -9.000741,0.36471 -0.102049,-26.43608 c -0.10205,-25.46138 -1.094412,-29.51452 -2.923721,-11.95659 -0.450976,4.32707 -1.779312,14.57142 -2.951936,22.76524 l -2.132206,14.89791 -6.495446,0.37516 c -3.57245,0.20636 -6.483386,-0.0722 -6.468836,-0.62075 0.102096,-3.84986 -6.810081,-48.4134 -7.655199,-49.35209 -0.591652,-0.65742 -1.061448,10.19454 -1.061448,24.51946 v 25.69887 h -8.690436 -8.69044 v -41.01117 z m 74.489419,0.016 v -41.25556 l 17.69118,0.54994 c 30.60874,0.95144 30.727,1.11207 30.727,41.76994 0,15.72792 -0.53378,30.00006 -1.18611,31.71585 -2.45008,6.44401 -6.27126,7.55557 -27.62315,8.03516 l -19.60892,0.44037 v -41.25567 z m 27.34347,24.15455 c 1.63235,-4.29335 1.56917,-45.96878 -0.0804,-49.0397 -0.70741,-1.32082 -2.38294,-2.40146 -3.72463,-2.40146 -2.3507,0 -2.43921,0.99073 -2.43921,27.31282 0,26.59645 0.0644,27.31281 2.51373,27.31281 1.55593,0 2.97502,-1.21333 3.72447,-3.18455 z"
       id="path4524"
       inkscape:connector-curvature="0" />
  </g>
</svg>
