<?xml version="1.0" encoding="UTF-8" standalone="no"?>
<!-- Created with Inkscape (http://www.inkscape.org/) -->

<svg
   xmlns:dc="http://purl.org/dc/elements/1.1/"
   xmlns:cc="http://creativecommons.org/ns#"
   xmlns:rdf="http://www.w3.org/1999/02/22-rdf-syntax-ns#"
   xmlns:svg="http://www.w3.org/2000/svg"
   xmlns="http://www.w3.org/2000/svg"
   xmlns:sodipodi="http://sodipodi.sourceforge.net/DTD/sodipodi-0.dtd"
   xmlns:inkscape="http://www.inkscape.org/namespaces/inkscape"
   width="715mm"
   height="305mm"
   viewBox="0 0 715 305"
   version="1.1"
   id="svg8"
   inkscape:version="0.92.1 r"
   sodipodi:docname="404.svg">
  <defs
     id="defs2" />
  <sodipodi:namedview
     id="base"
     pagecolor="#ffffff"
     bordercolor="#666666"
     borderopacity="1.0"
     inkscape:pageopacity="0.0"
     inkscape:pageshadow="2"
     inkscape:zoom="0.24748737"
     inkscape:cx="2060.8187"
     inkscape:cy="251.23042"
     inkscape:document-units="mm"
     inkscape:current-layer="layer1"
     showgrid="false"
     inkscape:window-width="1366"
     inkscape:window-height="695"
     inkscape:window-x="0"
     inkscape:window-y="0"
     inkscape:window-maximized="1" />
  <metadata
     id="metadata5">
    <rdf:RDF>
      <cc:Work
         rdf:about="">
        <dc:format>image/svg+xml</dc:format>
        <dc:type
           rdf:resource="http://purl.org/dc/dcmitype/StillImage" />
        <dc:title />
      </cc:Work>
    </rdf:RDF>
  </metadata>
  <g
     inkscape:label="Layer 1"
     inkscape:groupmode="layer"
     id="layer1"
     transform="translate(0,8)">
    <path
       style="fill:#ffffff;fill-opacity:1;stroke-width:1.51693678"
       d="m 92.962707,14.147502 c -3.704905,-0.008 -6.991705,1.95479 -9.647905,6.0087 -3.9286,5.9958 -1.889,14.65038 7.633805,32.3918 4.6284,8.623 8.4151,16.30831 8.4151,17.07831 0,0.77 -4.3024,5.66092 -9.5607,10.86843 -20.159405,19.964738 -27.703105,51.820618 -18.407305,77.730898 2.0953,5.84021 4.1609,11.64221 4.5893,12.89369 0.5002,1.46127 -1.8272,4.2218 -6.5039,7.71653 -13.59,10.15537 -32.2212,28.90448 -39.2913,39.53943 -10.6277,15.98635 -30.60200033,61.86886 -28.4497003,65.35137 2.1946,3.55084 5.2111,-0.2391 9.6379003,-12.11017 6.6535,-17.84237 18.4763,-42.08291 25.0038,-51.26401 7.316,-10.29008 26.9796,-29.89406 36.6983,-36.5876 l 8.0317,-5.53145 3.1731,4.03374 c 4.3154,5.48615 15.677405,13.12281 19.523908,13.12281 5.1523,0 3.5771,-3.51275 -3.6113,-8.05408 -9.143703,-5.77661 -14.831808,-12.59172 -20.751108,-24.86192 -4.6431,-9.62495 -4.9789,-11.38511 -5.0094,-26.24448 -0.049,-23.88167 5.7371,-37.988097 22.312405,-54.400238 18.635203,-18.4517 31.057503,-22.86955 64.493003,-22.9339 44.8121,-0.0862 83.2218,20.55039 97.732,52.507988 4.6296,10.19632 4.7388,30.12082 0.2191,40.05691 -3.0601,6.72706 -3.2771,6.87414 -9.2813,6.30154 -5.6302,-0.53692 -6.7853,0.0333 -13.7264,6.76538 -7.0962,6.88256 -10.8822,14.51004 -10.9075,21.97604 -0.013,3.716 -11.2234,7.65648 -24.2796,8.53469 -10.2957,0.69252 -13.5612,1.95838 -13.6291,5.2822 -0.013,0.62574 2.6379,1.13781 5.8913,1.13781 4.2225,0 8.1267,1.48796 13.6414,5.1995 7.5466,5.07849 22.8318,9.62192 25.9293,7.70759 2.0116,-1.24323 1.9451,-6.56298 -0.2313,-18.37483 -1.3446,-7.29577 -1.3481,-11.02327 -0.013,-15.47778 2.1049,-7.02565 11.2996,-16.97772 15.6856,-16.97772 3.5875,0 3.4143,2.20625 -1.0897,13.85601 -2.9969,7.75148 -3.2016,6.94048 7.8663,31.17575 9.3654,20.5074 0.7533,27.24757 -32.4376,25.38945 -21.1304,-1.18293 -30.3219,-4.21622 -30.0983,-9.93291 0.1774,-4.53747 -3.8661,-4.83873 -5.802,-0.43255 -1.1567,2.63288 -3.4722,3.42187 -13.6526,4.65183 -10.6187,1.2829 -13.0721,1.11616 -18.3278,-1.24175 -5.0477,-2.26457 -10.356,-2.72743 -31.5759,-2.75511 -32.488703,-0.0424 -34.554108,-0.97641 -28.235103,-12.76626 3.4971,-6.52493 2.0558,-10.67118 -2.4187,-6.95763 -7.983905,6.62608 -8.896205,19.34112 -1.7525,24.43384 0.149,0.10621 13.613603,0.61829 29.920503,1.13781 25.1216,0.80034 30.2949,1.36873 33.8795,3.71855 3.9232,2.57178 4.054,2.96797 1.8028,5.45545 -4.2529,4.69947 -13.2758,6.18237 -37.4437,6.15512 -25.668703,-0.029 -41.187608,-2.44576 -48.324508,-7.52764 -5.7148,-4.0693 -6.4702,-6.8191 -4.5915,-16.72513 1.6784,-8.85006 0.3244,-12.23566 -3.4034,-8.50786 -3.5663,3.56633 -4.8528,17.98975 -2.0822,23.34744 l 2.2913,4.43165 -10.5387,1.88331 c -9.3021,1.66235 -10.5399,2.27747 -10.5399,5.24308 0,3.69592 5.8033,22.17491 7.5847,24.15218 0.615,0.68262 17.0787,6.24277 36.5865,12.35496 h 0.001 c 19.507808,6.11218 36.663208,11.18478 38.123308,11.27302 1.5927,0.0963 2.6556,-0.91826 2.6556,-2.53604 0,-2.15704 -4.4754,-4.04545 -22.375,-9.44225 -12.306203,-3.71037 -28.849108,-8.8553 -36.762008,-11.43397 l -14.3869,-4.68872 -2.507,-8.24408 c -1.3785,-4.53414 -2.2612,-8.65875 -1.9626,-9.16619 0.2985,-0.5074 5.6446,-1.74571 11.881,-2.75175 8.4428,-1.36193 12.1531,-1.39373 14.5255,-0.12406 6.4833,3.46975 33.619208,6.42458 51.587008,5.61751 21.4208,-0.96217 30.941,-4.05379 36.0735,-11.7134 3.1828,-4.74988 4.5468,-5.43335 13.6895,-6.85703 9.2164,-1.43519 10.8563,-1.26753 17.74,1.81066 6.5514,2.92962 10.6842,3.45542 30.3386,3.85715 29.7737,0.60859 37.7461,-2.24694 39.6579,-14.2025 0.5111,-3.19649 1.6947,-5.80611 2.631,-5.79746 0.9363,0.008 11.2549,1.99335 22.9294,4.41264 11.6745,2.41934 21.7423,4.07876 22.374,3.68838 2.4007,-1.4837 1.0074,-5.05587 -2.2644,-5.80528 -14.2574,-3.26575 -40.3806,-8.36278 -42.8914,-8.36927 -2.4383,-0.006 -4.4366,-3.14405 -9.6836,-15.20506 l -6.6112,-15.19725 8.9248,-18.39159 8.9247,-18.3916 -0.01,-15.33248 c -0.012,-18.35725 -2.0415,-23.71091 -15.0161,-39.604248 -14.9976,-18.37143 -40.1344,-32.4035 -65.9337,-36.80779 l -6.6101,-1.12887 -0.409,-10.61135 c -0.7075,-18.30518 -6.9287,-27.22155 -18.3201,-26.25903 -10.2276,0.86419 -13.4478,8.73072 -10.836,26.47139 1.3373,9.0837 1.3462,9.07755 -13.1664,10.56441 l -9.6669,0.99027 -7.3309,-13.16528 c -9.9179,-17.81128 -20.09,-27.36788 -28.240703,-27.38565 z m 0.8841,7.05039 c 2.9313,0.0584 5.1269,1.53982 9.609903,6.12495 5.2586,5.37845 19.6503,28.37444 18.2966,29.23543 -0.2169,0.13797 -3.5878,2.0789 -7.4908,4.31317 -3.903,2.23427 -7.6578,4.05375 -8.3435,4.0438 -0.6858,-0.01 -5.2151,-7.52239 -10.064803,-16.69494 -10.352205,-19.57927 -11.165905,-26.19623 -3.3174,-26.96541 0.4577,-0.0449 0.8912,-0.0653 1.31,-0.057 z m 67.548703,1.42729 c 0.5742,-0.004 1.2485,0.043 2.051,0.12183 6.4886,0.63724 10.3718,7.54305 11.3926,20.26038 l 0.7858,9.79097 -6.6548,-0.0235 c -3.66,-0.0128 -7.3983,-0.52485 -8.3078,-1.13781 -2.4686,-1.6638 -4.7612,-18.72457 -3.2826,-24.43049 0.9274,-3.57889 1.5279,-4.56363 4.0158,-4.58141 z m 0.3208,55.95719 c -6.0258,-0.009 -6.2266,0.69343 -6.2266,2.85458 0,3.03755 0.7825,3.22317 14.0314,3.33631 7.7175,0.0659 18.8105,1.02119 24.6507,2.12249 12.1632,2.29363 13.4792,2.19236 14.1153,-1.0864 0.6706,-3.45599 -11.7747,-5.94552 -34.2147,-6.84473 -5.6743,-0.22738 -9.6171,-0.3783 -12.3561,-0.38225 z m 65.6386,11.73016 c -0.089,0.007 -0.1688,0.0228 -0.238,0.0458 -3.9268,1.30892 -1.5164,4.880961 6.3172,9.362891 4.4909,2.569467 9.0186,5.700037 10.0614,6.956497 1.4656,1.76589 2.378,1.88388 4.0203,0.52085 1.791,-1.48636 1.6211,-2.29989 -1.083,-5.17826 -4.3656,-4.646927 -16.321,-11.928568 -19.0779,-11.707808 z m -2.83,106.391848 c 0.4922,-0.0285 0.829,0.0103 0.9635,0.12518 0.5378,0.45965 1.445,3.05465 2.0163,5.76617 0.9376,4.44998 0.6949,4.92873 -2.4947,4.92008 -3.0962,-0.008 -7.9844,-1.95666 -13.5732,-5.41075 -0.9531,-0.58905 1.5535,-2.169 5.6834,-3.5822 3.0482,-1.04305 5.9283,-1.73295 7.4047,-1.81848 z"
       id="path4496"
       inkscape:connector-curvature="0" />
    <text
       xml:space="preserve"
       style="font-style:normal;font-weight:normal;font-size:83.85767365px;line-height:1.25;font-family:sans-serif;letter-spacing:0px;word-spacing:0px;fill:#ffffff;fill-opacity:1;stroke:none;stroke-width:2.09644198"
       x="428.62738"
       y="58.577969"
       id="text4496"><tspan
         sodipodi:role="line"
         id="tspan4494"
         x="428.62738"
         y="58.577969"
         style="font-style:normal;font-variant:normal;font-weight:normal;font-stretch:normal;font-family:'Fredoka One';-inkscape-font-specification:'Fredoka One';fill:#ffffff;fill-opacity:1;stroke-width:2.09644198">404</tspan></text>
    <text
       xml:space="preserve"
       style="font-style:normal;font-weight:normal;font-size:50.75749588px;line-height:1.25;font-family:sans-serif;letter-spacing:0px;word-spacing:0px;fill:#ffffff;fill-opacity:1;stroke:none;stroke-width:1.26893735;"
       x="337.29077"
       y="102.5595"
       id="text4500"><tspan
         sodipodi:role="line"
         id="tspan4498"
         x="337.29077"
         y="102.5595"
         style="font-style:normal;font-variant:normal;font-weight:normal;font-stretch:normal;font-family:'Fredoka One';-inkscape-font-specification:'Fredoka One';fill:#ffffff;fill-opacity:1;stroke-width:1.26893735;">Page not found</tspan></text>
    <text
       xml:space="preserve"
       style="font-style:normal;font-weight:normal;font-size:23.3568821px;line-height:1.25;font-family:sans-serif;letter-spacing:0px;word-spacing:0px;fill:#000000;fill-opacity:1;stroke:none;stroke-width:0.58392209"
       x="509.87549"
       y="171.38875"
       id="text4506"><tspan
         sodipodi:role="line"
         x="509.87549"
         y="171.38875"
         style="font-style:normal;font-variant:normal;font-weight:normal;font-stretch:normal;font-family:'Fredoka One';-inkscape-font-specification:'Fredoka One';text-align:center;text-anchor:middle;fill:#ffffff;fill-opacity:1;stroke-width:0.58392209"
         id="tspan4508">Irineu, você não acha</tspan><tspan
         sodipodi:role="line"
         x="509.87549"
         y="201.64043"
         style="font-style:normal;font-variant:normal;font-weight:normal;font-stretch:normal;font-family:'Fredoka One';-inkscape-font-specification:'Fredoka One';text-align:center;text-anchor:middle;fill:#ffffff;fill-opacity:1;stroke-width:0.58392209"
         id="tspan4512">nem eu</tspan></text>
  </g>
</svg>
