<?xml version="1.0" encoding="UTF-8" standalone="no"?>
<!-- Created with Inkscape (http://www.inkscape.org/) -->

<svg
   xmlns:dc="http://purl.org/dc/elements/1.1/"
   xmlns:cc="http://creativecommons.org/ns#"
   xmlns:rdf="http://www.w3.org/1999/02/22-rdf-syntax-ns#"
   xmlns:svg="http://www.w3.org/2000/svg"
   xmlns="http://www.w3.org/2000/svg"
   xmlns:sodipodi="http://sodipodi.sourceforge.net/DTD/sodipodi-0.dtd"
   xmlns:inkscape="http://www.inkscape.org/namespaces/inkscape"
   width="715mm"
   height="407mm"
   viewBox="0 0 715 407"
   version="1.1"
   id="svg8"
   inkscape:version="0.92.1 r"
   sodipodi:docname="500.svg">
  <defs
     id="defs2" />
  <sodipodi:namedview
     id="base"
     pagecolor="#ffffff"
     bordercolor="#666666"
     borderopacity="1.0"
     inkscape:pageopacity="0.0"
     inkscape:pageshadow="2"
     inkscape:zoom="0.175"
     inkscape:cx="1221.0389"
     inkscape:cy="584.27365"
     inkscape:document-units="mm"
     inkscape:current-layer="layer1"
     showgrid="false"
     inkscape:window-width="1366"
     inkscape:window-height="695"
     inkscape:window-x="0"
     inkscape:window-y="0"
     inkscape:window-maximized="1" />
  <metadata
     id="metadata5">
    <rdf:RDF>
      <cc:Work
         rdf:about="">
        <dc:format>image/svg+xml</dc:format>
        <dc:type
           rdf:resource="http://purl.org/dc/dcmitype/StillImage" />
        <dc:title></dc:title>
      </cc:Work>
    </rdf:RDF>
  </metadata>
  <g
     inkscape:label="Layer 1"
     inkscape:groupmode="layer"
     id="layer1"
     transform="translate(0,110)">
    <text
       xml:space="preserve"
       style="font-style:normal;font-weight:normal;font-size:66.40329742px;line-height:1.25;font-family:sans-serif;letter-spacing:0px;word-spacing:0px;fill:#ffffff;fill-opacity:1;stroke:none;stroke-width:1.66008258"
       x="149.81119"
       y="1.7213724"
       id="text4496"><tspan
         sodipodi:role="line"
         id="tspan4494"
         x="149.81119"
         y="1.7213724"
         style="font-style:normal;font-variant:normal;font-weight:normal;font-stretch:normal;font-family:'Fredoka One';-inkscape-font-specification:'Fredoka One';fill:#ffffff;fill-opacity:1;stroke-width:1.66008258">500</tspan></text>
    <text
       xml:space="preserve"
       style="font-style:normal;font-weight:normal;font-size:40.19268417px;line-height:1.25;font-family:sans-serif;letter-spacing:0px;word-spacing:0px;fill:#ffffff;fill-opacity:1;stroke:none;stroke-width:1.00481713"
       x="18.22665"
       y="46.707165"
       id="text4500"><tspan
         sodipodi:role="line"
         id="tspan4498"
         x="18.22665"
         y="46.707165"
         style="font-style:normal;font-variant:normal;font-weight:normal;font-stretch:normal;font-family:'Fredoka One';-inkscape-font-specification:'Fredoka One';fill:#ffffff;fill-opacity:1;stroke-width:1.00481713">Internal server error</tspan></text>
    <text
       xml:space="preserve"
       style="font-style:normal;font-weight:normal;font-size:20.96040916px;line-height:1.25;font-family:sans-serif;letter-spacing:0px;word-spacing:0px;fill:#000000;fill-opacity:1;stroke:none;stroke-width:0.52401024"
       x="210.76151"
       y="105.7274"
       id="text4506"><tspan
         sodipodi:role="line"
         x="210.76151"
         y="105.7274"
         style="font-style:normal;font-variant:normal;font-weight:normal;font-stretch:normal;font-family:'Fredoka One';-inkscape-font-specification:'Fredoka One';text-align:center;text-anchor:middle;fill:#ffffff;fill-opacity:1;stroke-width:0.52401024"
         id="tspan4512">Esse server aqui tรก uma porra</tspan></text>
    <path
       style="fill:#ffffff;fill-opacity:1;stroke-width:0.73080784"
       d="m 634.81311,285.44364 c -7.28044,-2.37511 -10.39168,-9.85164 -12.34828,-29.6739 -1.69867,-17.20944 -7.90847,-32.74314 -16.95522,-42.41433 -2.38288,-2.54719 -5.52177,-5.07281 -7.07959,-5.69605 -2.34776,-0.93943 -10.14276,-1.21606 -48.40068,-1.71756 -55.75226,-0.73087 -55.29651,-0.73668 -58.15726,0.74259 -4.20915,2.17668 -7.61233,9.89663 -9.00306,20.42298 -1.04683,7.92142 -3.15322,12.05273 -7.34829,14.41163 -2.80273,1.57586 -4.16087,1.82699 -9.88091,1.82699 -6.09817,0 -6.91438,-0.17622 -10.15378,-2.19241 -2.45248,-1.52663 -4.21167,-3.41304 -5.79214,-6.21187 -2.25029,-3.98452 -2.2699,-4.11153 -2.2699,-14.61615 0,-8.22354 0.30163,-11.57873 1.34707,-14.98157 4.79751,-15.61563 12.35409,-23.69381 22.20267,-23.73522 3.56339,-0.0138 3.89927,-0.17456 5.03864,-2.39114 2.52125,-4.90595 7.1928,-11.29571 11.51852,-15.75488 l 4.47239,-4.61006 -2.18586,-1.60181 c -20.57388,-15.07794 -32.15817,-30.93208 -37.05096,-50.707 -2.22239,-8.982991 -2.20169,-24.276308 0.0497,-35.860609 3.87219,-19.93302 12.02235,-35.67144 24.67418,-47.647347 14.49198,-13.7179055 34.67608,-23.94436447 56.53527,-28.6442288 6.69708,-1.4399127 10.04256,-1.6667651 26.29009,-1.7826914 l 18.6166,-0.1328628 8.13772,-9.764523 c 18.79699,-22.555128 32.34015,-32.214304 45.37289,-32.360723 4.2304,-0.0475 5.638,0.235608 7.30827,1.469966 3.77576,2.790365 5.35736,5.926351 5.35736,10.622794 0,8.841674 -4.13603,15.274293 -21.3282,33.1719549 l -7.07702,7.3676748 9.74169,4.8551257 9.74195,4.8551516 1.35477,-1.515516 c 1.99895,-2.2360006 14.88804,-12.7196181 23.38871,-19.02369 18.57351,-13.77397 29.46036,-18.087335 37.34088,-14.794543 5.64159,2.357129 8.22862,6.653118 8.21786,13.6456455 0,8.20464945 -3.89152,13.6567509 -17.16683,24.1309435 -6.40725,5.055069 -19.85844,14.246455 -25.36247,17.330242 l -4.1688,2.335807 3.1319,3.845394 c 3.10847,3.816422 9.1536,13.439354 11.99783,19.098818 2.55292,5.079904 6.54121,17.360367 7.8435,24.151512 1.67029,8.70815 1.68794,24.783255 0.0359,33.464365 -4.34343,22.83843 -14.82615,39.90942 -32.56664,53.03422 -5.86555,4.33957 -19.05053,11.27581 -25.0363,13.17096 l -2.73608,0.86635 3.46692,2.75737 c 18.2612,14.52323 30.20918,44.0597 30.1763,74.59773 -0.0275,15.08201 -1.52742,19.98948 -7.33835,23.83501 -3.1237,2.06717 -10.31812,3.00529 -13.95299,1.81946 z m 9.17678,-7.69361 c 3.58113,-1.4963 4.77181,-5.99274 4.77181,-18.02088 0,-25.3975 -9.27456,-50.9549 -23.69411,-65.29158 -6.3606,-6.32412 -9.90331,-7.86605 -19.69858,-8.57389 -7.87282,-0.56892 -15.3319,-2.18728 -16.14507,-3.50282 -0.22925,-0.37087 1.15178,-0.89306 3.0687,-1.16038 23.70933,-3.30623 39.55809,-8.96527 53.80829,-19.21317 36.17447,-26.0141 41.02308,-81.356519 10.4477,-119.248059 -3.22426,-3.995941 -4.21662,-4.769643 -6.2493,-4.872296 -3.42361,-0.17291 -5.92244,-0.88618 -5.92244,-1.69044 0,-1.417792 3.49928,-3.894242 10.23129,-7.240489 14.85271,-7.382894 40.05171,-26.2281479 43.12426,-32.2508408 3.80369,-7.4558702 0.0827,-14.1416902 -7.11981,-12.7932832 -7.82763,1.465324 -25.60751,13.3818876 -45.52702,30.513236 -6.98171,6.004461 -10.3098,8.239777 -13.42573,9.017697 l -2.12024,0.52933 0.47539,-2.973513 0.47561,-2.973528 -8.52576,-4.14579 C 611.16422,8.6074094 596.81202,3.8097104 585.54677,1.6852638 578.0266,0.26711577 574.38198,0.03269322 559.96848,0.04015085 541.04284,0.05112603 534.99096,0.95349721 520.82373,5.8847449 498.10843,13.791445 477.63814,29.283644 470.00644,44.343961 c -2.05114,4.047652 -2.084,4.241741 -0.72175,4.241741 1.94095,0 49.64923,13.188293 50.61872,13.992742 1.94374,1.613088 0.3975,6.46991 -2.05971,6.46991 -0.94817,0 -51.75724,-13.782426 -52.49914,-14.240937 -0.72534,-0.448324 -4.84309,13.773612 -5.92169,20.452768 -0.45436,2.813623 -0.84521,9.226456 -0.86869,14.250771 -0.0497,10.939474 1.64292,18.921324 5.97831,28.172864 8.2065,17.51211 21.12876,29.1984 54.34015,49.14287 4.72955,2.84029 8.2416,5.38522 7.80432,5.65544 -2.16382,1.33746 -15.98962,-2.57068 -22.98079,-6.49612 l -4.38488,-2.462 -3.07972,2.10874 c -3.81176,2.61008 -8.87494,8.74911 -12.36983,14.99886 -2.4627,4.40376 -2.59142,4.93308 -1.82161,7.50193 1.2432,4.15006 1.07998,4.36267 -2.13042,2.7743 -3.31619,-1.64073 -8.433,-2.4246 -11.23542,-1.72122 -2.78257,0.69839 -6.87379,4.62996 -8.82522,8.48119 -3.9117,7.71939 -5.11434,12.96032 -5.1157,22.29236 -8.9e-4,9.92191 0.6828,12.08472 4.67431,14.77154 3.05048,2.0535 8.10403,2.22164 11.7674,0.39156 2.80189,-1.39965 3.17836,-2.42283 5.36817,-14.59159 1.26505,-7.03003 3.68354,-12.69713 7.0605,-16.543 2.50165,-2.84939 7.00693,-5.57125 9.28375,-5.60909 0.81925,-0.0138 2.23282,-1.63677 3.78209,-4.34293 2.55773,-4.46707 6.31611,-8.64772 7.08398,-7.87984 0.24029,0.24086 0.0689,2.81059 -0.37975,5.71022 -0.44996,2.89963 -0.61682,5.47387 -0.37066,5.72049 0.24579,0.24666 21.71442,0.71602 47.7076,1.04311 l 47.25963,0.5947 3.74186,1.69649 c 7.02234,3.18387 13.39072,10.50645 19.10002,21.96154 5.42169,10.87798 7.69796,19.65437 9.62232,37.10089 1.02802,9.32138 3.44845,16.64985 5.90345,17.87359 2.39939,1.19621 4.60529,1.16512 7.65185,-0.10782 z M 580.06589,86.117984 C 557.1081,80.3352 546.38828,77.322099 545.4393,76.385019 c -1.82328,-1.799775 -1.09133,-4.956031 1.28741,-5.553086 1.85856,-0.466463 68.83834,16.050205 70.42375,17.365942 1.16538,0.967183 1.19029,4.401746 0.0412,5.551752 -0.4822,0.482353 -1.55121,0.847066 -2.37514,0.810511 -0.82393,-0.03657 -16.46126,-3.835549 -34.74974,-8.442154 z m 35.19449,-92.372042 c 20.11507,-20.662944 25.85944,-30.267766 21.00526,-35.121756 -2.13478,-2.135053 -6.66188,-1.419034 -14.17846,2.242556 -9.11163,4.438681 -16.13699,10.899226 -30.15116,27.727758 l -4.61881,5.5460098 2.03821,0.5245799 c 1.12082,0.2885293 5.4908,1.4835555 9.71127,2.6555996 4.22047,1.1720735 8.30377,2.16925102 9.07377,2.21595774 0.856,0.0519217 3.62314,-2.19858304 7.11992,-5.79070504 z"
       id="path4527"
       inkscape:connector-curvature="0" />
  </g>
</svg>
