<?xml version="1.0" encoding="UTF-8" standalone="no"?>
<!-- Created with Inkscape (http://www.inkscape.org/) -->

<svg
   xmlns:dc="http://purl.org/dc/elements/1.1/"
   xmlns:cc="http://creativecommons.org/ns#"
   xmlns:rdf="http://www.w3.org/1999/02/22-rdf-syntax-ns#"
   xmlns:svg="http://www.w3.org/2000/svg"
   xmlns="http://www.w3.org/2000/svg"
   xmlns:sodipodi="http://sodipodi.sourceforge.net/DTD/sodipodi-0.dtd"
   xmlns:inkscape="http://www.inkscape.org/namespaces/inkscape"
   width="733mm"
   height="326mm"
   viewBox="0 0 733 326"
   version="1.1"
   id="svg8"
   inkscape:version="0.92.1 r"
   sodipodi:docname="empty.svg">
  <defs
     id="defs2" />
  <sodipodi:namedview
     id="base"
     pagecolor="#ffffff"
     bordercolor="#666666"
     borderopacity="1.0"
     inkscape:pageopacity="0.0"
     inkscape:pageshadow="2"
     inkscape:zoom="0.24748737"
     inkscape:cx="1086.2744"
     inkscape:cy="978.68106"
     inkscape:document-units="mm"
     inkscape:current-layer="layer1"
     showgrid="false"
     inkscape:window-width="1366"
     inkscape:window-height="717"
     inkscape:window-x="0"
     inkscape:window-y="28"
     inkscape:window-maximized="1" />
  <metadata
     id="metadata5">
    <rdf:RDF>
      <cc:Work
         rdf:about="">
        <dc:format>image/svg+xml</dc:format>
        <dc:type
           rdf:resource="http://purl.org/dc/dcmitype/StillImage" />
        <dc:title></dc:title>
      </cc:Work>
    </rdf:RDF>
  </metadata>
  <g
     inkscape:label="Layer 1"
     inkscape:groupmode="layer"
     id="layer1"
     transform="translate(0,29)">
    <g
       aria-label="Tem certeza que pesquisou pelo termo correto?"
       style="font-style:normal;font-weight:normal;font-size:21.22512054px;line-height:1.25;font-family:sans-serif;letter-spacing:0px;word-spacing:0px;fill:#000000;fill-opacity:1;stroke:none;stroke-width:0.53062809"
       id="text4506">
      <rect
         style="opacity:1;fill:#c0c0c0;fill-opacity:1;stroke:none;stroke-width:0.91003495;stroke-miterlimit:4;stroke-dasharray:none;stroke-opacity:1"
         id="rect4578"
         width="276.89124"
         height="78.042702"
         x="56.66114"
         y="163.36523" />
      <path
         sodipodi:type="star"
         style="opacity:1;fill:#000000;fill-opacity:1;stroke:none;stroke-width:0.86500001;stroke-miterlimit:4;stroke-dasharray:none;stroke-opacity:1"
         id="path101"
         sodipodi:sides="3"
         sodipodi:cx="84.457176"
         sodipodi:cy="174.05602"
         sodipodi:r1="46.020054"
         sodipodi:r2="23.010027"
         sodipodi:arg1="1.5707963"
         sodipodi:arg2="2.6179939"
         inkscape:flatsided="false"
         inkscape:rounded="0"
         inkscape:randomized="0"
         d="M 84.457177,220.07607 64.529908,185.56103 44.60264,151.04599 l 39.854537,0 39.854533,0 -19.92727,34.51504 z"
         inkscape:transform-center-y="4.556001"
         transform="matrix(0.59783026,0,0,0.39600178,245.65147,132.92555)"
         inkscape:transform-center-x="2.4453425e-06" />
    </g>
    <path
       style="fill:#000000;stroke-width:0.51751721"
       d="m 607.52629,279.39452 c 0.8539,-0.10264 7.02529,-0.78994 13.7142,-1.52714 7.41469,-0.81719 12.61294,-1.62557 13.31786,-2.07106 2.42902,-1.53511 2.09283,-5.0436 -0.59073,-6.16485 -1.45028,-0.60597 -3.38517,-0.4954 -15.08751,0.86221 -14.70446,1.70587 -19.19717,1.7076 -25.2206,0.01 -1.93404,-0.54517 -3.66768,-1.14248 -3.85253,-1.32732 -0.83305,-0.83303 8.7337,-17.67214 12.90238,-22.71044 l 1.19429,-1.44346 3.10512,1.07535 c 4.82936,1.67249 15.46156,3.66646 21.73571,4.07633 15.69186,1.0251 28.23742,-2.12045 35.81832,-8.98078 8.10285,-7.33266 8.81102,-17.19716 1.92285,-26.78502 -1.01467,-1.41229 -1.77061,-2.63708 -1.67989,-2.72174 0.0909,-0.0847 2.11354,-1.59486 4.49516,-3.35601 13.54937,-10.01945 22.78663,-24.46938 26.49622,-41.44821 3.6702,-16.79853 1.77511,-33.5308 -5.81709,-51.36126 -1.43186,-3.36272 -2.52129,-6.17687 -2.42097,-6.25366 0.10031,-0.0769 2.74408,-1.47894 5.87506,-3.11591 6.5594,-3.42945 21.65778,-13.356641 26.78655,-17.612187 5.85655,-4.859406 8.66339,-10.169538 8.66339,-16.389879 0,-4.256245 -1.59226,-8.162689 -4.37111,-10.724162 -4.45254,-4.104208 -10.25611,-4.244255 -18.13013,-0.437489 -8.11063,3.921161 -21.05319,12.769545 -31.58623,21.594387 -2.56548,2.149458 -4.95702,4.088861 -5.31447,4.30977 -0.41031,0.253619 -1.89155,-0.586347 -4.01816,-2.278557 l -3.36826,-2.680184 8.97996,-9.168614 c 9.61493,-9.816886 12.81905,-13.848851 15.49381,-19.496836 1.47386,-3.112164 1.68833,-4.09589 1.68053,-7.707619 -0.01,-4.772966 -1.05342,-7.319831 -4.08962,-9.985682 -2.19944,-1.931111 -4.3822,-2.408051 -9.3138,-2.035064 -9.54724,0.722036 -18.22293,6.925371 -31.42605,22.470365 -3.80231,4.476757 -7.41494,8.661088 -8.02804,9.298548 l -1.11474,1.158976 -4.06044,-1.56925 c -5.39667,-2.085671 -16.1133,-4.799263 -23.46733,-5.942234 -8.19995,-1.27444 -25.36807,-1.288322 -33.63862,-0.02713 -22.15412,3.37813 -40.64786,12.026872 -53.84509,25.181066 -12.07789,12.038464 -18.41389,25.330055 -20.19824,42.371495 -0.618,5.9022 -0.10208,14.7568 1.13007,19.40016 0.29088,1.09612 0.39784,2.12398 0.23771,2.2841 -0.16015,0.16021 -3.95979,-3.30261 -8.44368,-7.69501 -13.26726,-12.99661 -25.20423,-23.57526 -33.77137,-29.92852 -12.63191,-9.36766 -22.47262,-10.47889 -27.06188,-3.05593 -3.16024,5.11157 -2.17835,10.86519 2.90507,17.02314 1.51475,1.83496 6.26937,6.41948 10.56578,10.18785 12.9327,11.34317 52.95133,49.3597 67.78655,64.39516 l 4.25335,4.31077 -3.41436,5.17517 c -6.88641,10.43778 -14.73184,28.14676 -21.26797,48.00678 -3.12394,9.4921 -3.4637,10.24749 -4.72187,10.49832 -0.74566,0.14866 -3.56811,0.8486 -6.27214,1.55543 -10.18674,2.66278 -9.49365,2.66057 -20.84941,0.0663 -1.84048,-0.42045 -2.88999,-0.41029 -4.08164,0.0395 -1.38032,0.52101 -1.78445,0.46362 -2.8968,-0.41136 -1.44649,-1.13782 -3.57177,-1.30741 -5.48118,-0.43742 -1.01545,0.46266 -1.51279,0.41052 -2.46835,-0.25876 -3.36418,-2.35635 -8.10197,0.80053 -6.70718,4.46914 0.87281,2.29569 3.70074,3.12699 6.42102,1.88754 0.97326,-0.44344 1.59675,-0.38674 2.84501,0.25877 1.75076,0.90537 4.59383,1.07664 5.74773,0.34629 0.46552,-0.29467 1.12788,-0.21459 1.81131,0.21895 0.59259,0.37589 3.32127,1.28717 6.06372,2.02499 7.01758,1.88803 11.17923,1.80032 19.76964,-0.41662 11.80312,-3.04607 16.14308,-2.97669 34.24102,0.54742 12.12602,2.36123 17.8638,2.24947 29.23974,-0.56952 15.03051,-3.7246 28.3008,-3.73029 41.66014,-0.0175 11.15679,3.10039 15.42537,3.70567 21.21821,3.00879 z m -92.37684,-10.33039 c -5.26575,-0.98819 -11.50334,-1.93736 -13.86134,-2.10931 -2.35799,-0.17193 -4.38041,-0.46337 -4.49428,-0.64762 -0.30597,-0.49506 5.47883,-17.56245 8.82768,-26.04508 5.63836,-14.28196 12.30003,-26.45822 19.15159,-35.00555 l 1.83258,-2.28612 -6.63377,-6.68029 c -18.37275,-18.50153 -56.75353,-55.02345 -70.44717,-67.03525 -11.03951,-9.68364 -13.83446,-13.47915 -12.50355,-16.97968 0.71268,-1.87453 1.33857,-2.26672 3.63315,-2.2766 6.85929,-0.0295 23.23894,13.02144 51.92158,41.37021 11.16137,11.0314 16.06539,16.27778 19.36466,20.7165 7.63166,10.26731 18.85355,20.99475 25.44104,24.32012 5.81173,2.93374 14.31717,4.8492 14.85361,3.34511 0.1073,-0.30083 -1.73132,-1.85546 -4.08577,-3.45479 -10.7149,-7.27834 -24.0102,-19.75325 -30.01902,-28.16668 -5.7185,-8.00698 -9.86425,-17.81682 -11.2796,-26.69024 -0.92718,-5.81297 -0.39421,-18.63593 0.99156,-23.85627 1.56395,-5.8914 4.30127,-12.28599 7.42039,-17.33448 3.80891,-6.164974 12.55363,-14.950282 19.30807,-19.397687 29.22719,-19.244423 71.23551,-20.954776 104.00646,-4.234608 10.08559,5.145803 24.22914,14.257412 24.9181,16.052862 0.13948,0.363642 -0.22831,1.605975 -0.81743,2.760745 -1.15345,2.260948 -1.3717,3.964092 -0.57139,4.458722 0.57184,0.353416 3.96401,-1.27564 7.00423,-3.36374 1.13854,-0.78196 6.49486,-4.954684 11.9029,-9.272731 10.62759,-8.485523 22.8237,-16.965099 28.20925,-19.612984 4.54918,-2.23668 8.05437,-2.640089 9.94518,-1.144616 3.03673,2.401749 3.14583,7.956497 0.24164,12.302019 -3.29388,4.928662 -21.75326,17.323821 -36.58475,24.566048 -9.49418,4.63602 -12.39298,6.45414 -12.40937,7.78312 -0.0156,1.23928 1.98425,1.6367 6.24326,1.24087 l 3.56081,-0.33093 1.49713,2.97851 c 2.37764,4.73024 5.24747,12.84716 6.72525,19.02154 1.25646,5.24955 1.35976,6.53867 1.32709,16.56056 -0.0343,10.49574 -0.0915,11.0805 -1.67534,17.07806 -2.98308,11.29664 -8.93388,21.69382 -16.84016,29.42294 -3.891,3.80383 -10.36566,8.61458 -11.59408,8.61458 -0.41245,0 -2.52893,-1.66145 -4.70334,-3.69208 -9.21457,-8.60542 -23.49435,-18.07672 -36.87266,-24.45639 -8.279,-3.94802 -9.93946,-4.44845 -14.77235,-4.45221 -9.89437,-0.008 -17.71617,5.68947 -17.1204,12.47008 0.29472,3.35432 2.21725,7.01924 5.26673,10.04002 1.49252,1.47845 8.66035,6.4722 16.71354,11.64415 7.75518,4.98055 14.10125,9.22443 14.10233,9.43084 8.8e-4,0.20644 -3.77936,0.43931 -8.40105,0.51753 -7.56242,0.12799 -8.42066,0.23385 -8.57897,1.05821 -0.12949,0.67412 0.55208,1.24845 2.58102,2.17505 5.00841,2.28731 8.54026,2.96344 16.32258,3.12476 l 7.35549,0.15257 2.3405,1.91787 c 1.2873,1.05484 2.82862,2.70766 3.42522,3.67296 0.59657,0.96528 1.40182,1.75508 1.78942,1.75508 1.14829,0 2.31598,-2.15583 2.31598,-4.27591 0,-5.67998 -5.18863,-10.22475 -29.68209,-25.99887 -14.36626,-9.25204 -15.78839,-10.34364 -17.2971,-13.27681 -1.51343,-2.94236 -1.11043,-4.03735 2.10185,-5.71122 1.73479,-0.90396 3.09491,-1.14301 6.63437,-1.1661 l 4.45224,-0.0289 9.52072,4.75356 c 10.55082,5.26783 20.93356,11.90459 28.41012,18.16001 7.41348,6.20263 14.578,13.90754 16.49001,17.73382 4.53893,9.08321 -0.59579,16.62156 -13.82267,20.29313 -3.41556,0.94812 -5.35096,1.09949 -14.05271,1.0992 -11.32695,-4e-4 -16.32536,-0.78075 -26.30692,-4.10707 -2.94112,-0.98012 -5.66746,-1.78204 -6.05854,-1.78204 -1.90426,0 -10.7654,12.91391 -15.91639,23.19601 -3.49056,6.96762 -3.79102,7.39532 -5.01462,7.1383 -0.71588,-0.1504 -4.52287,-0.54641 -8.45997,-0.8801 -9.56822,-0.81097 -18.29643,-0.0671 -28.35253,2.41671 -13.03346,3.21907 -13.89073,3.23123 -28.92,0.4108 z M 630.70757,136.89328 c 1.6674,-1.31157 1.9232,-4.03614 0.49514,-5.27386 -1.45262,-1.25898 -55.40731,-24.8632 -56.83248,-24.8632 -2.87743,0 -4.52886,4.06218 -2.42327,5.96075 0.92748,0.83629 53.96304,24.42563 56.14964,24.97443 0.80434,0.20188 1.67996,-0.0658 2.61097,-0.79812 z m -74.15673,-33.63031 c 1.16806,-1.16806 1.35795,-3.515326 0.38813,-4.797596 -0.87054,-1.150993 -24.52099,-11.892325 -26.18472,-11.892325 -1.3745,0 -3.70192,2.196214 -3.70192,3.49325 0,1.838944 2.87048,3.613401 14.23175,8.797755 6.54658,2.987316 12.42688,5.432046 13.06729,5.432726 0.64044,6.9e-4 1.63018,-0.46454 2.19947,-1.03381 z M 651.5418,75.333303 c -1.84555,-1.129597 -4.76069,-2.763129 -6.47807,-3.630077 -1.71739,-0.866933 -3.12255,-1.820102 -3.12255,-2.118133 0,-0.58636 8.59208,-10.940522 13.28428,-16.008641 4.07469,-4.401171 10.21082,-9.211711 14.04264,-11.009011 4.33544,-2.033502 9.25904,-2.503303 10.60334,-1.011763 2.24868,2.495026 1.27195,7.620398 -2.55588,13.411979 -2.18607,3.307544 -20.75653,22.424513 -21.78044,22.421402 -0.35078,-8.77e-4 -2.14778,-0.926172 -3.99332,-2.055756 z m 3.1741,201.300127 c 2.26968,-0.92609 2.98236,-4.33901 1.23608,-5.91938 -1.50038,-1.35783 -4.27983,-1.82333 -6.16191,-1.03198 -2.59615,1.09161 -2.84571,4.61111 -0.43501,6.1359 1.56633,0.99075 4.01746,1.3636 5.36084,0.81546 z m -10.71019,-0.90863 c 4.35725,-2.18339 2.5603,-7.54855 -2.32327,-6.93661 -4.43686,0.55597 -6.30155,3.91739 -3.64617,6.5728 1.50879,1.50878 3.44855,1.627 5.96944,0.36381 z m -209.15083,-3.1043 c 2.83055,-2.39513 1.12253,-6.44309 -2.71862,-6.44309 -2.50229,0 -4.10221,1.47348 -4.10221,3.77802 0,3.10093 4.3138,4.78644 6.82083,2.66507 z m 232.7637,-12.24537 c 6.70144,-1.62635 12.5145,-7.51575 13.8832,-14.06554 0.2201,-1.05331 0.0996,-1.79423 -0.35301,-2.16986 -0.89748,-0.74483 -1.59863,-0.24989 -2.70578,1.90998 -2.33537,4.55603 -9.41845,10.24549 -14.31856,11.50137 -2.90491,0.74449 -3.71654,1.77648 -2.24401,2.85324 1.14043,0.83388 2.20407,0.82847 5.73816,-0.0292 z m -8.10763,-3.96951 c 7.45084,-1.47672 18.13893,-11.4221 18.13893,-16.87846 0,-0.70141 -0.31175,-1.19218 -0.75728,-1.19218 -0.41651,0 -3.15289,2.40154 -6.08083,5.33673 -5.53563,5.54936 -10.06805,8.42356 -15.28576,9.69339 -1.62927,0.39652 -2.19945,0.79054 -2.19945,1.51984 0,0.54151 0.17465,1.08733 0.38815,1.21299 0.98357,0.57888 3.70026,0.72312 5.79624,0.30769 z M 464.41455,84.666397 c 0.29466,-0.550567 0.54142,-1.773223 0.54837,-2.71699 0.0381,-5.168688 2.32574,-10.098227 6.60287,-14.228238 3.8022,-3.67142 3.86909,-4.390962 0.61763,-6.644209 -1.12752,-0.781385 -2.75603,-2.486571 -3.61894,-3.789308 -1.82144,-2.749906 -3.61421,-8.152124 -3.61421,-10.89093 0,-2.205176 -1.20508,-4.200775 -2.53672,-4.200775 -1.55133,0 -2.48442,1.654361 -2.81412,4.989436 -0.54104,5.472844 -2.13643,8.799573 -6.11938,12.760377 -1.94578,1.934935 -3.53777,3.858496 -3.53777,4.27458 0,0.416057 0.499,1.161759 1.10889,1.657089 3.63049,2.948479 4.5793,4.009053 6.04256,6.754409 1.01491,1.904185 1.84229,4.478567 2.20963,6.875341 0.83603,5.454728 1.18302,6.160211 3.03002,6.160211 0.99827,0 1.73512,-0.35442 2.08117,-1.000993 z m 52.40561,-25.004239 c 0.50754,-0.393899 1.05336,-2.109788 1.3956,-4.387166 0.95827,-6.376927 2.34884,-9.274238 6.33419,-13.197619 1.94559,-1.915326 3.53743,-3.741183 3.53743,-4.057453 0,-0.316257 -0.74455,-1.194454 -1.65457,-1.951502 -4.94531,-4.114157 -7.29233,-8.286689 -8.17475,-14.533162 -0.60142,-4.257478 -1.12476,-5.215182 -2.84986,-5.215182 -1.67562,0 -2.07981,0.789428 -2.76854,5.407288 -0.96047,6.439893 -3.30834,10.53899 -8.23807,14.3827 -1.88811,1.472164 -1.44064,2.881923 1.86387,5.872348 3.62767,3.282865 5.38343,6.840301 6.45557,13.080059 0.85936,5.001399 1.97236,6.25031 4.09913,4.599689 z m 69.12721,-29.295167 c 0.37089,-0.235216 0.89896,-2.036503 1.17353,-4.002832 0.97619,-6.991146 3.37457,-11.621271 7.6476,-14.763691 2.51503,-1.8495642 2.72688,-3.1687312 0.76512,-4.764224 -4.90456,-3.988896 -7.16352,-7.844925 -8.02855,-13.704693 -0.623,-4.220261 -1.42331,-6.008845 -2.76684,-6.183548 -1.86544,-0.24256 -2.42191,0.703181 -3.09491,5.259814 -0.87454,5.921255 -2.619,9.38481 -6.49205,12.889709 -1.73339,1.568634 -3.07491,3.2188158 -3.07491,3.7823598 0,0.571753 1.3123,2.1548722 3.06541,3.6980452 4.11843,3.625199 6.76739,9.542069 6.76739,15.116043 0,2.429524 2.16389,3.86188 4.03821,2.673017 z"
       id="path93"
       inkscape:connector-curvature="0" />
    <text
       xml:space="preserve"
       style="font-style:normal;font-weight:normal;font-size:10.58333302px;line-height:1.25;font-family:sans-serif;letter-spacing:0px;word-spacing:0px;fill:#000000;fill-opacity:1;stroke:none;stroke-width:0.26458332"
       x="9.6216984"
       y="97.08239"
       id="text97"><tspan
         sodipodi:role="line"
         id="tspan95"
         x="9.6216984"
         y="97.08239"
         style="font-style:normal;font-variant:normal;font-weight:normal;font-stretch:normal;font-size:31.75px;font-family:'Fredoka One';-inkscape-font-specification:'Fredoka One';stroke-width:0.26458332">Use a caixa de busca para </tspan><tspan
         sodipodi:role="line"
         x="9.6216984"
         y="136.7699"
         style="font-style:normal;font-variant:normal;font-weight:normal;font-stretch:normal;font-size:31.75px;font-family:'Fredoka One';-inkscape-font-specification:'Fredoka One';stroke-width:0.26458332"
         id="tspan99">realizar buscas avançadas</tspan></text>
  </g>
</svg>
