<?xml version="1.0" encoding="UTF-8" standalone="no"?>
<!-- Created with Inkscape (http://www.inkscape.org/) -->

<svg
   xmlns:dc="http://purl.org/dc/elements/1.1/"
   xmlns:cc="http://creativecommons.org/ns#"
   xmlns:rdf="http://www.w3.org/1999/02/22-rdf-syntax-ns#"
   xmlns:svg="http://www.w3.org/2000/svg"
   xmlns="http://www.w3.org/2000/svg"
   xmlns:sodipodi="http://sodipodi.sourceforge.net/DTD/sodipodi-0.dtd"
   xmlns:inkscape="http://www.inkscape.org/namespaces/inkscape"
   width="210mm"
   height="155mm"
   viewBox="0 0 210 155"
   version="1.1"
   id="svg8"
   inkscape:version="0.92.1 r"
   sodipodi:docname="error.svg">
  <defs
     id="defs2" />
  <sodipodi:namedview
     id="base"
     pagecolor="#ffffff"
     bordercolor="#666666"
     borderopacity="1.0"
     inkscape:pageopacity="0.0"
     inkscape:pageshadow="2"
     inkscape:zoom="0.26557299"
     inkscape:cx="-794.85954"
     inkscape:cy="896.16922"
     inkscape:document-units="mm"
     inkscape:current-layer="layer1"
     showgrid="false"
     inkscape:window-width="1366"
     inkscape:window-height="717"
     inkscape:window-x="0"
     inkscape:window-y="28"
     inkscape:window-maximized="1" />
  <metadata
     id="metadata5">
    <rdf:RDF>
      <cc:Work
         rdf:about="">
        <dc:format>image/svg+xml</dc:format>
        <dc:type
           rdf:resource="http://purl.org/dc/dcmitype/StillImage" />
        <dc:title></dc:title>
      </cc:Work>
    </rdf:RDF>
  </metadata>
  <g
     inkscape:label="Layer 1"
     inkscape:groupmode="layer"
     id="layer1"
     transform="translate(0,-142)">
    <path
       style="fill:#000000;stroke-width:0.26458332"
       d="m 121.97708,144.63404 c -1.71677,0.0201 -3.48102,0.91711 -4.72374,2.72336 -1.4003,2.03528 -3.17273,7.32675 -4.14342,12.36882 l -0.49454,2.56782 -1.98437,0.44081 c -4.10765,0.91207 -8.35548,2.70224 -12.022577,5.06742 -1.41745,0.91421 -2.218553,1.23861 -3.514514,1.42214 -1.937924,0.27445 -4.578524,1.1079 -5.843055,1.84434 -0.631288,0.36766 -1.377209,0.50953 -2.678388,0.50953 -1.755769,0 -1.861857,-0.0396 -3.991488,-1.48984 -5.14305,-3.50246 -10.363353,-4.89565 -12.140345,-3.24013 -1.68483,1.56967 -0.471202,5.02 3.073199,8.73595 1.380918,1.44776 1.423889,1.53249 0.83199,1.65521 -3.69928,0.76696 -4.82759,1.28656 -5.25911,2.42157 -0.583919,1.53583 1.206789,3.51042 4.692219,5.17387 l 1.668632,0.79634 -1.04748,1.24231 c -2.335861,2.7702 -2.441433,4.89048 -0.303343,6.09217 0.973881,0.54735 3.035367,0.9491 6.398578,1.24644 l 1.746663,0.154 0.172082,3.01017 c 0.361871,6.33606 1.839846,10.49207 5.392436,15.1604 3.47667,4.56856 10.150649,9.29435 15.801641,11.18956 2.09322,0.70201 2.13133,0.7308 2.3115,1.73376 0.27411,1.52619 0.24312,6.95106 -0.0599,10.54463 -0.27869,3.30428 -1.34068,10.14537 -1.93065,12.43545 -0.31833,1.23568 -0.40948,1.33875 -1.38338,1.55804 -0.57347,0.12912 -2.14553,0.57561 -3.493344,0.99219 -1.347798,0.41658 -2.916658,0.75706 -3.486608,0.75706 -0.58928,0 -1.215678,0.17956 -1.452107,0.41599 -0.499039,0.49901 -0.516615,0.70037 -0.09818,1.1188 0.558863,0.55887 2.778765,0.34886 5.312335,-0.5023 3.791264,-1.27368 5.279284,-1.29253 8.789694,-0.11058 2.70755,0.91161 3.07642,0.97158 5.29166,0.85731 1.81391,-0.0936 2.79101,-0.29701 4.10105,-0.8537 1.03644,-0.44042 2.40455,-0.78198 3.4432,-0.85938 1.49266,-0.11122 2.09254,-7e-5 4.47828,0.8289 3.77587,1.31194 5.60172,1.31307 9.48934,0.005 3.43638,-1.15608 5.19476,-1.1434 8.12147,0.0589 2.02604,0.8323 2.57858,0.85882 11.37501,0.54415 3.8348,-0.13717 4.40916,-0.32471 4.0287,-1.31619 -0.30598,-0.79735 -2.74552,-0.87486 -8.87336,-0.28216 l -1.67173,0.16123 0.20205,-1.02526 c 0.3279,-1.66368 0.24343,-12.44975 -0.11885,-15.1805 -0.54066,-4.07526 -1.3284,-7.59545 -2.45722,-10.98027 -0.96035,-2.87965 -1.0181,-3.19963 -0.61856,-3.4396 2.72021,-1.63383 5.43322,-3.62447 6.7908,-4.98319 4.39779,-4.40153 7.93907,-11.82116 8.54986,-17.91374 l 0.17312,-1.73013 1.61385,-0.30644 c 1.91187,-0.36335 2.8751,-1.00878 3.20084,-2.14459 0.19751,-0.68869 0.0989,-1.11326 -0.57826,-2.48668 -0.44909,-0.91089 -1.29776,-2.12504 -1.88567,-2.69804 l -1.06919,-1.04181 2.17403,-0.62735 c 4.40441,-1.27156 7.07812,-2.98615 7.07812,-4.53877 0,-1.50385 -0.94763,-2.09138 -4.99659,-3.09699 -1.36569,-0.33919 -2.52284,-0.6569 -2.57194,-0.7059 -0.0491,-0.049 0.79421,-0.72099 1.8743,-1.49346 4.02602,-2.8793 6.47457,-6.14236 6.10144,-8.13133 -0.25558,-1.36234 -1.37874,-1.94256 -3.76308,-1.94356 -3.44008,-0.002 -7.01473,0.98078 -11.98996,3.29542 -4.23397,1.9698 -4.11232,1.96023 -6.02909,0.46923 -0.88524,-0.6886 -1.56555,-1.37119 -1.51206,-1.51671 0.0535,-0.14552 0.80715,-1.81241 1.67484,-3.70419 1.85222,-4.03833 3.36147,-8.0112 3.9517,-10.40304 0.3481,-1.41057 0.36759,-1.96343 0.11368,-3.17399 -0.57384,-2.7358 -2.44305,-4.64189 -4.88032,-4.97595 -2.3548,-0.32277 -4.75361,1.37324 -6.59391,4.66228 -0.98787,1.76553 -2.56784,5.56945 -3.68143,8.86359 -0.62638,1.85289 -1.11318,2.89911 -1.33997,2.87891 -0.19593,-0.0175 -1.7258,-0.33931 -3.39928,-0.71469 -1.67349,-0.37538 -4.35239,-0.82398 -5.95312,-0.99685 -1.60073,-0.17286 -2.94738,-0.34459 -2.99258,-0.38189 -0.0452,-0.0373 0.27525,-1.30051 0.71158,-2.80759 1.7584,-6.07326 2.0502,-8.91561 1.12447,-10.94238 -0.99718,-2.1832 -2.88194,-3.28674 -4.82761,-3.2639 z m 0.20722,1.82625 c 1.15625,-0.002 2.10789,0.67292 2.7435,1.98594 0.93576,1.93302 0.6414,3.7748 -2.01228,12.58638 -0.10803,0.35873 -0.69373,0.46437 -3.36362,0.60876 -1.77783,0.0961 -3.55977,0.23801 -3.95996,0.31471 -0.92199,0.17679 -0.92135,0.154 0.0481,-3.9264 1.70221,-7.16492 3.06515,-10.29543 4.85138,-11.14306 0.59964,-0.28454 1.16735,-0.42531 1.69292,-0.42633 z m 26.34516,2.62828 c 0.90209,0 2.31568,1.01038 2.9621,2.1172 1.15952,1.98538 0.64669,4.08158 -3.20291,13.09126 -0.93282,2.1832 -1.78051,4.04806 -1.88361,4.14396 -0.10309,0.0959 -0.7829,-0.23314 -1.5105,-0.73123 -0.72761,-0.4981 -2.18571,-1.3494 -3.24011,-1.89188 -1.05441,-0.54247 -1.9177,-1.12205 -1.91823,-1.28779 -0.002,-0.51926 2.10456,-6.46246 3.22151,-9.08941 1.83004,-4.30408 3.62628,-6.35211 5.57175,-6.35211 z m -27.18283,14.46638 c 7.50218,0.003 13.91651,1.14548 18.26968,3.25254 2.00238,0.96921 8.41778,5.0269 8.23567,5.20901 -0.0422,0.0422 -1.02267,-0.38798 -2.17868,-0.95602 -3.67986,-1.80823 -5.90556,-2.2612 -11.09751,-2.2562 -3.50151,0.003 -4.8789,0.1094 -6.21771,0.47904 -2.4965,0.68929 -6.23517,2.58968 -8.11164,4.12329 -1.85951,1.51974 -4.04059,4.59086 -4.72633,6.65544 -0.25179,0.7581 -0.54173,1.9871 -0.64441,2.73112 -0.20314,1.47216 -0.23013,1.41814 -0.77307,-1.55754 -1.05413,-5.77732 -6.12471,-10.55644 -12.5998,-11.87531 l -1.587497,-0.32298 1.733237,-0.97152 c 5.62481,-3.15333 11.5681,-4.51486 19.69806,-4.51087 z m -48.573828,5.02143 c 1.673497,-0.0328 5.819735,1.6645 8.603091,3.62564 2.245161,1.58193 3.136432,1.88533 5.449281,1.85313 1.67544,-0.0233 2.253428,-0.16014 3.644739,-0.86248 3.140559,-1.58534 6.665555,-2.1147 10.067087,-1.51103 6.86887,1.21899 11.41693,6.2338 11.41693,12.58845 0,1.65806 -0.0824,2.12494 -0.37517,2.12494 -0.20638,0 -0.54993,0.0669 -0.76326,0.14883 -0.31552,0.12108 -0.36356,-0.0669 -0.25735,-1.00924 0.32174,-2.85449 -1.18646,-6.49049 -3.63081,-8.75352 -7.504734,-6.94808 -20.221395,-3.34688 -21.985255,6.22601 -1.13243,6.14595 3.83677,12.21587 10.835512,13.23596 1.502201,0.21898 2.602389,0.23291 3.729486,0.0465 1.490927,-0.24657 2.135207,-0.10288 1.180297,0.26355 -0.742587,0.28496 -4.955547,0.12946 -6.690553,-0.24702 -2.075188,-0.45028 -4.523009,-1.58036 -6.18205,-2.8541 -1.530339,-1.17493 -2.478349,-1.40495 -7.214031,-1.74977 -3.637198,-0.26486 -5.688542,-0.63797 -5.688542,-1.03457 0,-0.59156 1.739355,-2.80298 2.783295,-3.53883 2.041509,-1.43899 1.866725,-2.76287 -0.465606,-3.52642 -2.859529,-0.93612 -6.14181,-2.9302 -5.444627,-3.30782 0.707649,-0.3833 4.313359,-0.83721 5.518007,-0.69454 1.467551,0.17381 2.371431,-0.31127 2.371431,-1.27279 3e-6,-0.46225 -0.521549,-1.05565 -1.964219,-2.23451 -2.428171,-1.98414 -4.159988,-3.9395 -5.112866,-5.77281 -0.57444,-1.10519 -0.654466,-1.44659 -0.379307,-1.61903 0.126981,-0.0796 0.315418,-0.11985 0.55449,-0.12454 z m 94.723458,0.5855 c 0.59669,-0.007 1.09008,0.0568 1.45366,0.19637 1.81884,0.69796 -2.02437,4.9571 -7.23056,8.01299 -2.7019,1.58593 -3.00874,1.87568 -2.8882,2.72595 0.0809,0.57048 0.24015,0.62059 2.46755,0.77618 3.50289,0.24472 7.65458,1.30496 7.47913,1.90998 -0.16769,0.57826 -4.04539,2.29808 -6.4208,2.8479 -3.30266,0.76445 -3.57187,0.89267 -3.57187,1.69707 0,0.50054 0.55164,1.21632 2.09548,2.71923 2.04337,1.98918 2.76626,3.23389 2.20399,3.79617 -0.56379,0.5638 -2.52608,0.74176 -8.25841,0.74776 l -5.9433,0.006 -2.65565,1.32499 c -2.94453,1.46882 -4.73485,1.99603 -8.07961,2.38075 v 5.2e-4 c -2.55337,0.29369 -3.54398,0.28835 -6.3531,-0.0346 -3.00414,-0.34541 -4.34538,-0.79741 -4.44676,-1.49863 -0.10286,-0.7116 -0.23709,-0.71148 2.26395,-0.005 2.91667,0.82367 7.56294,0.81696 10.51098,-0.015 10.19871,-2.87812 13.64173,-12.32403 6.9081,-18.95347 -1.93701,-1.90705 -4.65782,-3.34882 -7.80055,-4.13362 -3.19718,-0.79841 -8.29423,-0.63159 -11.09286,0.36328 -3.85934,1.37193 -6.66203,3.61693 -8.261,6.61669 -0.74364,1.39509 -0.89832,1.99492 -0.99632,3.86077 l -0.11627,2.20866 -0.7922,-0.15813 c -0.43575,-0.0872 -0.89638,-0.15864 -1.02371,-0.15864 -0.35589,0 -0.26847,-3.14571 0.12867,-4.63024 1.89989,-7.10183 9.76121,-11.70515 19.06706,-11.16476 3.17889,0.1846 6.59857,1.11241 9.26868,2.51459 1.81853,0.95494 1.92658,0.97721 4.78162,0.97721 h 2.92127 l 3.03341,-1.48726 c 4.24259,-2.08023 8.76198,-3.41504 11.34762,-3.44322 z m -33.05276,5.86531 c 4.5817,0 8.87084,1.70131 11.57345,4.59044 1.85856,1.98682 2.44947,3.42897 2.44947,5.979 0,1.36117 -0.15495,2.06431 -0.6935,3.14504 -1.40093,2.81132 -4.8092,5.26268 -8.68836,6.24875 -2.17029,0.55168 -6.66771,0.5013 -8.87439,-0.0992 -2.57461,-0.70063 -3.28528,-1.1681 -4.17701,-2.74817 -0.86618,-1.53478 -2.10013,-2.74446 -3.76463,-3.68971 -1.2688,-0.72056 -1.71949,-1.95981 -1.49809,-4.12071 0.53088,-5.18176 6.59024,-9.30542 13.67306,-9.30542 z m -36.6345,0.56172 c 5.28794,0.0695 9.67395,3.67217 10.33172,8.66723 0.17733,1.34667 0.15851,1.41815 -0.31421,1.19063 -0.28341,-0.13642 -4.02467,-0.20272 -8.572644,-0.15142 -7.442508,0.084 -8.10944,0.12972 -8.580348,0.58447 -0.434171,0.41926 -0.464172,0.5952 -0.199472,1.17616 l 0.31161,0.68316 8.4677,-0.0765 c 4.657264,-0.0422 8.467824,-0.0494 8.467734,-0.016 -9e-5,0.0334 -0.48865,0.30958 -1.0852,0.61392 -1.45258,0.74105 -3.3001,2.47782 -4.11451,3.86749 -0.49571,0.84587 -0.91029,1.20378 -1.63505,1.41129 -3.871959,1.10862 -8.23397,0.0336 -10.97504,-2.70476 -5.686541,-5.68084 -1.699672,-14.56179 6.829039,-15.21156 0.359709,-0.0274 0.716142,-0.0387 1.068671,-0.0341 z m 24.75823,9.74778 -0.41187,0.58809 c -0.5296,0.75611 -0.51933,0.89194 0.11369,1.52498 0.51294,0.51293 0.79084,0.52137 11.70781,0.3607 6.68617,-0.0984 11.31524,-0.26928 11.51299,-0.4253 0.42015,-0.33151 0.42792,-1.31617 0.0134,-1.73065 -0.23704,-0.237 -3.18344,-0.31782 -11.62668,-0.31782 z m -7.96748,0.26459 c 0.14552,0 0.26458,0.11906 0.26458,0.26458 1e-5,0.14552 -0.11906,0.26459 -0.26458,0.26459 -0.14553,0 -0.26458,-0.11907 -0.26458,-0.26459 0,-0.14552 0.11905,-0.26458 0.26458,-0.26458 z m -55.851415,8.23417 c -2.399297,-0.0198 -5.360374,0.25495 -6.925159,0.72192 -3.68042,1.09833 -6.912965,3.00146 -9.391674,5.52941 -3.874312,3.95127 -4.524584,9.5977 -1.765784,15.33352 1.91194,3.9751 5.220377,6.43847 9.253699,6.89006 6.990469,0.78267 16.48152,-3.00788 18.626769,-7.43938 l 0.551905,-1.13999 4.154784,-0.31936 c 2.285061,-0.17559 4.195853,-0.36044 4.246253,-0.41084 0.0504,-0.0504 -1.552683,-1.19711 -3.562575,-2.54818 l -3.654557,-2.45619 v -3.19413 c 0,-2.9053 -0.0635,-3.32888 -0.703831,-4.69484 -1.412172,-3.01243 -4.469847,-5.30053 -8.089945,-6.05289 -0.674577,-0.1402 -1.649296,-0.21009 -2.739885,-0.21911 z m 25.929166,0.76171 c 0.32203,0 1.138399,0.42232 1.814359,0.93845 3.147449,2.40328 6.293403,3.35619 11.410156,3.45666 l 3.807534,0.0749 0.60875,1.07229 0.60926,1.07229 h -1.2945 c -1.21173,0 -1.35847,0.0767 -2.299604,1.20097 -1.899083,2.26864 -4.823083,7.97582 -4.835884,9.43927 -0.0101,1.15518 0.686668,1.31309 2.509409,0.56844 3.547349,-1.4492 4.687789,-1.35489 7.009409,0.57878 1.76392,1.46915 3.69256,2.49874 4.6876,2.50374 0.40502,0.002 1.96812,-0.61764 3.4737,-1.37667 3.49564,-1.76229 4.40644,-1.78869 8.12456,-0.23512 3.27175,1.36706 4.24618,1.38835 6.91999,0.15296 2.45981,-1.13651 3.3627,-1.15534 5.36711,-0.11214 1.83653,0.95582 2.63747,0.9301 3.13004,-0.10077 1.03459,-2.16522 -1.77813,-8.83026 -4.87308,-11.54768 -1.21828,-1.06967 -2.43579,-1.60095 -3.67006,-1.60095 -0.96501,0 -1.11545,-0.2267 -0.6842,-1.0325 0.23929,-0.4471 0.33854,-0.4456 2.18281,0.0284 2.57022,0.66062 7.40559,0.89238 10.36319,0.49662 2.96827,-0.39718 6.09946,-1.37723 8.61291,-2.69598 2.17274,-1.13998 2.8895,-1.214 8.31526,-0.85473 l 2.60501,0.1726 -0.17725,1.48002 c -0.80315,6.71262 -4.70541,14.08143 -9.53069,17.99642 -3.67973,2.98555 -7.83742,4.75659 -14.91123,6.35159 -1.91694,0.43223 -3.6314,0.87586 -3.80959,0.98599 -0.52193,0.32257 0.76652,0.56415 3.16363,0.59325 2.46017,0.0299 4.06829,-0.24661 7.04764,-1.21234 1.14528,-0.37127 2.17011,-0.57031 2.28874,-0.44442 0.38354,0.40699 1.80784,5.21965 2.34301,7.91739 0.91076,4.59102 1.1681,8.17676 1.05885,14.75679 -0.0569,3.4262 -0.17361,6.29934 -0.25941,6.38514 -0.0858,0.0858 -1.09493,-0.19778 -2.24276,-0.63045 -1.14784,-0.43269 -2.52522,-0.85708 -3.06079,-0.94258 l -0.9741,-0.15555 0.15089,-4.29069 c 0.16425,-4.67278 -0.15752,-8.47801 -0.99322,-11.74558 -0.48495,-1.89615 -1.34383,-3.52591 -1.85828,-3.52591 -0.40495,0 -0.28202,1.73399 0.32504,4.5889 0.45677,2.1481 0.57621,3.64293 0.59531,7.44971 0.0297,5.93729 -0.19557,7.80521 -0.94206,7.80521 -0.29213,0 -1.32527,0.32742 -2.29598,0.7276 -1.50108,0.61884 -2.14101,0.72761 -4.27881,0.72761 -2.18487,0 -2.75573,-0.1017 -4.36563,-0.77773 -1.61505,-0.67816 -2.17376,-0.77757 -4.36562,-0.77257 -2.20658,0.005 -2.76463,0.10769 -4.57078,0.84388 -1.53153,0.62426 -2.46876,0.83871 -3.66644,0.83871 -1.42785,0 -1.58785,-0.0521 -1.42006,-0.46302 0.10399,-0.25466 0.25023,-3.20146 0.32453,-6.54844 0.1576,-7.09664 -0.26905,-11.78139 -1.52601,-16.75358 -0.42967,-1.69968 -0.7816,-3.12001 -0.78186,-3.15641 -3.9e-4,-0.0364 0.44545,-0.0799 0.99115,-0.0971 1.44821,-0.0457 2.67386,-0.37459 2.1828,-0.5855 -0.21829,-0.0937 -2.24234,-0.63743 -4.49792,-1.2082 -2.25559,-0.57081 -5.05356,-1.41459 -6.21774,-1.87488 -6.87686,-2.71903 -12.604261,-7.77706 -15.632131,-13.80596 -1.464779,-2.91655 -2.187731,-5.82669 -2.405021,-9.6806 -0.166121,-2.94628 -0.161488,-2.97658 0.418063,-2.97658 z m -26.986983,1.06144 c 5.038889,0.006 8.198159,1.55955 9.857279,4.84625 1.157621,2.29326 1.289204,5.18346 0.347782,7.63678 -0.13175,0.34333 0.320849,0.77052 1.961639,1.85158 1.173049,0.77287 2.135886,1.49439 2.138886,1.60353 0.0033,0.10913 -0.513204,0.19844 -1.147733,0.19844 -0.634529,0 -1.696093,0.0746 -2.358512,0.16536 -1.172911,0.16076 -1.212146,0.19708 -1.511535,1.38907 -0.744331,2.96353 -6.063917,6.07018 -11.814268,6.89988 -3.100419,0.44734 -3.549417,0.46994 -4.965586,0.24805 -3.409312,-0.53419 -6.8301,-3.34258 -8.231539,-6.75725 -1.017371,-2.47888 -1.203844,-6.07824 -0.440286,-8.49514 1.686381,-5.33785 8.865172,-9.59555 16.163873,-9.58655 z m 5.712311,7.27298 c -0.492299,0 -0.534312,0.20155 -0.604612,2.89338 -0.04163,1.59139 -0.01239,3.0588 0.06511,3.26081 0.07752,0.20196 0.350023,0.32712 0.605131,0.27802 0.411321,-0.0792 0.463537,-0.44871 0.463537,-3.2608 3e-6,-2.99501 -0.02943,-3.17141 -0.529167,-3.17141 z m -15.926675,0.1695 c -0.247579,0.006 -0.502886,0.0329 -0.762744,0.0817 l -0.905372,0.17002 v 3.64786 c 0,2.00645 0.0893,3.7394 0.198437,3.85095 0.257821,0.26351 2.865972,-0.0397 3.599781,-0.41858 1.579081,-0.8153 1.931458,-1.90398 0.937929,-2.89751 -0.40409,-0.4041 -0.476255,-0.63481 -0.264583,-0.84647 0.160068,-0.16008 0.290936,-0.73502 0.290936,-1.27745 2e-6,-1.39235 -1.361337,-2.35329 -3.094384,-2.31046 z m 0.01499,1.30898 c 0.116242,-0.008 0.27002,0.006 0.473358,0.0264 1.014058,0.10091 1.545299,0.79719 1.122929,1.47175 -0.159452,0.25467 -0.664671,0.50062 -1.122929,0.54622 -0.813321,0.0809 -0.833543,0.0566 -0.833543,-1.00924 0,-0.7994 0.01146,-1.01251 0.360185,-1.03509 z m 6.894671,1.11776 c -2.289762,-0.0885 -3.730289,2.95356 -1.983343,4.70052 0.81425,0.81425 1.406504,0.93703 2.503723,0.51987 1.959041,-0.74483 1.919166,-4.72653 -0.05168,-5.15941 -0.159504,-0.035 -0.316055,-0.0551 -0.468704,-0.061 z m 5.55625,0 c -2.289762,-0.0885 -3.730289,2.95356 -1.983343,4.70052 0.81425,0.81425 1.406504,0.93703 2.503723,0.51987 1.959041,-0.74483 1.919165,-4.72653 -0.05168,-5.15941 -0.159504,-0.035 -0.316055,-0.0551 -0.468704,-0.061 z m -5.693193,1.27073 c 0.06717,-0.003 0.135485,0.002 0.204639,0.015 0.583139,0.1106 0.824249,1.89763 0.335378,2.48669 -0.382939,0.46139 -1.090435,0.48984 -1.519285,0.061 -0.770578,-0.77058 -0.02826,-2.51987 0.979268,-2.56265 z m 5.55625,0 c 0.06717,-0.003 0.135485,0.002 0.204639,0.015 0.583139,0.1106 0.824249,1.89763 0.335378,2.48669 -0.382939,0.46139 -1.090425,0.48984 -1.519285,0.061 -0.770578,-0.77058 -0.02826,-2.51987 0.979268,-2.56265 z M 47.94228,207.8264 c 1.77587,0 2.452888,1.05571 1.00149,1.56168 -1.479262,0.51567 -1.812811,0.39874 -1.812811,-0.63563 2e-6,-0.85695 0.06069,-0.92605 0.811321,-0.92605 z m 15.282788,1.9446 c -0.09465,-3.6e-4 -0.182359,0.0299 -0.252183,0.0997 -0.165877,0.16588 -0.230126,0.48818 -0.142626,0.71624 0.18311,0.47719 0.853681,0.55183 1.117762,0.12454 0.227176,-0.36759 -0.312804,-0.93896 -0.722953,-0.94052 z m 44.676382,15.34644 c 0.26219,0.26218 1.18162,4.0276 1.68932,6.91848 0.6447,3.67147 0.95318,11.26969 0.65267,16.07917 -0.22043,3.52796 -0.0588,3.37621 -2.65515,2.49959 -0.87313,-0.2948 -1.71777,-0.5669 -1.87741,-0.6041 -0.19544,-0.0456 -0.0908,-0.95623 0.32091,-2.78794 1.30701,-5.8147 2.10738,-13.87517 1.89343,-19.06971 -0.0712,-1.72784 -0.082,-3.09369 -0.0238,-3.03549 z m -16.269852,26.89561 c -0.306562,0.003 -0.608809,0.11253 -0.816488,0.36276 -0.37728,0.45459 -0.125487,1.16314 0.457853,1.28881 0.680752,0.14667 1.314172,-0.0753 1.48518,-0.52089 0.243597,-0.63481 -0.452109,-1.13833 -1.126545,-1.13068 z m -3.869531,0.0207 c -0.375762,0.0113 -0.726512,0.1144 -0.904338,0.32867 -0.384379,0.46315 -0.147146,1.16674 0.446484,1.32395 0.78463,0.20781 0.992823,0.18396 1.476912,-0.17002 0.261922,-0.19152 0.432705,-0.57847 0.379307,-0.85989 -0.07682,-0.40477 -0.772097,-0.64148 -1.398365,-0.62271 z m 80.507793,0.01 c -0.9566,-0.0169 -1.30281,0.70431 -0.60203,1.40509 0.50582,0.50586 0.67083,0.51413 1.28209,0.0672 0.7095,-0.5188 0.43393,-1.35406 -0.48111,-1.45883 -0.0691,-0.008 -0.13518,-0.0123 -0.19895,-0.0134 z m -4.15323,5.2e-4 c -0.45679,0.0153 -0.59105,0.15101 -0.71107,0.52917 -0.13262,0.41785 -0.0478,0.69119 0.29248,0.93999 0.93398,0.68294 2.37646,0.1185 2.19109,-0.85731 -0.0743,-0.3913 -0.35571,-0.5303 -1.19683,-0.59169 -0.23528,-0.0172 -0.42341,-0.0253 -0.57567,-0.0202 z m -79.944009,0.10077 c -0.697968,0 -0.942607,0.1229 -1.017508,0.5116 -0.05419,0.28142 0.115834,0.66837 0.377756,0.85989 0.261919,0.19152 0.549854,0.3483 0.639752,0.3483 0.463081,0 1.103709,-0.76063 1.01751,-1.20819 -0.07486,-0.3887 -0.319539,-0.5116 -1.01751,-0.5116 z m 76.729209,0 c -0.69797,0 -0.94209,0.1229 -1.01699,0.5116 -0.0542,0.28142 0.11532,0.66837 0.37724,0.85989 0.26192,0.19152 0.54985,0.3483 0.63975,0.3483 0.46308,0 1.10371,-0.76063 1.01751,-1.20819 -0.0749,-0.3887 -0.31954,-0.5116 -1.01751,-0.5116 z"
       id="path21"
       inkscape:connector-curvature="0" />
    <text
       xml:space="preserve"
       style="font-style:normal;font-weight:normal;font-size:10.58333302px;line-height:1.25;font-family:sans-serif;letter-spacing:0px;word-spacing:0px;fill:#000000;fill-opacity:1;stroke:none;stroke-width:0.26458332"
       x="105.25613"
       y="270.97562"
       id="text18"><tspan
         sodipodi:role="line"
         id="tspan16"
         x="105.25613"
         y="270.97562"
         style="font-style:normal;font-variant:normal;font-weight:normal;font-stretch:normal;font-size:16.93333244px;font-family:'Fredoka One';-inkscape-font-specification:'Fredoka One';text-align:center;text-anchor:middle;stroke-width:0.26458332">Ora, ora, nenhuma dupla</tspan><tspan
         sodipodi:role="line"
         x="105.25613"
         y="292.14227"
         style="font-style:normal;font-variant:normal;font-weight:normal;font-stretch:normal;font-size:16.93333244px;font-family:'Fredoka One';-inkscape-font-specification:'Fredoka One';text-align:center;text-anchor:middle;stroke-width:0.26458332"
         id="tspan20">atuou tanto em conjunto</tspan></text>
  </g>
</svg>
