<?xml version="1.0" encoding="UTF-8" standalone="no"?>
<!-- Created with Inkscape (http://www.inkscape.org/) -->

<svg
   xmlns:dc="http://purl.org/dc/elements/1.1/"
   xmlns:cc="http://creativecommons.org/ns#"
   xmlns:rdf="http://www.w3.org/1999/02/22-rdf-syntax-ns#"
   xmlns:svg="http://www.w3.org/2000/svg"
   xmlns="http://www.w3.org/2000/svg"
   xmlns:sodipodi="http://sodipodi.sourceforge.net/DTD/sodipodi-0.dtd"
   xmlns:inkscape="http://www.inkscape.org/namespaces/inkscape"
   width="210mm"
   height="297mm"
   viewBox="0 0 210 297"
   version="1.1"
   id="svg8"
   inkscape:version="0.92.1 r"
   sodipodi:docname="error.svg">
  <defs
     id="defs2" />
  <sodipodi:namedview
     id="base"
     pagecolor="#ffffff"
     bordercolor="#666666"
     borderopacity="1.0"
     inkscape:pageopacity="0.0"
     inkscape:pageshadow="2"
     inkscape:zoom="0.75115385"
     inkscape:cx="400"
     inkscape:cy="805.27707"
     inkscape:document-units="mm"
     inkscape:current-layer="layer1"
     showgrid="false"
     inkscape:window-width="1366"
     inkscape:window-height="716"
     inkscape:window-x="0"
     inkscape:window-y="28"
     inkscape:window-maximized="1" />
  <metadata
     id="metadata5">
    <rdf:RDF>
      <cc:Work
         rdf:about="">
        <dc:format>image/svg+xml</dc:format>
        <dc:type
           rdf:resource="http://purl.org/dc/dcmitype/StillImage" />
        <dc:title></dc:title>
      </cc:Work>
    </rdf:RDF>
  </metadata>
  <g
     inkscape:label="Layer 1"
     inkscape:groupmode="layer"
     id="layer1">
    <path
       style="fill:#000000;stroke-width:0.26458332"
       d="m 86.032709,2.8714691 c -1.716773,0.020143 -3.481022,0.9171093 -4.723744,2.7233456 -1.400299,2.0352649 -3.172724,7.3267043 -4.143414,12.3687543 l -0.494546,2.567803 -1.984375,0.440801 c -4.10763,0.912069 -8.355431,2.702229 -12.022521,5.06739 -1.41745,0.914209 -2.218553,1.238604 -3.514514,1.422135 -1.937924,0.27445 -4.578524,1.107901 -5.843055,1.844331 -0.631288,0.36766 -1.377209,0.50953 -2.678388,0.50953 -1.755769,0 -1.861857,-0.03955 -3.991488,-1.489832 -5.14305,-3.502438 -10.363353,-4.895623 -12.140345,-3.240111 -1.68483,1.569659 -0.471202,5.019971 3.073199,8.735901 1.380918,1.44775 1.423889,1.532474 0.83199,1.655196 -3.69928,0.766958 -4.82759,1.286558 -5.25911,2.421557 -0.583919,1.535821 1.206789,3.510404 4.692219,5.173845 l 1.668632,0.796332 -1.04748,1.242303 c -2.335861,2.77018 -2.441433,4.890453 -0.303343,6.092135 0.973881,0.547349 3.035367,0.949095 6.398578,1.246433 l 1.746663,0.153998 0.172082,3.010152 c 0.361871,6.33603 1.839846,10.492015 5.392436,15.160315 3.47667,4.568539 10.150649,9.294296 15.80162,11.189496 2.093209,0.702011 2.131317,0.730795 2.311485,1.733746 0.274111,1.526188 0.243125,6.951025 -0.05994,10.544574 -0.278681,3.30426 -1.340663,10.145341 -1.930631,12.435421 -0.31833,1.23568 -0.409479,1.33875 -1.383379,1.55804 -0.57346,0.12912 -2.145517,0.57561 -3.493325,0.99219 -1.347801,0.41658 -2.916661,0.75706 -3.486611,0.75706 -0.58928,0 -1.215678,0.17956 -1.452107,0.41599 -0.499039,0.49901 -0.516615,0.70037 -0.09818,1.1188 0.558863,0.55887 2.778765,0.34886 5.312336,-0.5023 3.791251,-1.27368 5.279255,-1.29253 8.789643,-0.11058 2.707542,0.91161 3.076408,0.97158 5.291667,0.85731 1.813901,-0.0936 2.791002,-0.29701 4.101041,-0.8537 1.036442,-0.44042 2.404552,-0.78198 3.443203,-0.85938 1.49266,-0.11122 2.092539,-7e-5 4.478279,0.8289 3.775869,1.31194 5.601724,1.31307 9.489342,0.005 3.436382,-1.15608 5.194762,-1.1434 8.121472,0.0589 2.02604,0.8323 2.57858,0.85882 11.37501,0.54415 3.8348,-0.13717 4.40916,-0.32471 4.0287,-1.31619 -0.30598,-0.79735 -2.74552,-0.87486 -8.87336,-0.28216 l -1.67173,0.16123 0.20205,-1.02526 c 0.3279,-1.66368 0.24343,-12.449735 -0.11885,-15.180466 -0.54066,-4.075239 -1.3284,-7.595406 -2.45722,-10.980208 -0.96035,-2.87964 -1.0181,-3.199611 -0.61856,-3.439583 2.72021,-1.633818 5.43322,-3.624448 6.7908,-4.983157 4.39779,-4.401511 7.93907,-11.821097 8.54986,-17.913636 l 0.17312,-1.730126 1.61385,-0.30644 c 1.91187,-0.363342 2.8751,-1.008775 3.20084,-2.144573 0.19751,-0.688692 0.0989,-1.11326 -0.57826,-2.48667 -0.44909,-0.910881 -1.29776,-2.125028 -1.88567,-2.698028 l -1.06919,-1.041797 2.17403,-0.627351 c 4.40441,-1.27155 7.07812,-2.986132 7.07812,-4.538741 0,-1.503839 -0.94763,-2.091368 -4.99659,-3.096969 -1.36569,-0.339188 -2.52284,-0.6569 -2.57194,-0.705898 -0.0491,-0.04904 0.79421,-0.72099 1.8743,-1.493451 4.02602,-2.879289 6.47457,-6.142326 6.10144,-8.131286 -0.25558,-1.362329 -1.37874,-1.94255 -3.76308,-1.94355 -3.44008,-0.0018 -7.01473,0.980776 -11.98996,3.295406 -4.23397,1.969781 -4.11232,1.960211 -6.02909,0.46922 -0.88524,-0.688599 -1.56555,-1.371182 -1.51206,-1.516702 0.0535,-0.145519 0.80715,-1.812396 1.67484,-3.704167 1.85222,-4.038309 3.36147,-8.011152 3.9517,-10.402983 0.3481,-1.41056 0.36759,-1.963414 0.11368,-3.173965 -0.57384,-2.7357838 -2.44305,-4.6418606 -4.88032,-4.9759235 -2.3548,-0.3227626 -4.75361,1.3732298 -6.59391,4.6622465 -0.98787,1.76553 -2.56784,5.569424 -3.68143,8.863542 -0.62638,1.852879 -1.11318,2.899095 -1.33997,2.878894 -0.19593,-0.0175 -1.725798,-0.339304 -3.399279,-0.714685 -1.67349,-0.37538 -4.352393,-0.823978 -5.953125,-0.996839 -1.600729,-0.17286 -2.947382,-0.344588 -2.99258,-0.381889 -0.04516,-0.03725 0.275253,-1.300509 0.711583,-2.807581 C 91.494251,11.004446 91.78605,8.1621144 90.86032,6.1353505 89.863143,3.9521623 87.978383,2.8486382 86.032709,2.8714691 Z m 0.207222,1.8262441 c 1.156245,-0.00225 2.107887,0.6729148 2.743501,1.9859254 0.93576,1.9330035 0.641401,3.7747814 -2.01228,12.5863114 -0.10803,0.358719 -0.693738,0.464367 -3.363619,0.608748 -1.777839,0.09614 -3.559776,0.238011 -3.959966,0.314711 -0.921988,0.176789 -0.92135,0.154003 0.04806,-3.926377 1.70221,-7.1648795 3.065153,-10.2953686 4.851381,-11.1429878 0.599636,-0.2845461 1.167355,-0.4253071 1.692921,-0.426331 z m 26.345159,2.6282623 c 0.90209,0 2.31568,1.0103749 2.9621,2.1171852 1.15952,1.9853703 0.64669,4.0815603 -3.20291,13.0911893 -0.93282,2.18319 -1.78051,4.048032 -1.88361,4.143933 -0.10309,0.0959 -0.7829,-0.23314 -1.5105,-0.731221 -0.72761,-0.498099 -2.18571,-1.349394 -3.24011,-1.891874 -1.05441,-0.54247 -1.9177,-1.122048 -1.91823,-1.287777 -0.002,-0.519261 2.10456,-6.462427 3.22151,-9.089367 1.83004,-4.3040507 3.62628,-6.3520685 5.57175,-6.3520685 z M 85.402255,21.792275 c 7.502181,0.0034 13.916517,1.145466 18.269685,3.252515 2.00238,0.969211 8.41778,5.026875 8.23567,5.208985 -0.0422,0.04221 -1.02267,-0.387983 -2.17868,-0.956014 -3.67986,-1.808221 -5.90556,-2.261193 -11.097509,-2.256192 -3.501509,0.0031 -4.878898,0.1094 -6.217708,0.479041 -2.4965,0.68928 -6.235179,2.589663 -8.111649,4.123262 -1.85951,1.51974 -4.040587,4.590838 -4.726326,6.655408 -0.251791,0.75809 -0.541734,1.98709 -0.644406,2.731098 -0.203139,1.47216 -0.230129,1.418132 -0.773078,-1.557528 C 77.104125,33.695562 72.033547,28.916467 65.558505,27.597607 l -1.5875,-0.322977 1.73323,-0.971518 c 5.624779,-3.15331 11.568062,-4.514834 19.69802,-4.510837 z m -48.573777,5.0214 c 1.673497,-0.03283 5.819735,1.664489 8.603091,3.625618 2.245161,1.581922 3.136432,1.885317 5.449281,1.853117 1.67544,-0.02335 2.253428,-0.160139 3.644739,-0.862478 3.140559,-1.58533 6.665555,-2.114679 10.067084,-1.511019 6.868839,1.218988 11.416873,6.233768 11.416873,12.588377 3e-6,1.658051 -0.0824,2.124935 -0.375168,2.124935 -0.20638,0 -0.549931,0.06693 -0.763262,0.148828 -0.315521,0.121081 -0.363559,-0.06694 -0.25735,-1.00924 0.321741,-2.85447 -1.186444,-6.490451 -3.630784,-8.753469 -7.5047,-6.948041 -20.221361,-3.346855 -21.985221,6.225976 -1.13243,6.145919 3.83677,12.215805 10.835512,13.235884 1.502201,0.21898 2.602389,0.232908 3.72949,0.04651 1.49092,-0.246571 2.135198,-0.102881 1.180288,0.263549 -0.742579,0.284961 -4.955542,0.129458 -6.690548,-0.247013 -2.075188,-0.450281 -4.523009,-1.580359 -6.18205,-2.854089 -1.530339,-1.174919 -2.478349,-1.404935 -7.214031,-1.749764 -3.637198,-0.26485 -5.688542,-0.637963 -5.688542,-1.034563 0,-0.59155 1.739355,-2.802961 2.783295,-3.538802 2.041509,-1.438989 1.866725,-2.762858 -0.465606,-3.526398 -2.859529,-0.936123 -6.14181,-2.930189 -5.444627,-3.307811 0.707649,-0.383299 4.313359,-0.837199 5.518007,-0.694531 1.467551,0.17381 2.371431,-0.311269 2.371431,-1.272788 3e-6,-0.462241 -0.521549,-1.05564 -1.964219,-2.234491 -2.428171,-1.984129 -4.159988,-3.939485 -5.112866,-5.772775 -0.57444,-1.105188 -0.654466,-1.446583 -0.379307,-1.619022 0.126981,-0.07958 0.315418,-0.119848 0.55449,-0.12454 z m 94.723412,0.585494 c 0.59669,-0.0065 1.09008,0.05685 1.45366,0.196371 1.81884,0.69795 -2.02437,4.957067 -7.23056,8.012946 -2.7019,1.585921 -3.00874,1.875663 -2.8882,2.725933 0.0809,0.570471 0.24015,0.620581 2.46755,0.776179 3.50289,0.244711 7.65458,1.304952 7.47913,1.909961 -0.16769,0.57826 -4.04539,2.298068 -6.4208,2.847888 -3.30266,0.764442 -3.57187,0.892665 -3.57187,1.697056 0,0.500539 0.55164,1.216313 2.09548,2.719213 2.04337,1.98918 2.76626,3.23388 2.20399,3.796152 -0.56379,0.563798 -2.52608,0.741756 -8.25841,0.747757 l -5.9433,0.0057 -2.65565,1.324986 c -2.94453,1.468808 -4.73485,1.996011 -8.07961,2.380731 v 5.19e-4 c -2.553373,0.29369 -3.543984,0.288356 -6.353102,-0.03462 -3.00414,-0.345401 -4.345379,-0.797407 -4.446757,-1.498619 -0.102862,-0.711599 -0.237088,-0.711478 2.263944,-0.0052 2.916669,0.823671 7.562945,0.816954 10.510985,-0.01499 10.19871,-2.878101 13.64173,-12.323956 6.9081,-18.953364 -1.93701,-1.90704 -4.65782,-3.348799 -7.80055,-4.133598 -3.19718,-0.798402 -8.294234,-0.631584 -11.092864,0.363286 -3.85934,1.37192 -6.662023,3.61691 -8.260996,6.61665 -0.743638,1.395079 -0.898321,1.994905 -0.99632,3.860747 l -0.116271,2.208649 -0.7922,-0.158129 c -0.43575,-0.08716 -0.896382,-0.158646 -1.023712,-0.158646 -0.355889,0 -0.268465,-3.14569 0.128675,-4.630209 1.89989,-7.101789 9.761204,-11.705084 19.067058,-11.164694 3.17889,0.1846 6.59857,1.112406 9.26868,2.514576 1.81853,0.954929 1.92658,0.977202 4.78162,0.977202 h 2.92127 l 3.03341,-1.48725 c 4.24259,-2.080217 8.76198,-3.415019 11.34762,-3.4432 z m -33.052761,5.865276 c 4.581701,0 8.870841,1.701307 11.573451,4.590417 1.85856,1.986809 2.44947,3.428953 2.44947,5.978962 0,1.361162 -0.15495,2.064297 -0.6935,3.145028 -1.40093,2.811301 -4.8092,5.262644 -8.68836,6.248714 -2.17029,0.55167 -6.667713,0.501293 -8.874394,-0.09922 -2.574607,-0.70063 -3.285275,-1.168101 -4.177003,-2.748153 -0.866183,-1.534779 -2.100131,-2.744446 -3.76463,-3.689697 -1.268809,-0.72055 -1.71949,-1.959798 -1.498099,-4.120679 0.530889,-5.181729 6.590246,-9.305374 13.673065,-9.305374 z m -36.634453,0.561723 c 5.287928,0.06949 9.673917,3.672142 10.331669,8.667171 0.177329,1.346671 0.158517,1.418145 -0.314193,1.190625 -0.283411,-0.13642 -4.024653,-0.202714 -8.572605,-0.151413 -7.442513,0.08395 -8.109445,0.129712 -8.580353,0.584461 -0.434171,0.419259 -0.464172,0.595197 -0.199472,1.176155 l 0.31161,0.683163 8.467699,-0.07648 c 4.65724,-0.0422 8.467791,-0.04942 8.467701,-0.01602 -9e-5,0.03342 -0.488657,0.309575 -1.085205,0.613915 -1.45257,0.741042 -3.300079,2.477804 -4.11448,3.867465 -0.49571,0.84587 -0.910291,1.203774 -1.63504,1.411285 -3.87196,1.108609 -8.233971,0.03357 -10.975041,-2.704746 -5.686541,-5.68081 -1.699672,-14.561714 6.829039,-15.211475 0.359709,-0.02741 0.716142,-0.03874 1.068671,-0.0341 z m 24.758178,9.747724 -0.411861,0.588078 c -0.5296,0.756111 -0.519332,0.891943 0.113686,1.524971 0.51294,0.51293 0.790835,0.521373 11.707813,0.360702 6.686168,-0.0984 11.315238,-0.269277 11.512988,-0.425297 0.42015,-0.33151 0.42792,-1.316164 0.0134,-1.730642 -0.23704,-0.237001 -3.18344,-0.317812 -11.626679,-0.317812 z m -7.967474,0.264583 c 0.145521,0 0.264583,0.119065 0.264583,0.264583 3e-6,0.145521 -0.119062,0.264584 -0.264583,0.264584 -0.145529,0 -0.264584,-0.119063 -0.264584,-0.264584 0,-0.145518 0.119055,-0.264583 0.264584,-0.264583 z m -55.851369,8.234124 c -2.399297,-0.01984 -5.360374,0.254955 -6.925159,0.721919 -3.68042,1.098319 -6.9129646,3.001438 -9.3916738,5.529378 -3.8743123,3.951251 -4.524584,9.597642 -1.7657842,15.333433 1.91194,3.975078 5.2203773,6.438436 9.253699,6.890017 6.990469,0.782669 16.48152,-3.00786 18.626769,-7.43934 l 0.551905,-1.139981 4.154784,-0.31936 c 2.285061,-0.17558 4.195853,-0.360429 4.246253,-0.410829 0.0504,-0.0504 -1.552683,-1.197105 -3.562575,-2.548165 l -3.654557,-2.45618 v -3.194119 c 0,-2.905281 -0.0635,-3.328855 -0.703831,-4.694804 -1.412172,-3.012421 -4.469847,-5.300501 -8.089945,-6.052862 -0.674577,-0.140192 -1.649296,-0.21009 -2.739885,-0.219107 z m 25.929166,0.761709 c 0.32203,0 1.138399,0.422315 1.814359,0.938446 3.147449,2.40326 6.293403,3.356165 11.410156,3.456635 l 3.807521,0.07493 0.608748,1.072288 0.609264,1.072285 H 65.68873 c -1.21172,0 -1.358461,0.07669 -2.299599,1.200962 -1.899082,2.26863 -4.823082,7.975777 -4.835883,9.439216 -0.0101,1.155169 0.686668,1.31308 2.509409,0.568439 3.547348,-1.449199 4.687782,-1.354883 7.009389,0.578776 1.763911,1.469142 3.692541,2.498725 4.68757,2.503726 0.405022,0.0018 1.968111,-0.617641 3.473691,-1.376662 3.495649,-1.762289 4.406448,-1.788686 8.124568,-0.235127 3.271751,1.36706 4.246182,1.388343 6.919992,0.152961 2.45981,-1.136499 3.362704,-1.155327 5.367113,-0.112136 1.836531,0.95581 2.637472,0.93009 3.130042,-0.100769 1.034588,-2.165212 -1.778138,-8.830207 -4.873088,-11.547618 -1.218279,-1.06966 -2.435789,-1.600935 -3.670059,-1.600935 -0.965002,0 -1.115447,-0.226706 -0.684197,-1.032494 0.239289,-0.447101 0.338542,-0.445598 2.182813,0.02842 2.57022,0.660609 7.405589,0.892371 10.363189,0.49661 2.96827,-0.397179 6.09946,-1.377217 8.61291,-2.695959 2.17274,-1.139978 2.8895,-1.213998 8.31526,-0.854728 l 2.60501,0.172601 -0.17725,1.480013 c -0.80315,6.712579 -4.70541,14.081347 -9.53069,17.996315 -3.67973,2.985532 -7.83742,4.756563 -14.911233,6.35155 -1.916938,0.432232 -3.631396,0.875858 -3.809584,0.985989 -0.521931,0.322569 0.766519,0.564144 3.16363,0.593243 2.46017,0.0299 4.068287,-0.246607 7.047637,-1.212329 1.14528,-0.371268 2.17011,-0.570306 2.28874,-0.444415 0.38354,0.406987 1.80784,5.219615 2.34301,7.917344 0.91076,4.590992 1.1681,8.176712 1.05885,14.756725 -0.0569,3.4262 -0.17361,6.29934 -0.25941,6.38514 -0.0858,0.0858 -1.09493,-0.19778 -2.24276,-0.63045 -1.14784,-0.43269 -2.52522,-0.85708 -3.06079,-0.94258 l -0.9741,-0.15555 0.15089,-4.29069 c 0.16425,-4.672773 -0.15752,-8.47799 -0.99322,-11.745538 -0.48495,-1.896142 -1.34383,-3.525885 -1.85828,-3.525885 -0.40495,0 -0.28202,1.733978 0.32504,4.588867 0.45677,2.148091 0.57621,3.642916 0.59531,7.449676 0.0297,5.93729 -0.19557,7.80521 -0.94206,7.80521 -0.29213,0 -1.325273,0.32742 -2.295984,0.7276 -1.501079,0.61884 -2.141008,0.72761 -4.27881,0.72761 -2.184868,0 -2.755723,-0.1017 -4.365625,-0.77773 -1.615048,-0.67816 -2.173764,-0.77757 -4.365625,-0.77257 -2.206577,0.005 -2.764628,0.10769 -4.57078,0.84388 -1.53153,0.62426 -2.468761,0.83871 -3.666442,0.83871 -1.427859,0 -1.587857,-0.0521 -1.420069,-0.46302 0.103992,-0.25466 0.250229,-3.20146 0.32453,-6.54844 0.157599,-7.096621 -0.269047,-11.781339 -1.526006,-16.7535 -0.42967,-1.69967 -0.781605,-3.119996 -0.781865,-3.156397 -3.89e-4,-0.0364 0.445455,-0.07995 0.991153,-0.09715 1.44821,-0.04569 2.673874,-0.374584 2.182813,-0.585496 -0.218289,-0.09375 -2.242347,-0.637424 -4.497917,-1.208194 -2.255578,-0.570759 -5.053536,-1.414531 -6.217708,-1.874821 -6.876849,-2.719009 -12.60425,-7.777015 -15.63212,-13.805877 -1.464779,-2.916539 -2.187731,-5.826654 -2.405021,-9.680545 -0.166121,-2.94626 -0.161488,-2.976563 0.418063,-2.976563 z m -26.986983,1.061434 c 5.038889,0.0062 8.198159,1.559537 9.857279,4.846217 1.157621,2.29325 1.289204,5.183434 0.347782,7.636743 -0.13175,0.343321 0.320849,0.770517 1.961639,1.851567 1.173049,0.772869 2.135886,1.49438 2.138886,1.603518 0.0033,0.10913 -0.513204,0.198438 -1.147733,0.198438 -0.634529,0 -1.696093,0.07457 -2.358512,0.165364 -1.172911,0.160761 -1.212146,0.197083 -1.511535,1.389063 -0.744331,2.96351 -6.063917,6.070147 -11.814268,6.899838 -3.100419,0.447339 -3.549417,0.469937 -4.965586,0.248047 C 10.844834,78.200357 7.4240466,75.391977 6.0226069,71.977328 5.0052363,69.498457 4.8187633,65.899118 5.5823217,63.482237 7.2687018,58.144419 14.447493,53.886744 21.746194,53.895742 Z m 5.712311,7.272941 c -0.492299,0 -0.534312,0.201544 -0.604612,2.893364 -0.04163,1.591379 -0.01239,3.058774 0.06511,3.260784 0.07752,0.201959 0.350023,0.327117 0.605131,0.278018 0.411321,-0.0792 0.463537,-0.448701 0.463537,-3.260783 3e-6,-2.99499 -0.02943,-3.171383 -0.529167,-3.171383 z m -15.926675,0.1695 c -0.247579,0.0061 -0.502886,0.0329 -0.762744,0.08165 l -0.9053721,0.170016 v 3.647839 c 0,2.006439 0.089299,3.739378 0.1984371,3.850929 0.257821,0.263509 2.865972,-0.03971 3.599781,-0.418579 1.579081,-0.8153 1.931458,-1.903968 0.937929,-2.8975 -0.40409,-0.40409 -0.476255,-0.634799 -0.264583,-0.846457 0.160068,-0.160081 0.290936,-0.735023 0.290936,-1.277443 2e-6,-1.392343 -1.361337,-2.353284 -3.094384,-2.310453 z m 0.01499,1.308963 c 0.116242,-0.0075 0.27002,0.0061 0.473358,0.02636 1.014058,0.100912 1.545299,0.797187 1.122929,1.471745 -0.159452,0.254672 -0.664671,0.50062 -1.122929,0.546221 -0.813321,0.08093 -0.833543,0.0566 -0.833543,-1.009242 0,-0.799386 0.01146,-1.012497 0.360185,-1.035079 z m 6.894671,1.117761 c -2.289762,-0.08846 -3.730289,2.953541 -1.983343,4.70049 0.81425,0.81425 1.406504,0.937024 2.503723,0.519864 1.959041,-0.744821 1.919166,-4.726504 -0.05168,-5.159375 -0.159504,-0.03503 -0.316055,-0.05508 -0.468704,-0.06098 z m 5.55625,0 c -2.289762,-0.08846 -3.730289,2.953541 -1.983343,4.70049 0.81425,0.81425 1.406504,0.937024 2.503723,0.519864 1.959041,-0.744821 1.919165,-4.726504 -0.05168,-5.159375 -0.159504,-0.03503 -0.316055,-0.05508 -0.468704,-0.06098 z m -5.693193,1.270725 c 0.06717,-0.0029 0.135485,0.0019 0.204639,0.01499 0.583139,0.110591 0.824249,1.89761 0.335378,2.486671 -0.382939,0.461388 -1.090435,0.489836 -1.519285,0.06097 -0.770578,-0.770577 -0.02826,-2.519854 0.979268,-2.562631 z m 5.55625,0 c 0.06717,-0.0029 0.135485,0.0019 0.204639,0.01499 0.583139,0.110591 0.824249,1.89761 0.335378,2.486671 -0.382939,0.461388 -1.090425,0.489836 -1.519285,0.06097 -0.770578,-0.770577 -0.02826,-2.519854 0.979268,-2.562631 z m -11.862842,1.027843 c 1.77587,0 2.452888,1.055703 1.00149,1.561663 -1.479262,0.51567 -1.812811,0.39874 -1.812811,-0.635622 2e-6,-0.856948 0.06069,-0.926041 0.811321,-0.926041 z m 15.282788,1.944584 c -0.09465,-3.57e-4 -0.182359,0.02991 -0.252183,0.09974 -0.165877,0.165878 -0.230126,0.488175 -0.142626,0.716235 0.18311,0.47719 0.853681,0.551829 1.117762,0.12454 0.227176,-0.367583 -0.312804,-0.938956 -0.722953,-0.940512 z m 44.676342,15.346352 c 0.262181,0.262178 1.181614,4.02758 1.689301,6.918438 0.644703,3.671451 0.953186,11.269641 0.652674,16.079121 -0.220429,3.52796 -0.05881,3.37621 -2.655136,2.49959 -0.873127,-0.2948 -1.717762,-0.5669 -1.877403,-0.6041 -0.19544,-0.0456 -0.09082,-0.95623 0.32091,-2.78794 1.307002,-5.8147 2.107364,-13.875126 1.893424,-19.069637 -0.0712,-1.72783 -0.08197,-3.093673 -0.02377,-3.035472 z M 55.687274,110.24993 c -0.306562,0.003 -0.608809,0.11253 -0.816488,0.36276 -0.37728,0.45459 -0.125487,1.16314 0.457853,1.28881 0.680752,0.14667 1.314172,-0.0753 1.48518,-0.52089 0.243597,-0.63481 -0.452109,-1.13833 -1.126545,-1.13068 z m -3.869531,0.0207 c -0.375762,0.0113 -0.726512,0.1144 -0.904338,0.32867 -0.384379,0.46315 -0.147146,1.16674 0.446484,1.32395 0.78463,0.20781 0.992823,0.18396 1.476912,-0.17002 0.261922,-0.19152 0.432705,-0.57847 0.379307,-0.85989 -0.07682,-0.40477 -0.772097,-0.64148 -1.398365,-0.62271 z m 80.507747,0.01 c -0.9566,-0.0169 -1.30281,0.70431 -0.60203,1.40509 0.50582,0.50586 0.67083,0.51413 1.28209,0.0672 0.7095,-0.5188 0.43393,-1.35406 -0.48111,-1.45883 -0.0691,-0.008 -0.13518,-0.0123 -0.19895,-0.0134 z m -4.15323,5.2e-4 c -0.45679,0.0153 -0.59105,0.15101 -0.71107,0.52917 -0.13262,0.41785 -0.0478,0.69119 0.29248,0.93999 0.93398,0.68294 2.37646,0.1185 2.19109,-0.85731 -0.0743,-0.3913 -0.35571,-0.5303 -1.19683,-0.59169 -0.23528,-0.0172 -0.42341,-0.0253 -0.57567,-0.0202 z m -79.943963,0.10077 c -0.697968,0 -0.942607,0.1229 -1.017508,0.5116 -0.05419,0.28142 0.115834,0.66837 0.377756,0.85989 0.261919,0.19152 0.549854,0.3483 0.639752,0.3483 0.463081,0 1.103709,-0.76063 1.01751,-1.20819 -0.07486,-0.3887 -0.319539,-0.5116 -1.01751,-0.5116 z m 76.729163,0 c -0.69797,0 -0.94209,0.1229 -1.01699,0.5116 -0.0542,0.28142 0.11532,0.66837 0.37724,0.85989 0.26192,0.19152 0.54985,0.3483 0.63975,0.3483 0.46308,0 1.10371,-0.76063 1.01751,-1.20819 -0.0749,-0.3887 -0.31954,-0.5116 -1.01751,-0.5116 z"
       id="path21"
       inkscape:connector-curvature="0" />
  </g>
</svg>
