<?xml version="1.0" encoding="UTF-8" standalone="no"?>
<!-- Created with Inkscape (http://www.inkscape.org/) -->

<svg
   xmlns:dc="http://purl.org/dc/elements/1.1/"
   xmlns:cc="http://creativecommons.org/ns#"
   xmlns:rdf="http://www.w3.org/1999/02/22-rdf-syntax-ns#"
   xmlns:svg="http://www.w3.org/2000/svg"
   xmlns="http://www.w3.org/2000/svg"
   xmlns:sodipodi="http://sodipodi.sourceforge.net/DTD/sodipodi-0.dtd"
   xmlns:inkscape="http://www.inkscape.org/namespaces/inkscape"
   width="722mm"
   height="326mm"
   viewBox="0 0 722 326"
   version="1.1"
   id="svg8"
   inkscape:version="0.92.1 r"
   sodipodi:docname="ue.svg">
  <defs
     id="defs2" />
  <sodipodi:namedview
     id="base"
     pagecolor="#ffffff"
     bordercolor="#666666"
     borderopacity="1.0"
     inkscape:pageopacity="0.0"
     inkscape:pageshadow="2"
     inkscape:zoom="0.24748737"
     inkscape:cx="1326.892"
     inkscape:cy="747.62725"
     inkscape:document-units="mm"
     inkscape:current-layer="layer1"
     showgrid="false"
     inkscape:window-width="1366"
     inkscape:window-height="695"
     inkscape:window-x="0"
     inkscape:window-y="0"
     inkscape:window-maximized="1" />
  <metadata
     id="metadata5">
    <rdf:RDF>
      <cc:Work
         rdf:about="">
        <dc:format>image/svg+xml</dc:format>
        <dc:type
           rdf:resource="http://purl.org/dc/dcmitype/StillImage" />
        <dc:title></dc:title>
      </cc:Work>
    </rdf:RDF>
  </metadata>
  <g
     inkscape:label="Layer 1"
     inkscape:groupmode="layer"
     id="layer1"
     transform="translate(0,29)">
    <g
       aria-label="Nenhum resultado
encontrado"
       style="font-style:normal;font-weight:normal;font-size:38.95407867px;line-height:1.25;font-family:sans-serif;text-align:center;letter-spacing:0px;word-spacing:0px;text-anchor:middle;fill:#ffffff;fill-opacity:1;stroke:none;stroke-width:0.97385192"
       id="text4500">
      <path
         d="m 67.951976,107.30628 q 0.389541,-0.70118 1.129668,-0.9349 0.740128,-0.23373 1.830842,-0.23373 1.129668,0 1.791888,0.19477 0.701173,0.19477 1.012806,0.46745 0.350586,0.27268 0.506403,0.81804 0.233724,0.62326 0.233724,1.98666 v 21.61951 q 0,0.9349 -0.07791,1.36339 -0.03895,0.4285 -0.350587,1.01281 -0.545357,1.05176 -3.038418,1.05176 -1.519209,0 -2.10352,-0.23373 -0.584311,-0.23372 -0.973852,-0.74012 -8.764668,-11.68623 -11.530407,-15.27 v 12.81589 q 0,0.9349 -0.07791,1.36339 -0.03895,0.4285 -0.350586,1.01281 -0.545357,1.05176 -3.038418,1.05176 -2.415153,0 -2.96051,-1.05176 -0.311633,-0.58431 -0.389541,-1.05176 -0.03895,-0.46745 -0.03895,-1.36339 v -21.73638 q 0,-1.48026 0.350586,-2.14247 0.389541,-0.70118 1.129669,-0.9349 0.740127,-0.23373 1.90875,-0.23373 1.168622,0 1.830841,0.23373 0.701174,0.19477 0.973852,0.46745 0.155817,0.11686 0.895944,1.0128 8.219311,11.17982 10.98505,14.7636 v -13.16648 q 0,-1.48026 0.350587,-2.14247 z"
         style="font-style:normal;font-variant:normal;font-weight:normal;font-stretch:normal;font-family:'Fredoka One';-inkscape-font-specification:'Fredoka One';text-align:center;text-anchor:middle;fill:#000000;fill-opacity:1;stroke-width:0.97385192"
         id="path5101" />
      <path
         d="m 97.389694,121.95301 q 0,2.3762 -1.207576,3.54482 -1.168623,1.12967 -2.609923,1.12967 h -9.232117 q 0,1.09071 1.285484,1.83084 1.285485,0.74013 2.57097,0.74013 2.259336,0 3.544821,-0.46745 l 0.428495,-0.15582 q 0.934898,-0.42849 1.558163,-0.42849 1.24653,0 2.142474,1.75293 0.506403,1.05176 0.506403,1.79189 0,3.46691 -8.297219,3.46691 -2.882601,0 -5.141938,-0.97385 -2.220382,-1.01281 -3.466913,-2.64888 -2.454107,-3.15528 -2.454107,-7.05069 0,-4.90821 3.15528,-7.82977 3.194235,-2.96051 7.946633,-2.96051 5.414616,0 7.946632,3.8175 1.324438,2.02562 1.324438,4.44077 z m -8.21931,1.12967 q 1.480255,0 1.480255,-1.24653 0,-0.89595 -0.701174,-1.4413 -0.662219,-0.54536 -1.947704,-0.54536 -1.24653,0 -2.493061,1.05176 -1.24653,1.0128 -1.24653,2.18143 z"
         style="font-style:normal;font-variant:normal;font-weight:normal;font-stretch:normal;font-family:'Fredoka One';-inkscape-font-specification:'Fredoka One';text-align:center;text-anchor:middle;fill:#000000;fill-opacity:1;stroke-width:0.97385192"
         id="path5103" />
      <path
         d="m 111.30665,114.12324 q 3.89541,0 6.46637,2.99946 2.60993,2.96051 2.60993,7.24546 v 6.85592 q 0,0.89594 -0.0779,1.36339 -0.0389,0.4285 -0.31163,0.97385 -0.54536,1.05176 -3.03842,1.05176 -2.76574,0 -3.19424,-1.4413 -0.23372,-0.66222 -0.23372,-1.98665 v -6.85592 q 0,-1.59712 -0.9349,-2.49306 -0.89594,-0.89595 -2.45411,-0.89595 -1.5192,0 -2.49306,0.9349 -0.93489,0.9349 -0.93489,2.45411 v 6.89487 q 0,0.89594 -0.0779,1.36339 -0.039,0.4285 -0.35059,0.97385 -0.5064,1.05176 -2.99946,1.05176 -2.45411,0 -2.99947,-1.05176 -0.27268,-0.58431 -0.350584,-1.0128 -0.03895,-0.46745 -0.03895,-1.36339 v -13.78975 q 0,-0.85699 0.03895,-1.28548 0.0779,-0.46745 0.389544,-1.01281 0.54535,-0.97385 2.99946,-0.97385 2.3762,0 2.92156,0.89594 0.38954,0.66222 0.38954,1.59712 0.15581,-0.27268 0.70117,-0.77908 0.54536,-0.5064 1.05176,-0.81804 1.32444,-0.89594 2.92156,-0.89594 z"
         style="font-style:normal;font-variant:normal;font-weight:normal;font-stretch:normal;font-family:'Fredoka One';-inkscape-font-specification:'Fredoka One';text-align:center;text-anchor:middle;fill:#000000;fill-opacity:1;stroke-width:0.97385192"
         id="path5105" />
      <path
         d="m 134.85317,114.20115 q 3.89541,0 6.46638,2.96051 2.60992,2.96051 2.60992,7.24546 v 6.85591 q 0,0.89595 -0.0779,1.3634 -0.0389,0.42849 -0.35059,1.0128 -0.5064,1.01281 -2.99946,1.01281 -2.3762,0 -2.96051,-1.01281 -0.31163,-0.58431 -0.38954,-1.05176 -0.0389,-0.46745 -0.0389,-1.40234 v -6.81697 q 0,-1.59712 -0.89595,-2.49306 -0.89594,-0.89594 -2.29829,-0.89594 -1.36339,0 -2.41515,0.85699 -1.05176,0.81803 -1.20758,1.86979 v 7.55709 q 0,0.89595 -0.0779,1.3634 -0.0389,0.42849 -0.35058,1.0128 -0.50641,1.01281 -2.99947,1.01281 -2.4541,0 -2.99946,-1.05176 -0.27268,-0.58431 -0.35059,-1.01281 -0.0389,-0.42849 -0.0389,-1.36339 v -23.29454 q 0,-0.89594 0.0389,-1.32444 0.0779,-0.46745 0.35059,-1.0128 0.54536,-1.05176 3.03842,-1.05176 2.4541,0 2.96051,1.05176 0.31163,0.58431 0.35058,1.05176 0.0779,0.42849 0.0779,1.32443 v 8.60886 q 1.94771,-2.3762 4.55763,-2.3762 z"
         style="font-style:normal;font-variant:normal;font-weight:normal;font-stretch:normal;font-family:'Fredoka One';-inkscape-font-specification:'Fredoka One';text-align:center;text-anchor:middle;fill:#000000;fill-opacity:1;stroke-width:0.97385192"
         id="path5107" />
      <path
         d="m 156.17931,134.57413 q -3.93436,0 -6.54428,-2.96051 -2.57097,-2.99946 -2.57097,-7.28441 v -6.81697 q 0,-0.93489 0.0389,-1.36339 0.0779,-0.42849 0.35059,-1.0128 0.54536,-1.05176 3.03842,-1.05176 2.72678,0 3.19423,1.48025 0.23373,0.62327 0.23373,1.98666 v 6.81696 q 0,1.59712 0.89594,2.49306 0.9349,0.89595 2.45411,0.89595 1.55816,0 2.49306,-0.9349 0.97385,-0.9349 0.97385,-2.45411 v -6.89487 q 0,-0.89594 0.0389,-1.32444 0.0779,-0.46745 0.38954,-1.05176 0.50641,-1.0128 2.99947,-1.0128 2.45411,0 2.99946,1.05176 0.27268,0.58431 0.31164,1.05176 0.0779,0.42849 0.0779,1.32443 v 13.78975 q 0,0.85699 -0.0779,1.32444 -0.039,0.42849 -0.35059,0.97385 -0.58431,1.0128 -2.99947,1.0128 -2.37619,0 -2.92155,-0.93489 -0.38954,-0.66222 -0.38954,-1.59712 -0.15582,0.27268 -0.70118,0.77908 -0.54535,0.5064 -1.05176,0.85699 -1.32443,0.85699 -2.8826,0.85699 z"
         style="font-style:normal;font-variant:normal;font-weight:normal;font-stretch:normal;font-family:'Fredoka One';-inkscape-font-specification:'Fredoka One';text-align:center;text-anchor:middle;fill:#000000;fill-opacity:1;stroke-width:0.97385192"
         id="path5109" />
      <path
         d="m 177.34964,116.85002 q 1.83084,-2.76573 4.40181,-2.76573 3.97332,0 5.92102,3.389 0.42849,-0.58431 1.01281,-1.20758 0.62326,-0.66222 1.9477,-1.40234 1.32444,-0.77908 2.72679,-0.77908 3.11632,0 5.21984,2.41515 2.10352,2.3762 2.10352,7.90768 v 6.81696 q 0,0.89594 -0.0779,1.36339 -0.0389,0.4285 -0.35058,1.01281 -0.50641,1.05176 -2.99947,1.05176 -2.4541,0 -2.99946,-1.09072 -0.27268,-0.58431 -0.35059,-1.0128 -0.0389,-0.46745 -0.0389,-1.36339 v -6.81697 q 0,-3.389 -2.41515,-3.389 -1.3634,0 -1.8698,0.89594 -0.46745,0.89594 -0.46745,2.53202 v 6.81696 q 0,0.9349 -0.0779,1.36339 -0.0389,0.4285 -0.35058,1.01281 -0.54536,1.05176 -3.03842,1.05176 -2.45411,0 -2.99947,-1.09072 -0.27267,-0.58431 -0.35058,-1.0128 -0.039,-0.46745 -0.039,-1.36339 v -6.81697 q 0,-3.389 -2.41515,-3.389 -2.33724,0 -2.33724,3.389 v 6.89487 q 0,0.89595 -0.0779,1.3634 -0.039,0.42849 -0.35059,1.0128 -0.58431,1.01281 -3.03842,1.01281 -2.4541,0 -2.99946,-1.05176 -0.27268,-0.58431 -0.35059,-1.01281 -0.0389,-0.42849 -0.0389,-1.36339 v -13.71184 q 0,-0.89594 0.0389,-1.32443 0.0779,-0.46745 0.38954,-1.01281 0.58431,-1.05176 2.76574,-1.05176 2.18143,0 2.84365,0.70117 0.66222,0.70118 0.66222,2.02561 z"
         style="font-style:normal;font-variant:normal;font-weight:normal;font-stretch:normal;font-family:'Fredoka One';-inkscape-font-specification:'Fredoka One';text-align:center;text-anchor:middle;fill:#000000;fill-opacity:1;stroke-width:0.97385192"
         id="path5111" />
      <path
         d="m 227.65762,114.35696 q 0.74013,0.23373 1.20758,0.81804 0.5064,0.54536 0.5064,1.79189 0,1.24653 -0.74013,2.72678 -0.74012,1.48026 -2.14247,1.48026 -0.70118,0 -1.36339,-0.31164 -0.62327,-0.31163 -1.67503,-0.31163 -1.05176,0 -1.98666,0.74013 -0.89594,0.74013 -0.89594,1.79189 v 8.18035 q 0,0.89595 -0.0779,1.3634 -0.0389,0.42849 -0.35059,1.0128 -0.58431,1.01281 -3.03841,1.01281 -1.8698,0 -2.68784,-0.66222 -0.62326,-0.54536 -0.70117,-1.67503 0,-0.38954 0,-1.12966 v -13.67289 q 0,-0.89594 0.0389,-1.32443 0.0779,-0.46745 0.35059,-1.01281 0.54536,-1.05176 3.03842,-1.05176 2.33724,0 2.92156,0.89594 0.42849,0.62327 0.42849,1.28549 0.19477,-0.27268 0.54536,-0.66222 0.38954,-0.38954 1.59711,-1.05176 1.20758,-0.66222 2.10352,-0.66222 0.9349,0 1.55817,0.11686 0.62326,0.0779 1.36339,0.31163 z"
         style="font-style:normal;font-variant:normal;font-weight:normal;font-stretch:normal;font-family:'Fredoka One';-inkscape-font-specification:'Fredoka One';text-align:center;text-anchor:middle;fill:#000000;fill-opacity:1;stroke-width:0.97385192"
         id="path5113" />
      <path
         d="m 250.16272,121.95301 q 0,2.3762 -1.20758,3.54482 -1.16862,1.12967 -2.60992,1.12967 h -9.23212 q 0,1.09071 1.28549,1.83084 1.28548,0.74013 2.57097,0.74013 2.25933,0 3.54482,-0.46745 l 0.42849,-0.15582 q 0.9349,-0.42849 1.55817,-0.42849 1.24653,0 2.14247,1.75293 0.5064,1.05176 0.5064,1.79189 0,3.46691 -8.29722,3.46691 -2.8826,0 -5.14193,-0.97385 -2.22039,-1.01281 -3.46692,-2.64888 -2.4541,-3.15528 -2.4541,-7.05069 0,-4.90821 3.15528,-7.82977 3.19423,-2.96051 7.94663,-2.96051 5.41462,0 7.94663,3.8175 1.32444,2.02562 1.32444,4.44077 z m -8.21931,1.12967 q 1.48025,0 1.48025,-1.24653 0,-0.89595 -0.70117,-1.4413 -0.66222,-0.54536 -1.9477,-0.54536 -1.24653,0 -2.49306,1.05176 -1.24653,1.0128 -1.24653,2.18143 z"
         style="font-style:normal;font-variant:normal;font-weight:normal;font-stretch:normal;font-family:'Fredoka One';-inkscape-font-specification:'Fredoka One';text-align:center;text-anchor:middle;fill:#000000;fill-opacity:1;stroke-width:0.97385192"
         id="path5115" />
      <path
         d="m 252.82195,132.8212 q -0.74013,-0.46745 -0.74013,-1.48026 0,-1.0128 1.48026,-3.07737 0.42849,-0.66222 1.36339,-0.66222 0.97385,0 2.60992,0.97385 1.63607,0.9349 2.96051,0.9349 2.3762,0 2.3762,-0.9349 0,-0.74013 -2.60992,-1.09071 -2.45411,-0.35059 -4.86926,-1.83084 -1.12967,-0.70118 -1.8698,-2.18143 -0.74013,-1.51921 -0.74013,-3.58378 0,-6.15474 8.45304,-6.15474 2.76574,0 5.68729,1.32444 1.3634,0.62326 1.3634,1.55816 0,0.9349 -0.85699,2.29829 -0.85699,1.36339 -1.75294,1.36339 -0.46745,0 -1.75293,-0.58431 -1.24653,-0.58431 -2.72679,-0.58431 -2.29829,0 -2.29829,0.85699 0,1.16862 2.64888,1.51921 2.57097,0.27268 4.98612,1.48025 1.12967,0.54536 1.8698,1.90875 0.77908,1.32444 0.77908,3.35006 0,2.02561 -0.77908,3.46691 -0.74013,1.40235 -2.10352,2.10352 -2.49306,1.20758 -6.27161,1.20758 -3.73959,0 -7.2065,-2.18143 z"
         style="font-style:normal;font-variant:normal;font-weight:normal;font-stretch:normal;font-family:'Fredoka One';-inkscape-font-specification:'Fredoka One';text-align:center;text-anchor:middle;fill:#000000;fill-opacity:1;stroke-width:0.97385192"
         id="path5117" />
      <path
         d="m 280.80192,134.57413 q -3.93436,0 -6.54428,-2.96051 -2.57097,-2.99946 -2.57097,-7.28441 v -6.81697 q 0,-0.93489 0.0389,-1.36339 0.0779,-0.42849 0.35059,-1.0128 0.54536,-1.05176 3.03842,-1.05176 2.72678,0 3.19423,1.48025 0.23373,0.62327 0.23373,1.98666 v 6.81696 q 0,1.59712 0.89594,2.49306 0.9349,0.89595 2.45411,0.89595 1.55816,0 2.49306,-0.9349 0.97385,-0.9349 0.97385,-2.45411 v -6.89487 q 0,-0.89594 0.039,-1.32444 0.0779,-0.46745 0.38954,-1.05176 0.5064,-1.0128 2.99946,-1.0128 2.45411,0 2.99946,1.05176 0.27268,0.58431 0.31164,1.05176 0.0779,0.42849 0.0779,1.32443 v 13.78975 q 0,0.85699 -0.0779,1.32444 -0.039,0.42849 -0.35059,0.97385 -0.58431,1.0128 -2.99946,1.0128 -2.3762,0 -2.92156,-0.93489 -0.38954,-0.66222 -0.38954,-1.59712 -0.15582,0.27268 -0.70117,0.77908 -0.54536,0.5064 -1.05176,0.85699 -1.32444,0.85699 -2.88261,0.85699 z"
         style="font-style:normal;font-variant:normal;font-weight:normal;font-stretch:normal;font-family:'Fredoka One';-inkscape-font-specification:'Fredoka One';text-align:center;text-anchor:middle;fill:#000000;fill-opacity:1;stroke-width:0.97385192"
         id="path5119" />
      <path
         d="m 295.27215,107.89059 q 0,-0.89595 0.0389,-1.32444 0.0779,-0.46745 0.35059,-1.05176 0.54536,-1.05176 3.03842,-1.05176 2.3762,0 2.96051,1.05176 0.31163,0.58431 0.35059,1.05176 0.0779,0.46745 0.0779,1.36339 v 18.03574 q 0,1.40235 0.23373,1.79189 0.23372,0.35058 1.0128,0.35058 0.81804,0 1.09072,0.0779 0.27268,0.039 0.66222,0.31163 0.77908,0.50641 0.77908,2.76574 0,2.45411 -0.77908,2.99947 -1.01281,0.70117 -4.83031,0.23372 -2.99946,-0.38954 -3.89541,-1.98666 -1.09071,-1.90875 -1.09071,-6.07683 z"
         style="font-style:normal;font-variant:normal;font-weight:normal;font-stretch:normal;font-family:'Fredoka One';-inkscape-font-specification:'Fredoka One';text-align:center;text-anchor:middle;fill:#000000;fill-opacity:1;stroke-width:0.97385192"
         id="path5121" />
      <path
         d="m 318.37618,121.01811 -2.53202,-0.15582 v 5.37567 q 0,1.05176 0.31164,1.51921 0.35058,0.46745 1.24653,0.46745 0.9349,0 1.40234,0.0779 0.50641,0.039 1.05176,0.35059 0.89595,0.5064 0.89595,2.60992 0,2.45411 -1.09072,2.99947 -0.58431,0.27268 -1.05176,0.35058 -0.42849,0.039 -1.28548,0.039 -4.05122,0 -6.15474,-1.83084 -2.10353,-1.83084 -2.10353,-6.1937 v -5.76521 q -0.74012,0.11687 -1.59711,0.11687 -0.85699,0 -1.4413,-0.66222 -0.54536,-0.66222 -0.54536,-2.25934 0,-1.59712 0.19477,-2.29829 0.19477,-0.74013 0.54536,-1.05176 0.62326,-0.5064 1.55816,-0.5064 l 1.28548,0.15581 v -4.01227 q 0,-0.89594 0.039,-1.32444 0.0779,-0.42849 0.38954,-0.93489 0.5064,-0.97386 2.99946,-0.97386 2.64888,0 3.15528,1.44131 0.19477,0.62326 0.19477,1.98665 v 3.8175 q 1.71398,-0.15581 2.57097,-0.15581 0.89595,0 1.32444,0.0779 0.46745,0.0389 1.05176,0.35058 1.01281,0.50641 1.01281,2.99947 0,2.4541 -1.05176,2.99946 -0.58431,0.27268 -1.05176,0.35059 -0.4285,0.0389 -1.32444,0.0389 z"
         style="font-style:normal;font-variant:normal;font-weight:normal;font-stretch:normal;font-family:'Fredoka One';-inkscape-font-specification:'Fredoka One';text-align:center;text-anchor:middle;fill:#000000;fill-opacity:1;stroke-width:0.97385192"
         id="path5123" />
      <path
         d="m 337.27743,116.30467 q 0.23372,-2.18143 3.07737,-2.18143 1.51921,0 2.25934,0.23372 0.74012,0.23373 1.0128,0.81804 0.31164,0.58431 0.35059,1.05176 0.0779,0.42849 0.0779,1.32444 v 13.63393 q 0,0.89594 -0.0779,1.36339 -0.0389,0.42849 -0.31163,1.0128 -0.54536,1.01281 -2.68783,1.01281 -2.10352,0 -2.84365,-0.5064 -0.70118,-0.54536 -0.81804,-1.55817 -1.4413,2.06457 -4.8303,2.06457 -3.35005,0 -6.23266,-3.07737 -2.8826,-3.07737 -2.8826,-7.1286 0,-4.09018 2.8826,-7.12859 2.92156,-3.07738 6.38847,-3.07738 1.32444,0 2.41516,0.46745 1.09071,0.46745 1.5192,0.89595 0.4285,0.38954 0.70118,0.77908 z m -7.08964,8.10245 q 0,1.28548 1.0128,2.33724 1.01281,1.01281 2.45411,1.01281 1.4413,0 2.3762,-1.05176 0.97385,-1.05176 0.97385,-2.29829 0,-1.28549 -0.9349,-2.3762 -0.89594,-1.09072 -2.45411,-1.09072 -1.5192,0 -2.49306,1.09072 -0.93489,1.09071 -0.93489,2.3762 z"
         style="font-style:normal;font-variant:normal;font-weight:normal;font-stretch:normal;font-family:'Fredoka One';-inkscape-font-specification:'Fredoka One';text-align:center;text-anchor:middle;fill:#000000;fill-opacity:1;stroke-width:0.97385192"
         id="path5125" />
      <path
         d="m 360.911,105.5923 q 0.31163,-0.58432 1.05176,-0.81804 0.74013,-0.23372 1.9477,-0.23372 1.24654,0 1.98666,0.23372 0.74013,0.23372 1.01281,0.81804 0.31163,0.58431 0.35059,1.05176 0.0779,0.42849 0.0779,1.32443 v 23.25559 q 0,0.89594 -0.0779,1.36339 -0.039,0.4285 -0.35059,0.97385 -0.58431,1.05176 -3.3111,1.05176 -2.68783,0 -2.99946,-1.90875 -1.63607,1.8698 -4.55763,1.8698 -3.50587,0 -6.38847,-3.03842 -2.8826,-3.07737 -2.8826,-7.12859 0,-4.09018 2.8826,-7.16755 2.92156,-3.07738 6.38847,-3.07738 2.8826,0 4.47972,1.94771 v -8.18036 q 0,-0.89594 0.0389,-1.32444 0.0779,-0.46745 0.35059,-1.0128 z m -6.31056,21.15206 q 1.01281,1.05176 2.45411,1.05176 1.4413,0 2.3762,-1.05176 0.97385,-1.05176 0.97385,-2.29829 0,-1.28548 -0.9349,-2.3762 -0.89594,-1.09071 -2.45411,-1.09071 -1.55816,0 -2.49306,1.09071 -0.9349,1.05176 -0.9349,2.33725 0,1.28548 1.01281,2.33724 z"
         style="font-style:normal;font-variant:normal;font-weight:normal;font-stretch:normal;font-family:'Fredoka One';-inkscape-font-specification:'Fredoka One';text-align:center;text-anchor:middle;fill:#000000;fill-opacity:1;stroke-width:0.97385192"
         id="path5127" />
      <path
         d="m 369.85706,124.40712 q 0,-4.67449 3.27214,-7.71291 3.27214,-3.03842 7.47918,-3.03842 4.20704,0 7.44023,3.03842 3.23319,2.99946 3.23319,7.67395 0,3.23319 -1.67502,5.76521 -1.67503,2.49306 -4.09018,3.70063 -2.3762,1.16863 -4.94717,1.16863 -2.57097,0 -4.98612,-1.24654 -2.41515,-1.28548 -4.09018,-3.73959 -1.63607,-2.49306 -1.63607,-5.60938 z m 8.1414,2.80469 q 1.24653,0.9349 2.53202,0.9349 1.28548,0 2.57097,-0.97385 1.28548,-0.97386 1.28548,-2.88261 0,-1.90875 -1.20758,-2.84364 -1.20757,-0.9349 -2.60992,-0.9349 -1.40235,0 -2.60992,0.97385 -1.20758,0.97385 -1.20758,2.8826 0,1.8698 1.24653,2.84365 z"
         style="font-style:normal;font-variant:normal;font-weight:normal;font-stretch:normal;font-family:'Fredoka One';-inkscape-font-specification:'Fredoka One';text-align:center;text-anchor:middle;fill:#000000;fill-opacity:1;stroke-width:0.97385192"
         id="path5129" />
      <path
         d="m 133.14832,172.40606 q 0,2.3762 -1.20757,3.54482 -1.16863,1.12967 -2.60993,1.12967 h -9.23211 q 0,1.09071 1.28548,1.83084 1.28548,0.74013 2.57097,0.74013 2.25934,0 3.54482,-0.46745 l 0.4285,-0.15582 q 0.93489,-0.42849 1.55816,-0.42849 1.24653,0 2.14247,1.75293 0.50641,1.05176 0.50641,1.79189 0,3.46691 -8.29722,3.46691 -2.8826,0 -5.14194,-0.97385 -2.22038,-1.0128 -3.46691,-2.64888 -2.45411,-3.15528 -2.45411,-7.05068 0,-4.90822 3.15528,-7.82977 3.19423,-2.96051 7.94663,-2.96051 5.41462,0 7.94663,3.8175 1.32444,2.02561 1.32444,4.44076 z m -8.21931,1.12967 q 1.48026,0 1.48026,-1.24653 0,-0.89595 -0.70118,-1.4413 -0.66222,-0.54536 -1.9477,-0.54536 -1.24653,0 -2.49306,1.05176 -1.24653,1.01281 -1.24653,2.18143 z"
         style="font-style:normal;font-variant:normal;font-weight:normal;font-stretch:normal;font-family:'Fredoka One';-inkscape-font-specification:'Fredoka One';text-align:center;text-anchor:middle;fill:#000000;fill-opacity:1;stroke-width:0.97385192"
         id="path5131" />
      <path
         d="m 147.06527,164.57629 q 3.89541,0 6.46638,2.99947 2.60993,2.96051 2.60993,7.24545 v 6.85592 q 0,0.89595 -0.0779,1.36339 -0.039,0.4285 -0.31164,0.97386 -0.54535,1.05176 -3.03841,1.05176 -2.76574,0 -3.19424,-1.4413 -0.23372,-0.66222 -0.23372,-1.98666 v -6.85592 q 0,-1.59712 -0.9349,-2.49306 -0.89594,-0.89595 -2.45411,-0.89595 -1.51921,0 -2.49306,0.9349 -0.9349,0.9349 -0.9349,2.45411 v 6.89487 q 0,0.89595 -0.0779,1.36339 -0.039,0.4285 -0.35059,0.97386 -0.5064,1.05176 -2.99947,1.05176 -2.4541,0 -2.99946,-1.05176 -0.27268,-0.58431 -0.35059,-1.01281 -0.0389,-0.46745 -0.0389,-1.36339 v -13.78975 q 0,-0.85699 0.0389,-1.28548 0.0779,-0.46745 0.38954,-1.01281 0.54536,-0.97385 2.99947,-0.97385 2.3762,0 2.92155,0.89594 0.38955,0.66222 0.38955,1.59712 0.15581,-0.27268 0.70117,-0.77908 0.54536,-0.5064 1.05176,-0.81804 1.32444,-0.89594 2.92155,-0.89594 z"
         style="font-style:normal;font-variant:normal;font-weight:normal;font-stretch:normal;font-family:'Fredoka One';-inkscape-font-specification:'Fredoka One';text-align:center;text-anchor:middle;fill:#000000;fill-opacity:1;stroke-width:0.97385192"
         id="path5133" />
      <path
         d="m 165.66463,174.86017 q 0,1.63607 1.09071,2.57097 1.09072,0.89594 2.29829,0.89594 1.24653,0 2.29829,-0.70117 1.09072,-0.74013 1.75294,-0.74013 1.16862,0 2.84365,2.06457 0.89594,1.12966 0.89594,2.02561 0,1.48025 -2.14248,2.76574 -2.22038,1.55816 -5.45357,1.55816 -3.62273,0 -6.97278,-2.60992 -1.59711,-1.24653 -2.60992,-3.3111 -1.01281,-2.10352 -1.01281,-4.59658 0,-2.53202 1.01281,-4.55763 1.01281,-2.06456 2.60992,-3.31109 3.23319,-2.57097 6.89488,-2.57097 1.48025,0 2.8826,0.42849 1.40234,0.38954 2.06456,0.77908 l 0.62327,0.38954 q 0.70117,0.46745 1.09071,0.74013 1.01281,0.77908 1.01281,1.79189 0,0.97385 -0.81804,2.22038 -1.40234,2.14248 -2.68783,2.14248 -0.74013,0 -2.10352,-0.85699 -0.70117,-0.66222 -2.02561,-0.66222 -1.28548,0 -2.41515,0.93489 -1.12967,0.9349 -1.12967,2.60993 z"
         style="font-style:normal;font-variant:normal;font-weight:normal;font-stretch:normal;font-family:'Fredoka One';-inkscape-font-specification:'Fredoka One';text-align:center;text-anchor:middle;fill:#000000;fill-opacity:1;stroke-width:0.97385192"
         id="path5135" />
      <path
         d="m 178.81468,174.86017 q 0,-4.67449 3.27214,-7.71291 3.27214,-3.03842 7.47918,-3.03842 4.20704,0 7.44023,3.03842 3.23319,2.99946 3.23319,7.67395 0,3.23319 -1.67503,5.76521 -1.67502,2.49306 -4.09017,3.70063 -2.3762,1.16863 -4.94717,1.16863 -2.57097,0 -4.98612,-1.24653 -2.41516,-1.28549 -4.09018,-3.73959 -1.63607,-2.49307 -1.63607,-5.60939 z m 8.1414,2.80469 q 1.24653,0.9349 2.53201,0.9349 1.28549,0 2.57097,-0.97385 1.28549,-0.97385 1.28549,-2.8826 0,-1.90875 -1.20758,-2.84365 -1.20758,-0.9349 -2.60992,-0.9349 -1.40235,0 -2.60993,0.97385 -1.20757,0.97385 -1.20757,2.8826 0,1.8698 1.24653,2.84365 z"
         style="font-style:normal;font-variant:normal;font-weight:normal;font-stretch:normal;font-family:'Fredoka One';-inkscape-font-specification:'Fredoka One';text-align:center;text-anchor:middle;fill:#000000;fill-opacity:1;stroke-width:0.97385192"
         id="path5137" />
      <path
         d="m 214.16976,164.57629 q 3.89541,0 6.46638,2.99947 2.60992,2.96051 2.60992,7.24545 v 6.85592 q 0,0.89595 -0.0779,1.36339 -0.039,0.4285 -0.31164,0.97386 -0.54535,1.05176 -3.03842,1.05176 -2.76573,0 -3.19423,-1.4413 -0.23372,-0.66222 -0.23372,-1.98666 v -6.85592 q 0,-1.59712 -0.9349,-2.49306 -0.89595,-0.89595 -2.45411,-0.89595 -1.51921,0 -2.49306,0.9349 -0.9349,0.9349 -0.9349,2.45411 v 6.89487 q 0,0.89595 -0.0779,1.36339 -0.0389,0.4285 -0.35058,0.97386 -0.50641,1.05176 -2.99947,1.05176 -2.4541,0 -2.99946,-1.05176 -0.27268,-0.58431 -0.35059,-1.01281 -0.0389,-0.46745 -0.0389,-1.36339 v -13.78975 q 0,-0.85699 0.0389,-1.28548 0.0779,-0.46745 0.38954,-1.01281 0.54536,-0.97385 2.99947,-0.97385 2.3762,0 2.92155,0.89594 0.38954,0.66222 0.38954,1.59712 0.15582,-0.27268 0.70118,-0.77908 0.54535,-0.5064 1.05176,-0.81804 1.32444,-0.89594 2.92155,-0.89594 z"
         style="font-style:normal;font-variant:normal;font-weight:normal;font-stretch:normal;font-family:'Fredoka One';-inkscape-font-specification:'Fredoka One';text-align:center;text-anchor:middle;fill:#000000;fill-opacity:1;stroke-width:0.97385192"
         id="path5139" />
      <path
         d="m 237.88124,171.47116 -2.53202,-0.15581 v 5.37566 q 0,1.05176 0.31163,1.51921 0.35059,0.46745 1.24653,0.46745 0.9349,0 1.40235,0.0779 0.5064,0.0389 1.05176,0.35058 0.89595,0.50641 0.89595,2.60993 0,2.4541 -1.09072,2.99946 -0.58431,0.27268 -1.05176,0.35059 -0.42849,0.0389 -1.28548,0.0389 -4.05123,0 -6.15475,-1.83084 -2.10352,-1.83084 -2.10352,-6.1937 v -5.7652 q -0.74013,0.11686 -1.59712,0.11686 -0.85699,0 -1.4413,-0.66222 -0.54535,-0.66222 -0.54535,-2.25934 0,-1.59711 0.19477,-2.29829 0.19477,-0.74013 0.54535,-1.05176 0.62327,-0.5064 1.55817,-0.5064 l 1.28548,0.15582 v -4.01227 q 0,-0.89595 0.039,-1.32444 0.0779,-0.4285 0.38954,-0.9349 0.5064,-0.97385 2.99946,-0.97385 2.64888,0 3.15528,1.4413 0.19477,0.62326 0.19477,1.98666 v 3.8175 q 1.71398,-0.15582 2.57097,-0.15582 0.89594,0 1.32444,0.0779 0.46745,0.0389 1.05176,0.35058 1.01281,0.50641 1.01281,2.99947 0,2.45411 -1.05176,2.99946 -0.58432,0.27268 -1.05176,0.35059 -0.4285,0.0389 -1.32444,0.0389 z"
         style="font-style:normal;font-variant:normal;font-weight:normal;font-stretch:normal;font-family:'Fredoka One';-inkscape-font-specification:'Fredoka One';text-align:center;text-anchor:middle;fill:#000000;fill-opacity:1;stroke-width:0.97385192"
         id="path5141" />
      <path
         d="m 257.40575,164.81002 q 0.74013,0.23372 1.20758,0.81803 0.5064,0.54536 0.5064,1.79189 0,1.24653 -0.74013,2.72678 -0.74013,1.48026 -2.14247,1.48026 -0.70118,0 -1.36339,-0.31163 -0.62327,-0.31164 -1.67503,-0.31164 -1.05176,0 -1.98666,0.74013 -0.89594,0.74013 -0.89594,1.79189 v 8.18036 q 0,0.89594 -0.0779,1.36339 -0.0389,0.42849 -0.35059,1.0128 -0.58431,1.01281 -3.03842,1.01281 -1.86979,0 -2.68783,-0.66222 -0.62326,-0.54536 -0.70117,-1.67502 0,-0.38954 0,-1.12967 V 167.9653 q 0,-0.89595 0.0389,-1.32444 0.0779,-0.46745 0.35059,-1.01281 0.54536,-1.05176 3.03842,-1.05176 2.33724,0 2.92155,0.89594 0.4285,0.62327 0.4285,1.28549 0.19477,-0.27268 0.54536,-0.66222 0.38954,-0.38954 1.59711,-1.05176 1.20758,-0.66222 2.10352,-0.66222 0.9349,0 1.55817,0.11686 0.62326,0.0779 1.36339,0.31164 z"
         style="font-style:normal;font-variant:normal;font-weight:normal;font-stretch:normal;font-family:'Fredoka One';-inkscape-font-specification:'Fredoka One';text-align:center;text-anchor:middle;fill:#000000;fill-opacity:1;stroke-width:0.97385192"
         id="path5143" />
      <path
         d="m 273.44449,166.75772 q 0.23372,-2.18143 3.07737,-2.18143 1.51921,0 2.25934,0.23373 0.74012,0.23372 1.0128,0.81803 0.31163,0.58431 0.35059,1.05176 0.0779,0.4285 0.0779,1.32444 v 13.63393 q 0,0.89594 -0.0779,1.36339 -0.039,0.4285 -0.31163,1.01281 -0.54536,1.0128 -2.68784,1.0128 -2.10352,0 -2.84364,-0.5064 -0.70118,-0.54536 -0.81804,-1.55816 -1.4413,2.06456 -4.8303,2.06456 -3.35005,0 -6.23266,-3.07737 -2.8826,-3.07737 -2.8826,-7.1286 0,-4.09017 2.8826,-7.12859 2.92156,-3.07737 6.38847,-3.07737 1.32444,0 2.41516,0.46744 1.09071,0.46745 1.5192,0.89595 0.4285,0.38954 0.70118,0.77908 z m -7.08964,8.10245 q 0,1.28548 1.0128,2.33724 1.01281,1.01281 2.45411,1.01281 1.4413,0 2.3762,-1.05176 0.97385,-1.05176 0.97385,-2.29829 0,-1.28549 -0.9349,-2.3762 -0.89594,-1.09072 -2.45411,-1.09072 -1.5192,0 -2.49306,1.09072 -0.93489,1.09071 -0.93489,2.3762 z"
         style="font-style:normal;font-variant:normal;font-weight:normal;font-stretch:normal;font-family:'Fredoka One';-inkscape-font-specification:'Fredoka One';text-align:center;text-anchor:middle;fill:#000000;fill-opacity:1;stroke-width:0.97385192"
         id="path5145" />
      <path
         d="m 297.07805,156.04535 q 0.31163,-0.58431 1.05176,-0.81804 0.74012,-0.23372 1.9477,-0.23372 1.24653,0 1.98666,0.23372 0.74012,0.23373 1.0128,0.81804 0.31164,0.58431 0.35059,1.05176 0.0779,0.42849 0.0779,1.32444 v 23.25558 q 0,0.89595 -0.0779,1.36339 -0.0389,0.4285 -0.35059,0.97386 -0.58431,1.05176 -3.31109,1.05176 -2.68783,0 -2.99947,-1.90875 -1.63607,1.86979 -4.55762,1.86979 -3.50587,0 -6.38847,-3.03842 -2.88261,-3.07737 -2.88261,-7.12859 0,-4.09018 2.88261,-7.16755 2.92155,-3.07737 6.38847,-3.07737 2.8826,0 4.47971,1.9477 v -8.18036 q 0,-0.89594 0.039,-1.32444 0.0779,-0.46744 0.35059,-1.0128 z m -6.31057,21.15206 q 1.01281,1.05176 2.45411,1.05176 1.4413,0 2.3762,-1.05176 0.97385,-1.05176 0.97385,-2.29829 0,-1.28548 -0.9349,-2.3762 -0.89594,-1.09071 -2.4541,-1.09071 -1.55817,0 -2.49306,1.09071 -0.9349,1.05176 -0.9349,2.33725 0,1.28548 1.0128,2.33724 z"
         style="font-style:normal;font-variant:normal;font-weight:normal;font-stretch:normal;font-family:'Fredoka One';-inkscape-font-specification:'Fredoka One';text-align:center;text-anchor:middle;fill:#000000;fill-opacity:1;stroke-width:0.97385192"
         id="path5147" />
      <path
         d="m 306.02409,174.86017 q 0,-4.67449 3.27214,-7.71291 3.27214,-3.03842 7.47918,-3.03842 4.20704,0 7.44023,3.03842 3.23319,2.99946 3.23319,7.67395 0,3.23319 -1.67502,5.76521 -1.67503,2.49306 -4.09018,3.70063 -2.3762,1.16863 -4.94717,1.16863 -2.57097,0 -4.98612,-1.24653 -2.41516,-1.28549 -4.09018,-3.73959 -1.63607,-2.49307 -1.63607,-5.60939 z m 8.1414,2.80469 q 1.24653,0.9349 2.53202,0.9349 1.28548,0 2.57096,-0.97385 1.28549,-0.97385 1.28549,-2.8826 0,-1.90875 -1.20758,-2.84365 -1.20757,-0.9349 -2.60992,-0.9349 -1.40235,0 -2.60992,0.97385 -1.20758,0.97385 -1.20758,2.8826 0,1.8698 1.24653,2.84365 z"
         style="font-style:normal;font-variant:normal;font-weight:normal;font-stretch:normal;font-family:'Fredoka One';-inkscape-font-specification:'Fredoka One';text-align:center;text-anchor:middle;fill:#000000;fill-opacity:1;stroke-width:0.97385192"
         id="path5149" />
    </g>
    <g
       aria-label="Tem certeza que pesquisou pelo termo correto?"
       style="font-style:normal;font-weight:normal;font-size:21.22512054px;line-height:1.25;font-family:sans-serif;letter-spacing:0px;word-spacing:0px;fill:#000000;fill-opacity:1;stroke:none;stroke-width:0.53062809"
       id="text4506">
      <path
         d="m 18.439585,236.02246 h 11.801167 q 0.679204,0 0.997581,0.1698 0.318377,0.14858 0.424503,0.48818 0.106125,0.3396 0.106125,0.89146 0,0.55185 -0.106125,0.89145 -0.106126,0.31838 -0.360828,0.44573 -0.382052,0.19102 -1.082481,0.19102 h -4.053998 v 10.67624 q 0,0.48818 -0.04245,0.72165 -0.02123,0.23348 -0.191026,0.55186 -0.148576,0.29715 -0.551853,0.4245 -0.403277,0.12735 -1.061256,0.12735 -0.657979,0 -1.061256,-0.12735 -0.382052,-0.12735 -0.551853,-0.4245 -0.148576,-0.31838 -0.191026,-0.55186 -0.02123,-0.2547 -0.02123,-0.74288 V 239.1001 H 18.41836 q -0.679204,0 -0.99758,-0.14857 -0.318377,-0.1698 -0.424503,-0.5094 -0.106125,-0.33961 -0.106125,-0.89146 0,-0.55185 0.106125,-0.87023 0.106126,-0.3396 0.360827,-0.46695 0.382052,-0.19103 1.082481,-0.19103 z"
         style="font-style:normal;font-variant:normal;font-weight:normal;font-stretch:normal;font-family:'Fredoka One';-inkscape-font-specification:'Fredoka One';text-align:center;text-anchor:middle;fill:#000000;fill-opacity:1;stroke-width:0.53062809"
         id="path5152" />
      <path
         d="m 41.178654,244.68231 q 0,1.29473 -0.657978,1.93149 -0.636754,0.61552 -1.422083,0.61552 h -5.030354 q 0,0.59431 0.700429,0.99759 0.700429,0.40327 1.400858,0.40327 1.231057,0 1.931486,-0.2547 l 0.233476,-0.0849 q 0.509403,-0.23348 0.849005,-0.23348 0.679204,0 1.167382,0.95514 0.275926,0.57307 0.275926,0.97635 0,1.88904 -4.52095,1.88904 -1.570659,0 -2.801716,-0.53063 -1.209832,-0.55185 -1.889036,-1.44331 -1.337183,-1.71923 -1.337183,-3.84175 0,-2.67436 1.719235,-4.26625 1.74046,-1.61311 4.329925,-1.61311 2.950291,0 4.329924,2.08007 0.721654,1.1037 0.721654,2.41966 z m -4.4785,0.61553 q 0.806554,0 0.806554,-0.6792 0,-0.48818 -0.382052,-0.78533 -0.360827,-0.29716 -1.061256,-0.29716 -0.679204,0 -1.358407,0.57308 -0.679204,0.55186 -0.679204,1.18861 z"
         style="font-style:normal;font-variant:normal;font-weight:normal;font-stretch:normal;font-family:'Fredoka One';-inkscape-font-specification:'Fredoka One';text-align:center;text-anchor:middle;fill:#000000;fill-opacity:1;stroke-width:0.53062809"
         id="path5154" />
      <path
         d="m 46.193422,241.90182 q 0.997581,-1.50698 2.398439,-1.50698 2.164962,0 3.226218,1.84658 0.233476,-0.31838 0.551853,-0.65798 0.339602,-0.36082 1.061256,-0.7641 0.721654,-0.4245 1.485758,-0.4245 1.69801,0 2.844167,1.31595 1.146156,1.29474 1.146156,4.3087 v 3.7144 q 0,0.48818 -0.04245,0.74288 -0.02122,0.23347 -0.191026,0.55185 -0.275927,0.57308 -1.634334,0.57308 -1.337183,0 -1.634335,-0.5943 -0.148576,-0.31838 -0.191026,-0.55186 -0.02123,-0.2547 -0.02123,-0.74288 v -3.71439 q 0,-1.84659 -1.315957,-1.84659 -0.74288,0 -1.018806,0.48818 -0.254702,0.48818 -0.254702,1.37963 v 3.7144 q 0,0.5094 -0.04245,0.74288 -0.02123,0.23347 -0.191026,0.55185 -0.297152,0.57308 -1.655559,0.57308 -1.337183,0 -1.634335,-0.5943 -0.148576,-0.31838 -0.191026,-0.55186 -0.02123,-0.2547 -0.02123,-0.74288 v -3.71439 q 0,-1.84659 -1.315957,-1.84659 -1.273508,0 -1.273508,1.84659 v 3.75684 q 0,0.48818 -0.04245,0.74288 -0.02123,0.23348 -0.191026,0.55186 -0.318377,0.55185 -1.655559,0.55185 -1.337183,0 -1.634335,-0.57308 -0.148575,-0.31838 -0.191026,-0.55185 -0.02123,-0.23348 -0.02123,-0.74288 v -7.47124 q 0,-0.48818 0.02123,-0.72166 0.04245,-0.2547 0.212252,-0.55185 0.318376,-0.57308 1.506983,-0.57308 1.188607,0 1.549434,0.38205 0.360827,0.38206 0.360827,1.10371 z"
         style="font-style:normal;font-variant:normal;font-weight:normal;font-stretch:normal;font-family:'Fredoka One';-inkscape-font-specification:'Fredoka One';text-align:center;text-anchor:middle;fill:#000000;fill-opacity:1;stroke-width:0.53062809"
         id="path5156" />
      <path
         d="m 69.508553,246.01949 q 0,0.89146 0.594303,1.40086 0.594304,0.48818 1.252283,0.48818 0.679203,0 1.252282,-0.38205 0.594303,-0.40328 0.95513,-0.40328 0.636754,0 1.549434,1.12493 0.488178,0.61553 0.488178,1.10371 0,0.80655 -1.167382,1.50698 -1.209832,0.84901 -2.971517,0.84901 -1.973936,0 -3.799296,-1.42209 -0.87023,-0.6792 -1.422084,-1.80413 -0.551853,-1.14616 -0.551853,-2.50457 0,-1.37963 0.551853,-2.48334 0.551854,-1.12493 1.422084,-1.80413 1.761685,-1.40086 3.756846,-1.40086 0.806554,0 1.570659,0.23348 0.764104,0.21225 1.124931,0.4245 l 0.339602,0.21225 q 0.382052,0.2547 0.594304,0.40328 0.551853,0.4245 0.551853,0.97635 0,0.53063 -0.445728,1.20984 -0.764104,1.16738 -1.464533,1.16738 -0.403277,0 -1.146157,-0.46696 -0.382052,-0.36082 -1.103706,-0.36082 -0.700429,0 -1.315957,0.5094 -0.615529,0.5094 -0.615529,1.42208 z"
         style="font-style:normal;font-variant:normal;font-weight:normal;font-stretch:normal;font-family:'Fredoka One';-inkscape-font-specification:'Fredoka One';text-align:center;text-anchor:middle;fill:#000000;fill-opacity:1;stroke-width:0.53062809"
         id="path5158" />
      <path
         d="m 87.442784,244.68231 q 0,1.29473 -0.657979,1.93149 -0.636753,0.61552 -1.422083,0.61552 h -5.030353 q 0,0.59431 0.700429,0.99759 0.700429,0.40327 1.400858,0.40327 1.231057,0 1.931486,-0.2547 l 0.233476,-0.0849 q 0.509403,-0.23348 0.849005,-0.23348 0.679204,0 1.167381,0.95514 0.275927,0.57307 0.275927,0.97635 0,1.88904 -4.520951,1.88904 -1.570659,0 -2.801716,-0.53063 -1.209832,-0.55185 -1.889035,-1.44331 -1.337183,-1.71923 -1.337183,-3.84175 0,-2.67436 1.719235,-4.26625 1.74046,-1.61311 4.329924,-1.61311 2.950292,0 4.329925,2.08007 0.721654,1.1037 0.721654,2.41966 z m -4.4785,0.61553 q 0.806554,0 0.806554,-0.6792 0,-0.48818 -0.382052,-0.78533 -0.360827,-0.29716 -1.061256,-0.29716 -0.679204,0 -1.358408,0.57308 -0.679204,0.55186 -0.679204,1.18861 z"
         style="font-style:normal;font-variant:normal;font-weight:normal;font-stretch:normal;font-family:'Fredoka One';-inkscape-font-specification:'Fredoka One';text-align:center;text-anchor:middle;fill:#000000;fill-opacity:1;stroke-width:0.53062809"
         id="path5160" />
      <path
         d="m 96.40542,240.54341 q 0.403277,0.12735 0.657979,0.44573 0.275926,0.29715 0.275926,0.97636 0,0.6792 -0.403277,1.48575 -0.403277,0.80656 -1.167381,0.80656 -0.382053,0 -0.74288,-0.1698 -0.339602,-0.1698 -0.91268,-0.1698 -0.573078,0 -1.082481,0.40327 -0.488178,0.40328 -0.488178,0.97636 v 4.45727 q 0,0.48818 -0.04245,0.74288 -0.02123,0.23348 -0.191026,0.55186 -0.318377,0.55185 -1.655559,0.55185 -1.018806,0 -1.464534,-0.36083 -0.339602,-0.29715 -0.382052,-0.91268 0,-0.21225 0,-0.61553 v -7.45001 q 0,-0.48818 0.02123,-0.72166 0.04245,-0.2547 0.191026,-0.55185 0.297152,-0.57308 1.65556,-0.57308 1.273507,0 1.591884,0.48818 0.233476,0.3396 0.233476,0.70043 0.106126,-0.14858 0.297152,-0.36083 0.212251,-0.21225 0.87023,-0.57308 0.657978,-0.36082 1.146156,-0.36082 0.509403,0 0.849005,0.0637 0.339602,0.0424 0.742879,0.1698 z"
         style="font-style:normal;font-variant:normal;font-weight:normal;font-stretch:normal;font-family:'Fredoka One';-inkscape-font-specification:'Fredoka One';text-align:center;text-anchor:middle;fill:#000000;fill-opacity:1;stroke-width:0.53062809"
         id="path5162" />
      <path
         d="m 105.00226,244.17291 -1.37963,-0.0849 v 2.92906 q 0,0.57308 0.1698,0.82778 0.19102,0.2547 0.6792,0.2547 0.50941,0 0.76411,0.0425 0.27592,0.0212 0.57307,0.19102 0.48818,0.27593 0.48818,1.42208 0,1.33719 -0.5943,1.63434 -0.31838,0.14857 -0.57308,0.19102 -0.23348,0.0212 -0.70043,0.0212 -2.20741,0 -3.35357,-0.99758 -1.146154,-0.99758 -1.146154,-3.3748 v -3.14131 q -0.403277,0.0637 -0.87023,0.0637 -0.466952,0 -0.785329,-0.36082 -0.297152,-0.36083 -0.297152,-1.23106 0,-0.87023 0.106126,-1.25228 0.106125,-0.40328 0.297152,-0.57308 0.339601,-0.27593 0.849004,-0.27593 l 0.700429,0.0849 v -2.18619 q 0,-0.48817 0.02123,-0.72165 0.04245,-0.23348 0.212249,-0.5094 0.27593,-0.53063 1.63434,-0.53063 1.44331,0 1.71923,0.78533 0.10613,0.3396 0.10613,1.08248 v 2.08006 q 0.9339,-0.0849 1.40086,-0.0849 0.48817,0 0.72165,0.0425 0.2547,0.0212 0.57308,0.19103 0.55185,0.27592 0.55185,1.63433 0,1.33718 -0.57308,1.63434 -0.31837,0.14857 -0.57308,0.19102 -0.23347,0.0212 -0.72165,0.0212 z"
         style="font-style:normal;font-variant:normal;font-weight:normal;font-stretch:normal;font-family:'Fredoka One';-inkscape-font-specification:'Fredoka One';text-align:center;text-anchor:middle;fill:#000000;fill-opacity:1;stroke-width:0.53062809"
         id="path5164" />
      <path
         d="m 118.40991,244.68231 q 0,1.29473 -0.65798,1.93149 -0.63676,0.61552 -1.42209,0.61552 h -5.03035 q 0,0.59431 0.70043,0.99759 0.70043,0.40327 1.40086,0.40327 1.23105,0 1.93148,-0.2547 l 0.23348,-0.0849 q 0.5094,-0.23348 0.849,-0.23348 0.67921,0 1.16739,0.95514 0.27592,0.57307 0.27592,0.97635 0,1.88904 -4.52095,1.88904 -1.57066,0 -2.80171,-0.53063 -1.20984,-0.55185 -1.88904,-1.44331 -1.33718,-1.71923 -1.33718,-3.84175 0,-2.67436 1.71923,-4.26625 1.74046,-1.61311 4.32993,-1.61311 2.95029,0 4.32992,2.08007 0.72166,1.1037 0.72166,2.41966 z m -4.47851,0.61553 q 0.80656,0 0.80656,-0.6792 0,-0.48818 -0.38205,-0.78533 -0.36083,-0.29716 -1.06126,-0.29716 -0.6792,0 -1.35841,0.57308 -0.6792,0.55186 -0.6792,1.18861 z"
         style="font-style:normal;font-variant:normal;font-weight:normal;font-stretch:normal;font-family:'Fredoka One';-inkscape-font-specification:'Fredoka One';text-align:center;text-anchor:middle;fill:#000000;fill-opacity:1;stroke-width:0.53062809"
         id="path5166" />
      <path
         d="m 125.35616,247.86608 h 3.62949 q 0.84901,0 1.20984,0.21225 0.38205,0.21225 0.5094,0.61553 0.12735,0.40328 0.12735,1.06125 0,0.65798 -0.12735,1.06126 -0.12735,0.40328 -0.44573,0.57308 -0.31838,0.14857 -0.57308,0.19102 -0.23347,0.0212 -0.72165,0.0212 h -7.66227 q -0.74288,0 -1.29473,-0.55185 -0.55185,-0.55186 -0.55185,-1.31596 0,-0.76411 0.55185,-1.29473 0.55185,-0.55186 1.69801,-1.57066 1.14615,-1.01881 2.08006,-1.82536 0.93391,-0.82778 1.01881,-0.91268 h -2.99275 q -1.20983,0 -1.52821,-0.40328 -0.36082,-0.46695 -0.36082,-1.23106 0,-0.7641 0.10612,-1.12493 0.10613,-0.38205 0.2547,-0.55185 0.14858,-0.19103 0.42451,-0.29715 0.36082,-0.10613 1.1037,-0.10613 h 6.89817 q 0.74288,0 1.29473,0.53063 0.55185,0.53063 0.55185,1.33718 0,0.78533 -0.63675,1.40086 -0.63675,0.61553 -4.5634,4.18135 z"
         style="font-style:normal;font-variant:normal;font-weight:normal;font-stretch:normal;font-family:'Fredoka One';-inkscape-font-specification:'Fredoka One';text-align:center;text-anchor:middle;fill:#000000;fill-opacity:1;stroke-width:0.53062809"
         id="path5168" />
      <path
         d="m 139.46954,241.60467 q 0.12735,-1.18861 1.67678,-1.18861 0.82778,0 1.23106,0.12735 0.40327,0.12735 0.55185,0.44573 0.1698,0.31838 0.19103,0.57308 0.0425,0.23347 0.0425,0.72165 v 7.42879 q 0,0.48818 -0.0425,0.74288 -0.0212,0.23348 -0.1698,0.55186 -0.29716,0.55185 -1.46454,0.55185 -1.14615,0 -1.54943,-0.27593 -0.38205,-0.29715 -0.44573,-0.849 -0.78533,1.12493 -2.63191,1.12493 -1.82536,0 -3.39602,-1.67678 -1.57066,-1.67679 -1.57066,-3.8842 0,-2.22864 1.57066,-3.8842 1.59188,-1.67678 3.48092,-1.67678 0.72165,0 1.31595,0.2547 0.59431,0.2547 0.82778,0.48818 0.23348,0.21225 0.38206,0.4245 z m -3.86298,4.41482 q 0,0.70043 0.55186,1.27351 0.55185,0.55185 1.33718,0.55185 0.78533,0 1.29473,-0.57307 0.53063,-0.57308 0.53063,-1.25229 0,-0.70043 -0.5094,-1.29473 -0.48818,-0.5943 -1.33719,-0.5943 -0.82778,0 -1.3584,0.5943 -0.50941,0.5943 -0.50941,1.29473 z"
         style="font-style:normal;font-variant:normal;font-weight:normal;font-stretch:normal;font-family:'Fredoka One';-inkscape-font-specification:'Fredoka One';text-align:center;text-anchor:middle;fill:#000000;fill-opacity:1;stroke-width:0.53062809"
         id="path5170" />
      <path
         d="m 157.29035,241.54099 q 0.12735,-1.12493 1.65556,-1.12493 0.80655,0 1.18861,0.12735 0.38205,0.12735 0.53062,0.44573 0.16981,0.29715 0.19103,0.53063 0.0425,0.23347 0.0425,0.72165 v 12.39547 q 0,0.48818 -0.0425,0.72166 -0.0212,0.23347 -0.19103,0.53062 -0.14857,0.29716 -0.55185,0.42451 -0.38205,0.12735 -1.04003,0.12735 -0.65798,0 -1.04003,-0.12735 -0.38205,-0.12735 -0.55185,-0.44573 -0.14858,-0.29715 -0.19103,-0.53063 -0.0212,-0.23348 -0.0212,-0.72165 v -4.28748 q -0.849,0.97636 -2.39843,0.97636 -1.88904,0 -3.41725,-1.63434 -1.52821,-1.63433 -1.52821,-3.79929 0,-2.16497 1.54944,-3.7993 1.54943,-1.63433 3.26867,-1.63433 1.74046,0 2.54701,1.1037 z m -3.20499,5.60343 q 0.55185,0.55186 1.31595,0.55186 0.76411,0 1.27351,-0.55186 0.5094,-0.57307 0.5094,-1.23105 0,-0.67921 -0.48817,-1.25228 -0.48818,-0.59431 -1.31596,-0.59431 -0.80656,0 -1.31596,0.57308 -0.5094,0.55185 -0.5094,1.25228 0,0.70043 0.53063,1.25228 z"
         style="font-style:normal;font-variant:normal;font-weight:normal;font-stretch:normal;font-family:'Fredoka One';-inkscape-font-specification:'Fredoka One';text-align:center;text-anchor:middle;fill:#000000;fill-opacity:1;stroke-width:0.53062809"
         id="path5172" />
      <path
         d="m 167.56397,251.55925 q -2.14374,0 -3.56582,-1.61311 -1.40086,-1.63433 -1.40086,-3.9691 v -3.71439 q 0,-0.50941 0.0212,-0.74288 0.0425,-0.23348 0.19102,-0.55186 0.29716,-0.57307 1.65556,-0.57307 1.48576,0 1.74046,0.80655 0.12735,0.3396 0.12735,1.08248 v 3.7144 q 0,0.87023 0.48818,1.35841 0.50941,0.48817 1.33718,0.48817 0.84901,0 1.35841,-0.5094 0.53063,-0.5094 0.53063,-1.33718 v -3.75685 q 0,-0.48818 0.0212,-0.72165 0.0424,-0.2547 0.21225,-0.57308 0.27592,-0.55185 1.63433,-0.55185 1.33718,0 1.63434,0.57307 0.14857,0.31838 0.1698,0.57308 0.0425,0.23348 0.0425,0.72166 v 7.51369 q 0,0.46695 -0.0425,0.72165 -0.0212,0.23348 -0.19103,0.53063 -0.31838,0.55185 -1.63433,0.55185 -1.29474,0 -1.59189,-0.5094 -0.21225,-0.36083 -0.21225,-0.87023 -0.0849,0.14858 -0.38205,0.4245 -0.29715,0.27593 -0.57308,0.46696 -0.72165,0.46695 -1.57066,0.46695 z"
         style="font-style:normal;font-variant:normal;font-weight:normal;font-stretch:normal;font-family:'Fredoka One';-inkscape-font-specification:'Fredoka One';text-align:center;text-anchor:middle;fill:#000000;fill-opacity:1;stroke-width:0.53062809"
         id="path5174" />
      <path
         d="m 186.23079,244.68231 q 0,1.29473 -0.65798,1.93149 -0.63675,0.61552 -1.42208,0.61552 h -5.03036 q 0,0.59431 0.70043,0.99759 0.70043,0.40327 1.40086,0.40327 1.23106,0 1.93149,-0.2547 l 0.23347,-0.0849 q 0.50941,-0.23348 0.84901,-0.23348 0.6792,0 1.16738,0.95514 0.27593,0.57307 0.27593,0.97635 0,1.88904 -4.52095,1.88904 -1.57066,0 -2.80172,-0.53063 -1.20983,-0.55185 -1.88904,-1.44331 -1.33718,-1.71923 -1.33718,-3.84175 0,-2.67436 1.71924,-4.26625 1.74046,-1.61311 4.32992,-1.61311 2.95029,0 4.32993,2.08007 0.72165,1.1037 0.72165,2.41966 z m -4.4785,0.61553 q 0.80655,0 0.80655,-0.6792 0,-0.48818 -0.38205,-0.78533 -0.36083,-0.29716 -1.06125,-0.29716 -0.67921,0 -1.35841,0.57308 -0.67921,0.55186 -0.67921,1.18861 z"
         style="font-style:normal;font-variant:normal;font-weight:normal;font-stretch:normal;font-family:'Fredoka One';-inkscape-font-specification:'Fredoka One';text-align:center;text-anchor:middle;fill:#000000;fill-opacity:1;stroke-width:0.53062809"
         id="path5176" />
      <path
         d="m 192.98403,254.63689 v -12.39547 q 0,-0.48818 0.0212,-0.72165 0.0425,-0.23348 0.19103,-0.53063 0.29715,-0.57308 1.42208,-0.57308 1.12493,0 1.50699,0.29715 0.40327,0.27593 0.46695,0.82778 0.80655,-1.1037 2.52579,-1.1037 1.74046,0 3.28989,1.63433 1.54943,1.63433 1.54943,3.7993 0,2.16496 -1.54943,3.79929 -1.52821,1.63434 -3.26867,1.63434 -1.74046,0 -2.52579,-0.97636 v 4.28748 q 0,0.48817 -0.0425,0.72165 -0.0212,0.23348 -0.19102,0.53063 -0.14858,0.31838 -0.53063,0.44573 -0.38205,0.12735 -1.04003,0.12735 -0.65798,0 -1.06126,-0.12735 -0.38205,-0.12735 -0.55185,-0.42451 -0.14858,-0.29715 -0.19103,-0.53062 -0.0212,-0.23348 -0.0212,-0.72166 z m 4.20257,-9.99703 q -0.48818,0.57308 -0.48818,1.25228 0,0.67921 0.48818,1.25228 0.5094,0.55186 1.27351,0.55186 0.78533,0 1.31596,-0.55186 0.55185,-0.55185 0.55185,-1.25228 0,-0.70043 -0.5094,-1.25228 -0.50941,-0.57308 -1.33719,-0.57308 -0.80655,0 -1.29473,0.57308 z"
         style="font-style:normal;font-variant:normal;font-weight:normal;font-stretch:normal;font-family:'Fredoka One';-inkscape-font-specification:'Fredoka One';text-align:center;text-anchor:middle;fill:#000000;fill-opacity:1;stroke-width:0.53062809"
         id="path5178" />
      <path
         d="m 216.12007,244.68231 q 0,1.29473 -0.65798,1.93149 -0.63675,0.61552 -1.42208,0.61552 h -5.03035 q 0,0.59431 0.70043,0.99759 0.70042,0.40327 1.40085,0.40327 1.23106,0 1.93149,-0.2547 l 0.23348,-0.0849 q 0.5094,-0.23348 0.849,-0.23348 0.6792,0 1.16738,0.95514 0.27593,0.57307 0.27593,0.97635 0,1.88904 -4.52095,1.88904 -1.57066,0 -2.80172,-0.53063 -1.20983,-0.55185 -1.88903,-1.44331 -1.33719,-1.71923 -1.33719,-3.84175 0,-2.67436 1.71924,-4.26625 1.74046,-1.61311 4.32992,-1.61311 2.9503,0 4.32993,2.08007 0.72165,1.1037 0.72165,2.41966 z m -4.4785,0.61553 q 0.80656,0 0.80656,-0.6792 0,-0.48818 -0.38206,-0.78533 -0.36082,-0.29716 -1.06125,-0.29716 -0.67921,0 -1.35841,0.57308 -0.6792,0.55186 -0.6792,1.18861 z"
         style="font-style:normal;font-variant:normal;font-weight:normal;font-stretch:normal;font-family:'Fredoka One';-inkscape-font-specification:'Fredoka One';text-align:center;text-anchor:middle;fill:#000000;fill-opacity:1;stroke-width:0.53062809"
         id="path5180" />
      <path
         d="m 217.56902,250.60412 q -0.40328,-0.2547 -0.40328,-0.80656 0,-0.55185 0.80656,-1.67678 0.23347,-0.36083 0.74288,-0.36083 0.53062,0 1.42208,0.53063 0.89145,0.5094 1.61311,0.5094 1.29473,0 1.29473,-0.5094 0,-0.40328 -1.42208,-0.5943 -1.33719,-0.19103 -2.65314,-0.99758 -0.61553,-0.38206 -1.01881,-1.18861 -0.40328,-0.82778 -0.40328,-1.95271 0,-3.35357 4.60586,-3.35357 1.50698,0 3.09886,0.72165 0.74288,0.33961 0.74288,0.84901 0,0.5094 -0.46695,1.25228 -0.46695,0.74288 -0.95513,0.74288 -0.2547,0 -0.95513,-0.31838 -0.67921,-0.31837 -1.48576,-0.31837 -1.25228,0 -1.25228,0.46695 0,0.63675 1.44331,0.82778 1.40085,0.14857 2.71681,0.80655 0.61553,0.29716 1.01881,1.04003 0.4245,0.72166 0.4245,1.82536 0,1.10371 -0.4245,1.88904 -0.40328,0.76411 -1.14616,1.14616 -1.35841,0.65798 -3.41724,0.65798 -2.03761,0 -3.92665,-1.18861 z"
         style="font-style:normal;font-variant:normal;font-weight:normal;font-stretch:normal;font-family:'Fredoka One';-inkscape-font-specification:'Fredoka One';text-align:center;text-anchor:middle;fill:#000000;fill-opacity:1;stroke-width:0.53062809"
         id="path5182" />
      <path
         d="m 234.89469,241.54099 q 0.12735,-1.12493 1.65556,-1.12493 0.80655,0 1.18861,0.12735 0.38205,0.12735 0.53062,0.44573 0.1698,0.29715 0.19103,0.53063 0.0425,0.23347 0.0425,0.72165 v 12.39547 q 0,0.48818 -0.0425,0.72166 -0.0212,0.23347 -0.19103,0.53062 -0.14857,0.29716 -0.55185,0.42451 -0.38205,0.12735 -1.04003,0.12735 -0.65798,0 -1.04003,-0.12735 -0.38205,-0.12735 -0.55185,-0.44573 -0.14858,-0.29715 -0.19103,-0.53063 -0.0212,-0.23348 -0.0212,-0.72165 v -4.28748 q -0.849,0.97636 -2.39843,0.97636 -1.88904,0 -3.41725,-1.63434 -1.52821,-1.63433 -1.52821,-3.79929 0,-2.16497 1.54944,-3.7993 1.54943,-1.63433 3.26867,-1.63433 1.74045,0 2.54701,1.1037 z m -3.20499,5.60343 q 0.55185,0.55186 1.31595,0.55186 0.76411,0 1.27351,-0.55186 0.5094,-0.57307 0.5094,-1.23105 0,-0.67921 -0.48817,-1.25228 -0.48818,-0.59431 -1.31596,-0.59431 -0.80656,0 -1.31596,0.57308 -0.5094,0.55185 -0.5094,1.25228 0,0.70043 0.53063,1.25228 z"
         style="font-style:normal;font-variant:normal;font-weight:normal;font-stretch:normal;font-family:'Fredoka One';-inkscape-font-specification:'Fredoka One';text-align:center;text-anchor:middle;fill:#000000;fill-opacity:1;stroke-width:0.53062809"
         id="path5184" />
      <path
         d="m 245.16831,251.55925 q -2.14374,0 -3.56582,-1.61311 -1.40086,-1.63433 -1.40086,-3.9691 v -3.71439 q 0,-0.50941 0.0212,-0.74288 0.0425,-0.23348 0.19102,-0.55186 0.29716,-0.57307 1.65556,-0.57307 1.48576,0 1.74046,0.80655 0.12735,0.3396 0.12735,1.08248 v 3.7144 q 0,0.87023 0.48818,1.35841 0.5094,0.48817 1.33718,0.48817 0.84901,0 1.35841,-0.5094 0.53063,-0.5094 0.53063,-1.33718 v -3.75685 q 0,-0.48818 0.0212,-0.72165 0.0425,-0.2547 0.21225,-0.57308 0.27592,-0.55185 1.63433,-0.55185 1.33718,0 1.63434,0.57307 0.14857,0.31838 0.1698,0.57308 0.0425,0.23348 0.0425,0.72166 v 7.51369 q 0,0.46695 -0.0425,0.72165 -0.0212,0.23348 -0.19103,0.53063 -0.31838,0.55185 -1.63433,0.55185 -1.29474,0 -1.59189,-0.5094 -0.21225,-0.36083 -0.21225,-0.87023 -0.0849,0.14858 -0.38205,0.4245 -0.29715,0.27593 -0.57308,0.46696 -0.72165,0.46695 -1.57066,0.46695 z"
         style="font-style:normal;font-variant:normal;font-weight:normal;font-stretch:normal;font-family:'Fredoka One';-inkscape-font-specification:'Fredoka One';text-align:center;text-anchor:middle;fill:#000000;fill-opacity:1;stroke-width:0.53062809"
         id="path5186" />
      <path
         d="m 253.05278,242.28387 q 0,-0.48818 0.0212,-0.72165 0.0425,-0.2547 0.19102,-0.57308 0.29716,-0.55185 1.65556,-0.55185 1.01881,0 1.44331,0.36082 0.36083,0.29716 0.38205,0.91268 0.0212,0.21225 0.0212,0.61553 v 7.42879 q 0,0.48818 -0.0424,0.74288 -0.0212,0.23348 -0.19103,0.55186 -0.27592,0.55185 -1.63433,0.55185 -1.33718,0 -1.63434,-0.57308 -0.14857,-0.31838 -0.19102,-0.55185 -0.0212,-0.23348 -0.0212,-0.74288 z m 3.48092,-3.92665 q -0.14857,0.29716 -0.55185,0.42451 -0.40328,0.12735 -1.08248,0.12735 -0.65798,0 -1.06126,-0.12735 -0.40327,-0.12735 -0.57308,-0.44573 -0.14857,-0.31838 -0.19102,-0.55185 -0.0212,-0.25471 -0.0212,-0.74288 0,-0.48818 0.0212,-0.72166 0.0425,-0.2547 0.19102,-0.55185 0.29716,-0.57308 1.65556,-0.57308 1.33719,0 1.61311,0.57308 0.1698,0.31838 0.19103,0.57308 0.0424,0.23347 0.0424,0.72165 0,0.48818 -0.0424,0.74288 -0.0212,0.23348 -0.19103,0.55185 z"
         style="font-style:normal;font-variant:normal;font-weight:normal;font-stretch:normal;font-family:'Fredoka One';-inkscape-font-specification:'Fredoka One';text-align:center;text-anchor:middle;fill:#000000;fill-opacity:1;stroke-width:0.53062809"
         id="path5188" />
      <path
         d="m 258.56833,250.60412 q -0.40327,-0.2547 -0.40327,-0.80656 0,-0.55185 0.80655,-1.67678 0.23348,-0.36083 0.74288,-0.36083 0.53063,0 1.42208,0.53063 0.89146,0.5094 1.61311,0.5094 1.29473,0 1.29473,-0.5094 0,-0.40328 -1.42208,-0.5943 -1.33718,-0.19103 -2.65314,-0.99758 -0.61553,-0.38206 -1.01881,-1.18861 -0.40327,-0.82778 -0.40327,-1.95271 0,-3.35357 4.60585,-3.35357 1.50698,0 3.09887,0.72165 0.74288,0.33961 0.74288,0.84901 0,0.5094 -0.46696,1.25228 -0.46695,0.74288 -0.95513,0.74288 -0.2547,0 -0.95513,-0.31838 -0.6792,-0.31837 -1.48576,-0.31837 -1.25228,0 -1.25228,0.46695 0,0.63675 1.44331,0.82778 1.40086,0.14857 2.71682,0.80655 0.61552,0.29716 1.0188,1.04003 0.4245,0.72166 0.4245,1.82536 0,1.10371 -0.4245,1.88904 -0.40328,0.76411 -1.14616,1.14616 -1.3584,0.65798 -3.41724,0.65798 -2.03761,0 -3.92665,-1.18861 z"
         style="font-style:normal;font-variant:normal;font-weight:normal;font-stretch:normal;font-family:'Fredoka One';-inkscape-font-specification:'Fredoka One';text-align:center;text-anchor:middle;fill:#000000;fill-opacity:1;stroke-width:0.53062809"
         id="path5190" />
      <path
         d="m 268.52889,246.01949 q 0,-2.54701 1.78291,-4.20257 1.78291,-1.65556 4.07522,-1.65556 2.29231,0 4.054,1.65556 1.76168,1.63433 1.76168,4.18135 0,1.76168 -0.91268,3.14132 -0.91268,1.3584 -2.22864,2.01638 -1.29473,0.63676 -2.69559,0.63676 -1.40085,0 -2.71681,-0.67921 -1.31596,-0.70043 -2.22864,-2.03761 -0.89145,-1.35841 -0.89145,-3.05642 z m 4.43605,1.52821 q 0.6792,0.5094 1.37963,0.5094 0.70043,0 1.40086,-0.53062 0.70043,-0.53063 0.70043,-1.57066 0,-1.04003 -0.65798,-1.54944 -0.65798,-0.5094 -1.42209,-0.5094 -0.7641,0 -1.42208,0.53063 -0.65798,0.53063 -0.65798,1.57066 0,1.0188 0.67921,1.54943 z"
         style="font-style:normal;font-variant:normal;font-weight:normal;font-stretch:normal;font-family:'Fredoka One';-inkscape-font-specification:'Fredoka One';text-align:center;text-anchor:middle;fill:#000000;fill-opacity:1;stroke-width:0.53062809"
         id="path5192" />
      <path
         d="m 286.54072,251.55925 q -2.14374,0 -3.56582,-1.61311 -1.40086,-1.63433 -1.40086,-3.9691 v -3.71439 q 0,-0.50941 0.0212,-0.74288 0.0425,-0.23348 0.19103,-0.55186 0.29715,-0.57307 1.65556,-0.57307 1.48576,0 1.74046,0.80655 0.12735,0.3396 0.12735,1.08248 v 3.7144 q 0,0.87023 0.48818,1.35841 0.5094,0.48817 1.33718,0.48817 0.84901,0 1.35841,-0.5094 0.53063,-0.5094 0.53063,-1.33718 v -3.75685 q 0,-0.48818 0.0212,-0.72165 0.0425,-0.2547 0.21225,-0.57308 0.27593,-0.55185 1.63434,-0.55185 1.33718,0 1.63433,0.57307 0.14858,0.31838 0.1698,0.57308 0.0424,0.23348 0.0424,0.72166 v 7.51369 q 0,0.46695 -0.0424,0.72165 -0.0212,0.23348 -0.19102,0.53063 -0.31838,0.55185 -1.63434,0.55185 -1.29473,0 -1.59188,-0.5094 -0.21225,-0.36083 -0.21225,-0.87023 -0.0849,0.14858 -0.38206,0.4245 -0.29715,0.27593 -0.57307,0.46696 -0.72166,0.46695 -1.57066,0.46695 z"
         style="font-style:normal;font-variant:normal;font-weight:normal;font-stretch:normal;font-family:'Fredoka One';-inkscape-font-specification:'Fredoka One';text-align:center;text-anchor:middle;fill:#000000;fill-opacity:1;stroke-width:0.53062809"
         id="path5194" />
      <path
         d="m 299.81436,254.63689 v -12.39547 q 0,-0.48818 0.0212,-0.72165 0.0424,-0.23348 0.19103,-0.53063 0.29715,-0.57308 1.42208,-0.57308 1.12493,0 1.50698,0.29715 0.40328,0.27593 0.46696,0.82778 0.80655,-1.1037 2.52578,-1.1037 1.74046,0 3.2899,1.63433 1.54943,1.63433 1.54943,3.7993 0,2.16496 -1.54943,3.79929 -1.52821,1.63434 -3.26867,1.63434 -1.74046,0 -2.52579,-0.97636 v 4.28748 q 0,0.48817 -0.0424,0.72165 -0.0212,0.23348 -0.19103,0.53063 -0.14857,0.31838 -0.53062,0.44573 -0.38206,0.12735 -1.04003,0.12735 -0.65798,0 -1.06126,-0.12735 -0.38205,-0.12735 -0.55185,-0.42451 -0.14858,-0.29715 -0.19103,-0.53062 -0.0212,-0.23348 -0.0212,-0.72166 z m 4.20258,-9.99703 q -0.48818,0.57308 -0.48818,1.25228 0,0.67921 0.48818,1.25228 0.5094,0.55186 1.27351,0.55186 0.78533,0 1.31595,-0.55186 0.55186,-0.55185 0.55186,-1.25228 0,-0.70043 -0.50941,-1.25228 -0.5094,-0.57308 -1.33718,-0.57308 -0.80655,0 -1.29473,0.57308 z"
         style="font-style:normal;font-variant:normal;font-weight:normal;font-stretch:normal;font-family:'Fredoka One';-inkscape-font-specification:'Fredoka One';text-align:center;text-anchor:middle;fill:#000000;fill-opacity:1;stroke-width:0.53062809"
         id="path5196" />
      <path
         d="m 322.95042,244.68231 q 0,1.29473 -0.65797,1.93149 -0.63676,0.61552 -1.42209,0.61552 h -5.03035 q 0,0.59431 0.70043,0.99759 0.70043,0.40327 1.40086,0.40327 1.23105,0 1.93148,-0.2547 l 0.23348,-0.0849 q 0.5094,-0.23348 0.849,-0.23348 0.67921,0 1.16739,0.95514 0.27592,0.57307 0.27592,0.97635 0,1.88904 -4.52095,1.88904 -1.57066,0 -2.80171,-0.53063 -1.20984,-0.55185 -1.88904,-1.44331 -1.33718,-1.71923 -1.33718,-3.84175 0,-2.67436 1.71923,-4.26625 1.74046,-1.61311 4.32993,-1.61311 2.95029,0 4.32992,2.08007 0.72165,1.1037 0.72165,2.41966 z m -4.4785,0.61553 q 0.80656,0 0.80656,-0.6792 0,-0.48818 -0.38205,-0.78533 -0.36083,-0.29716 -1.06126,-0.29716 -0.6792,0 -1.35841,0.57308 -0.6792,0.55186 -0.6792,1.18861 z"
         style="font-style:normal;font-variant:normal;font-weight:normal;font-stretch:normal;font-family:'Fredoka One';-inkscape-font-specification:'Fredoka One';text-align:center;text-anchor:middle;fill:#000000;fill-opacity:1;stroke-width:0.53062809"
         id="path5198" />
      <path
         d="m 324.31446,237.02004 q 0,-0.48818 0.0212,-0.72165 0.0424,-0.2547 0.19103,-0.57308 0.29715,-0.57308 1.65556,-0.57308 1.29473,0 1.61311,0.57308 0.1698,0.31838 0.19102,0.57308 0.0424,0.2547 0.0424,0.74288 v 9.82723 q 0,0.7641 0.12735,0.97635 0.12735,0.19103 0.55186,0.19103 0.44572,0 0.5943,0.0425 0.14858,0.0212 0.36083,0.1698 0.4245,0.27593 0.4245,1.50698 0,1.33719 -0.4245,1.63434 -0.55186,0.38205 -2.63192,0.12735 -1.63433,-0.21225 -2.12251,-1.08248 -0.5943,-1.04003 -0.5943,-3.31112 z"
         style="font-style:normal;font-variant:normal;font-weight:normal;font-stretch:normal;font-family:'Fredoka One';-inkscape-font-specification:'Fredoka One';text-align:center;text-anchor:middle;fill:#000000;fill-opacity:1;stroke-width:0.53062809"
         id="path5200" />
      <path
         d="m 330.91911,246.01949 q 0,-2.54701 1.78291,-4.20257 1.78291,-1.65556 4.07523,-1.65556 2.29231,0 4.054,1.65556 1.76168,1.63433 1.76168,4.18135 0,1.76168 -0.91268,3.14132 -0.91268,1.3584 -2.22864,2.01638 -1.29473,0.63676 -2.69559,0.63676 -1.40086,0 -2.71681,-0.67921 -1.31596,-0.70043 -2.22864,-2.03761 -0.89146,-1.35841 -0.89146,-3.05642 z m 4.43605,1.52821 q 0.67921,0.5094 1.37964,0.5094 0.70043,0 1.40086,-0.53062 0.70042,-0.53063 0.70042,-1.57066 0,-1.04003 -0.65797,-1.54944 -0.65798,-0.5094 -1.42209,-0.5094 -0.7641,0 -1.42208,0.53063 -0.65798,0.53063 -0.65798,1.57066 0,1.0188 0.6792,1.54943 z"
         style="font-style:normal;font-variant:normal;font-weight:normal;font-stretch:normal;font-family:'Fredoka One';-inkscape-font-specification:'Fredoka One';text-align:center;text-anchor:middle;fill:#000000;fill-opacity:1;stroke-width:0.53062809"
         id="path5202" />
      <path
         d="m 355.84838,244.17291 -1.37964,-0.0849 v 2.92906 q 0,0.57308 0.1698,0.82778 0.19103,0.2547 0.67921,0.2547 0.5094,0 0.7641,0.0425 0.27593,0.0212 0.57308,0.19102 0.48818,0.27593 0.48818,1.42208 0,1.33719 -0.59431,1.63434 -0.31837,0.14857 -0.57307,0.19102 -0.23348,0.0212 -0.70043,0.0212 -2.20742,0 -3.35357,-0.99758 -1.14616,-0.99758 -1.14616,-3.3748 v -3.14131 q -0.40328,0.0637 -0.87023,0.0637 -0.46695,0 -0.78533,-0.36082 -0.29715,-0.36083 -0.29715,-1.23106 0,-0.87023 0.10613,-1.25228 0.10612,-0.40328 0.29715,-0.57308 0.3396,-0.27593 0.849,-0.27593 l 0.70043,0.0849 v -2.18619 q 0,-0.48817 0.0212,-0.72165 0.0424,-0.23348 0.21225,-0.5094 0.27592,-0.53063 1.63433,-0.53063 1.44331,0 1.71924,0.78533 0.10612,0.3396 0.10612,1.08248 v 2.08006 q 0.93391,-0.0849 1.40086,-0.0849 0.48818,0 0.72165,0.0425 0.25471,0.0212 0.57308,0.19103 0.55186,0.27592 0.55186,1.63433 0,1.33718 -0.57308,1.63434 -0.31838,0.14857 -0.57308,0.19102 -0.23348,0.0212 -0.72165,0.0212 z"
         style="font-style:normal;font-variant:normal;font-weight:normal;font-stretch:normal;font-family:'Fredoka One';-inkscape-font-specification:'Fredoka One';text-align:center;text-anchor:middle;fill:#000000;fill-opacity:1;stroke-width:0.53062809"
         id="path5204" />
      <path
         d="m 369.256,244.68231 q 0,1.29473 -0.65798,1.93149 -0.63676,0.61552 -1.42208,0.61552 h -5.03036 q 0,0.59431 0.70043,0.99759 0.70043,0.40327 1.40086,0.40327 1.23106,0 1.93148,-0.2547 l 0.23348,-0.0849 q 0.5094,-0.23348 0.84901,-0.23348 0.6792,0 1.16738,0.95514 0.27592,0.57307 0.27592,0.97635 0,1.88904 -4.52095,1.88904 -1.57066,0 -2.80171,-0.53063 -1.20983,-0.55185 -1.88904,-1.44331 -1.33718,-1.71923 -1.33718,-3.84175 0,-2.67436 1.71923,-4.26625 1.74046,-1.61311 4.32993,-1.61311 2.95029,0 4.32992,2.08007 0.72166,1.1037 0.72166,2.41966 z m -4.4785,0.61553 q 0.80655,0 0.80655,-0.6792 0,-0.48818 -0.38205,-0.78533 -0.36083,-0.29716 -1.06126,-0.29716 -0.6792,0 -1.3584,0.57308 -0.67921,0.55186 -0.67921,1.18861 z"
         style="font-style:normal;font-variant:normal;font-weight:normal;font-stretch:normal;font-family:'Fredoka One';-inkscape-font-specification:'Fredoka One';text-align:center;text-anchor:middle;fill:#000000;fill-opacity:1;stroke-width:0.53062809"
         id="path5206" />
      <path
         d="m 378.21865,240.54341 q 0.40328,0.12735 0.65798,0.44573 0.27593,0.29715 0.27593,0.97636 0,0.6792 -0.40328,1.48575 -0.40328,0.80656 -1.16738,0.80656 -0.38205,0 -0.74288,-0.1698 -0.3396,-0.1698 -0.91268,-0.1698 -0.57308,0 -1.08248,0.40327 -0.48818,0.40328 -0.48818,0.97636 v 4.45727 q 0,0.48818 -0.0425,0.74288 -0.0212,0.23348 -0.19103,0.55186 -0.31837,0.55185 -1.65556,0.55185 -1.0188,0 -1.46453,-0.36083 -0.3396,-0.29715 -0.38205,-0.91268 0,-0.21225 0,-0.61553 v -7.45001 q 0,-0.48818 0.0212,-0.72166 0.0425,-0.2547 0.19103,-0.55185 0.29715,-0.57308 1.65556,-0.57308 1.27351,0 1.59188,0.48818 0.23348,0.3396 0.23348,0.70043 0.10613,-0.14858 0.29715,-0.36083 0.21225,-0.21225 0.87023,-0.57308 0.65798,-0.36082 1.14616,-0.36082 0.5094,0 0.849,0.0637 0.33961,0.0424 0.74288,0.1698 z"
         style="font-style:normal;font-variant:normal;font-weight:normal;font-stretch:normal;font-family:'Fredoka One';-inkscape-font-specification:'Fredoka One';text-align:center;text-anchor:middle;fill:#000000;fill-opacity:1;stroke-width:0.53062809"
         id="path5208" />
      <path
         d="m 383.97131,241.90182 q 0.99758,-1.50698 2.39844,-1.50698 2.16496,0 3.22622,1.84658 0.23347,-0.31838 0.55185,-0.65798 0.3396,-0.36082 1.06126,-0.7641 0.72165,-0.4245 1.48576,-0.4245 1.69801,0 2.84416,1.31595 1.14616,1.29474 1.14616,4.3087 v 3.7144 q 0,0.48818 -0.0424,0.74288 -0.0212,0.23347 -0.19103,0.55185 -0.27592,0.57308 -1.63433,0.57308 -1.33718,0 -1.63434,-0.5943 -0.14857,-0.31838 -0.19102,-0.55186 -0.0212,-0.2547 -0.0212,-0.74288 v -3.71439 q 0,-1.84659 -1.31596,-1.84659 -0.74287,0 -1.0188,0.48818 -0.2547,0.48818 -0.2547,1.37963 v 3.7144 q 0,0.5094 -0.0425,0.74288 -0.0212,0.23347 -0.19103,0.55185 -0.29715,0.57308 -1.65556,0.57308 -1.33718,0 -1.63433,-0.5943 -0.14858,-0.31838 -0.19103,-0.55186 -0.0212,-0.2547 -0.0212,-0.74288 v -3.71439 q 0,-1.84659 -1.31596,-1.84659 -1.27351,0 -1.27351,1.84659 v 3.75684 q 0,0.48818 -0.0425,0.74288 -0.0212,0.23348 -0.19102,0.55186 -0.31838,0.55185 -1.65556,0.55185 -1.33719,0 -1.63434,-0.57308 -0.14857,-0.31838 -0.19102,-0.55185 -0.0212,-0.23348 -0.0212,-0.74288 v -7.47124 q 0,-0.48818 0.0212,-0.72166 0.0425,-0.2547 0.21225,-0.55185 0.31837,-0.57308 1.50698,-0.57308 1.18861,0 1.54943,0.38205 0.36083,0.38206 0.36083,1.10371 z"
         style="font-style:normal;font-variant:normal;font-weight:normal;font-stretch:normal;font-family:'Fredoka One';-inkscape-font-specification:'Fredoka One';text-align:center;text-anchor:middle;fill:#000000;fill-opacity:1;stroke-width:0.53062809"
         id="path5210" />
      <path
         d="m 398.07674,246.01949 q 0,-2.54701 1.78291,-4.20257 1.78291,-1.65556 4.07522,-1.65556 2.29231,0 4.054,1.65556 1.76168,1.63433 1.76168,4.18135 0,1.76168 -0.91268,3.14132 -0.91268,1.3584 -2.22863,2.01638 -1.29474,0.63676 -2.69559,0.63676 -1.40086,0 -2.71682,-0.67921 -1.31596,-0.70043 -2.22864,-2.03761 -0.89145,-1.35841 -0.89145,-3.05642 z m 4.43605,1.52821 q 0.6792,0.5094 1.37963,0.5094 0.70043,0 1.40086,-0.53062 0.70043,-0.53063 0.70043,-1.57066 0,-1.04003 -0.65798,-1.54944 -0.65798,-0.5094 -1.42208,-0.5094 -0.76411,0 -1.42209,0.53063 -0.65798,0.53063 -0.65798,1.57066 0,1.0188 0.67921,1.54943 z"
         style="font-style:normal;font-variant:normal;font-weight:normal;font-stretch:normal;font-family:'Fredoka One';-inkscape-font-specification:'Fredoka One';text-align:center;text-anchor:middle;fill:#000000;fill-opacity:1;stroke-width:0.53062809"
         id="path5212" />
      <path
         d="m 420.01323,246.01949 q 0,0.89146 0.5943,1.40086 0.5943,0.48818 1.25228,0.48818 0.67921,0 1.25228,-0.38205 0.59431,-0.40328 0.95513,-0.40328 0.63676,0 1.54944,1.12493 0.48818,0.61553 0.48818,1.10371 0,0.80655 -1.16739,1.50698 -1.20983,0.84901 -2.97151,0.84901 -1.97394,0 -3.7993,-1.42209 -0.87023,-0.6792 -1.42208,-1.80413 -0.55186,-1.14616 -0.55186,-2.50457 0,-1.37963 0.55186,-2.48334 0.55185,-1.12493 1.42208,-1.80413 1.76169,-1.40086 3.75685,-1.40086 0.80655,0 1.57066,0.23348 0.7641,0.21225 1.12493,0.4245 l 0.3396,0.21225 q 0.38205,0.2547 0.5943,0.40328 0.55186,0.4245 0.55186,0.97635 0,0.53063 -0.44573,1.20984 -0.76411,1.16738 -1.46454,1.16738 -0.40327,0 -1.14615,-0.46696 -0.38205,-0.36082 -1.10371,-0.36082 -0.70043,0 -1.31596,0.5094 -0.61552,0.5094 -0.61552,1.42208 z"
         style="font-style:normal;font-variant:normal;font-weight:normal;font-stretch:normal;font-family:'Fredoka One';-inkscape-font-specification:'Fredoka One';text-align:center;text-anchor:middle;fill:#000000;fill-opacity:1;stroke-width:0.53062809"
         id="path5214" />
      <path
         d="m 427.17836,246.01949 q 0,-2.54701 1.78291,-4.20257 1.78291,-1.65556 4.07522,-1.65556 2.29232,0 4.054,1.65556 1.76169,1.63433 1.76169,4.18135 0,1.76168 -0.91268,3.14132 -0.91268,1.3584 -2.22864,2.01638 -1.29473,0.63676 -2.69559,0.63676 -1.40086,0 -2.71682,-0.67921 -1.31595,-0.70043 -2.22863,-2.03761 -0.89146,-1.35841 -0.89146,-3.05642 z m 4.43605,1.52821 q 0.67921,0.5094 1.37963,0.5094 0.70043,0 1.40086,-0.53062 0.70043,-0.53063 0.70043,-1.57066 0,-1.04003 -0.65798,-1.54944 -0.65798,-0.5094 -1.42208,-0.5094 -0.76411,0 -1.42208,0.53063 -0.65798,0.53063 -0.65798,1.57066 0,1.0188 0.6792,1.54943 z"
         style="font-style:normal;font-variant:normal;font-weight:normal;font-stretch:normal;font-family:'Fredoka One';-inkscape-font-specification:'Fredoka One';text-align:center;text-anchor:middle;fill:#000000;fill-opacity:1;stroke-width:0.53062809"
         id="path5216" />
      <path
         d="m 447.82211,240.54341 q 0.40327,0.12735 0.65798,0.44573 0.27592,0.29715 0.27592,0.97636 0,0.6792 -0.40327,1.48575 -0.40328,0.80656 -1.16739,0.80656 -0.38205,0 -0.74288,-0.1698 -0.3396,-0.1698 -0.91268,-0.1698 -0.57307,0 -1.08248,0.40327 -0.48817,0.40328 -0.48817,0.97636 v 4.45727 q 0,0.48818 -0.0424,0.74288 -0.0212,0.23348 -0.19103,0.55186 -0.31838,0.55185 -1.65556,0.55185 -1.01881,0 -1.46453,-0.36083 -0.33961,-0.29715 -0.38206,-0.91268 0,-0.21225 0,-0.61553 v -7.45001 q 0,-0.48818 0.0212,-0.72166 0.0425,-0.2547 0.19103,-0.55185 0.29715,-0.57308 1.65555,-0.57308 1.27351,0 1.59189,0.48818 0.23348,0.3396 0.23348,0.70043 0.10612,-0.14858 0.29715,-0.36083 0.21225,-0.21225 0.87023,-0.57308 0.65798,-0.36082 1.14615,-0.36082 0.50941,0 0.84901,0.0637 0.3396,0.0424 0.74288,0.1698 z"
         style="font-style:normal;font-variant:normal;font-weight:normal;font-stretch:normal;font-family:'Fredoka One';-inkscape-font-specification:'Fredoka One';text-align:center;text-anchor:middle;fill:#000000;fill-opacity:1;stroke-width:0.53062809"
         id="path5218" />
      <path
         d="m 457.52267,240.54341 q 0.40328,0.12735 0.65798,0.44573 0.27592,0.29715 0.27592,0.97636 0,0.6792 -0.40327,1.48575 -0.40328,0.80656 -1.16738,0.80656 -0.38206,0 -0.74288,-0.1698 -0.33961,-0.1698 -0.91268,-0.1698 -0.57308,0 -1.08249,0.40327 -0.48817,0.40328 -0.48817,0.97636 v 4.45727 q 0,0.48818 -0.0424,0.74288 -0.0212,0.23348 -0.19103,0.55186 -0.31838,0.55185 -1.65556,0.55185 -1.0188,0 -1.46453,-0.36083 -0.3396,-0.29715 -0.38205,-0.91268 0,-0.21225 0,-0.61553 v -7.45001 q 0,-0.48818 0.0212,-0.72166 0.0425,-0.2547 0.19103,-0.55185 0.29715,-0.57308 1.65556,-0.57308 1.2735,0 1.59188,0.48818 0.23348,0.3396 0.23348,0.70043 0.10612,-0.14858 0.29715,-0.36083 0.21225,-0.21225 0.87023,-0.57308 0.65798,-0.36082 1.14615,-0.36082 0.50941,0 0.84901,0.0637 0.3396,0.0424 0.74288,0.1698 z"
         style="font-style:normal;font-variant:normal;font-weight:normal;font-stretch:normal;font-family:'Fredoka One';-inkscape-font-specification:'Fredoka One';text-align:center;text-anchor:middle;fill:#000000;fill-opacity:1;stroke-width:0.53062809"
         id="path5220" />
      <path
         d="m 469.78514,244.68231 q 0,1.29473 -0.65798,1.93149 -0.63675,0.61552 -1.42208,0.61552 h -5.03035 q 0,0.59431 0.70043,0.99759 0.70042,0.40327 1.40085,0.40327 1.23106,0 1.93149,-0.2547 l 0.23348,-0.0849 q 0.5094,-0.23348 0.849,-0.23348 0.6792,0 1.16738,0.95514 0.27593,0.57307 0.27593,0.97635 0,1.88904 -4.52095,1.88904 -1.57066,0 -2.80172,-0.53063 -1.20983,-0.55185 -1.88903,-1.44331 -1.33719,-1.71923 -1.33719,-3.84175 0,-2.67436 1.71924,-4.26625 1.74046,-1.61311 4.32992,-1.61311 2.95029,0 4.32993,2.08007 0.72165,1.1037 0.72165,2.41966 z m -4.4785,0.61553 q 0.80656,0 0.80656,-0.6792 0,-0.48818 -0.38206,-0.78533 -0.36082,-0.29716 -1.06125,-0.29716 -0.67921,0 -1.35841,0.57308 -0.6792,0.55186 -0.6792,1.18861 z"
         style="font-style:normal;font-variant:normal;font-weight:normal;font-stretch:normal;font-family:'Fredoka One';-inkscape-font-specification:'Fredoka One';text-align:center;text-anchor:middle;fill:#000000;fill-opacity:1;stroke-width:0.53062809"
         id="path5222" />
      <path
         d="m 477.43678,244.17291 -1.37963,-0.0849 v 2.92906 q 0,0.57308 0.1698,0.82778 0.19103,0.2547 0.67921,0.2547 0.5094,0 0.7641,0.0425 0.27593,0.0212 0.57308,0.19102 0.48818,0.27593 0.48818,1.42208 0,1.33719 -0.59431,1.63434 -0.31837,0.14857 -0.57307,0.19102 -0.23348,0.0212 -0.70043,0.0212 -2.20742,0 -3.35357,-0.99758 -1.14616,-0.99758 -1.14616,-3.3748 v -3.14131 q -0.40328,0.0637 -0.87023,0.0637 -0.46695,0 -0.78533,-0.36082 -0.29715,-0.36083 -0.29715,-1.23106 0,-0.87023 0.10613,-1.25228 0.10612,-0.40328 0.29715,-0.57308 0.3396,-0.27593 0.849,-0.27593 l 0.70043,0.0849 v -2.18619 q 0,-0.48817 0.0212,-0.72165 0.0425,-0.23348 0.21225,-0.5094 0.27592,-0.53063 1.63433,-0.53063 1.44331,0 1.71924,0.78533 0.10612,0.3396 0.10612,1.08248 v 2.08006 q 0.93391,-0.0849 1.40086,-0.0849 0.48818,0 0.72165,0.0425 0.25471,0.0212 0.57308,0.19103 0.55186,0.27592 0.55186,1.63433 0,1.33718 -0.57308,1.63434 -0.31838,0.14857 -0.57308,0.19102 -0.23348,0.0212 -0.72166,0.0212 z"
         style="font-style:normal;font-variant:normal;font-weight:normal;font-stretch:normal;font-family:'Fredoka One';-inkscape-font-specification:'Fredoka One';text-align:center;text-anchor:middle;fill:#000000;fill-opacity:1;stroke-width:0.53062809"
         id="path5224" />
      <path
         d="m 480.15825,246.01949 q 0,-2.54701 1.78291,-4.20257 1.78291,-1.65556 4.07522,-1.65556 2.29232,0 4.054,1.65556 1.76169,1.63433 1.76169,4.18135 0,1.76168 -0.91268,3.14132 -0.91268,1.3584 -2.22864,2.01638 -1.29473,0.63676 -2.69559,0.63676 -1.40086,0 -2.71682,-0.67921 -1.31595,-0.70043 -2.22863,-2.03761 -0.89146,-1.35841 -0.89146,-3.05642 z m 4.43605,1.52821 q 0.6792,0.5094 1.37963,0.5094 0.70043,0 1.40086,-0.53062 0.70043,-0.53063 0.70043,-1.57066 0,-1.04003 -0.65798,-1.54944 -0.65798,-0.5094 -1.42208,-0.5094 -0.76411,0 -1.42208,0.53063 -0.65798,0.53063 -0.65798,1.57066 0,1.0188 0.6792,1.54943 z"
         style="font-style:normal;font-variant:normal;font-weight:normal;font-stretch:normal;font-family:'Fredoka One';-inkscape-font-specification:'Fredoka One';text-align:center;text-anchor:middle;fill:#000000;fill-opacity:1;stroke-width:0.53062809"
         id="path5226" />
      <path
         d="m 496.02634,244.49128 0.0212,-0.1698 q 0,-0.91268 0.5094,-1.4433 0.53063,-0.53063 1.14616,-0.70043 0.61553,-0.1698 1.12493,-0.57308 0.53063,-0.40328 0.53063,-1.08248 0,-0.70043 -0.40328,-1.08248 -0.38205,-0.38206 -1.16738,-0.38206 -0.78533,0 -1.16738,0.25471 -0.36083,0.23347 -0.44573,0.48817 l -0.0637,0.2547 q -0.19102,0.55186 -0.44572,0.84901 -0.2547,0.27593 -0.65798,0.27593 -0.40328,0 -1.06126,-0.25471 -1.27351,-0.48817 -1.27351,-1.20983 0,-0.31837 0.12736,-0.63675 0.12735,-0.3396 0.21225,-0.55185 0.0849,-0.23348 0.44572,-0.78533 0.38206,-0.55186 0.84901,-0.95513 0.48818,-0.42451 1.35841,-0.76411 0.87023,-0.36083 1.93148,-0.36083 2.24987,0 3.67195,1.44331 1.42208,1.44331 1.42208,3.35357 0,0.91268 -0.3396,1.69801 -0.31838,0.76411 -0.78533,1.20983 -0.9339,0.89146 -1.74046,1.18861 l -0.3396,0.10613 q 0,0.36082 -0.0425,0.55185 -0.0212,0.19102 -0.19103,0.4245 -0.14857,0.21225 -0.53063,0.31838 -0.36082,0.0849 -0.97635,0.0849 -0.61553,0 -0.99758,-0.10613 -0.36083,-0.10612 -0.5094,-0.36082 -0.14858,-0.25471 -0.19103,-0.44573 -0.0212,-0.21225 -0.0212,-0.63676 z m -0.0849,3.7993 q 0.1698,-0.3396 0.59431,-0.48818 0.44572,-0.14857 1.37963,-0.14857 0.93391,0 1.33718,0.4245 0.4245,0.40328 0.4245,1.59188 0,0.84901 -0.21225,1.27351 -0.21225,0.40328 -0.65798,0.55185 -0.4245,0.12735 -1.33718,0.12735 -0.91268,0 -1.40086,-0.44572 -0.36082,-0.36083 -0.36082,-1.23106 v -0.3396 q 0,-0.48818 0.0212,-0.74288 0.0424,-0.2547 0.21225,-0.57308 z"
         style="font-style:normal;font-variant:normal;font-weight:normal;font-stretch:normal;font-family:'Fredoka One';-inkscape-font-specification:'Fredoka One';text-align:center;text-anchor:middle;fill:#000000;fill-opacity:1;stroke-width:0.53062809"
         id="path5228" />
    </g>
    <path
       style="fill:#000000;stroke-width:0.72297782"
       d="m 565.26737,-26.908636 c -2.8574,-0.0029 -5.66801,1.08492 -7.96491,3.381855 -4.34031,4.340272 -5.96907,10.508675 -7.20793,27.2964706 -0.52357,7.0951214 -1.13156,11.3144694 -1.65706,11.5008244 -0.45645,0.161959 -4.24552,2.039374 -8.42072,4.171677 -9.17491,4.685781 -18.76544,12.242681 -25.22357,19.875149 l -4.75067,5.614682 -1.82213,-1.742823 c -2.96273,-2.833619 -9.4904,-5.398683 -15.72796,-6.180779 -20.62905,-2.586687 -37.81656,9.348979 -37.77662,26.233896 0.0241,10.197635 3.90527,19.414028 13.62148,32.345661 10.33146,13.750493 25.81414,27.380423 41.84322,36.835903 4.2819,2.52589 9.41204,5.58297 11.40023,6.79396 14.8509,9.04559 28.5587,13.7655 44.52162,15.33012 l 4.75712,0.46617 2.93628,4.80939 c 1.61468,2.64495 6.69363,12.29175 11.28678,21.43742 4.59315,9.14568 10.06584,19.23123 12.1617,22.41233 4.87629,7.40111 12.82892,15.32935 18.142,18.08653 3.3843,1.75623 4.22449,2.55974 4.52501,4.32579 0.58477,3.43708 0.77193,29.80888 0.21536,30.37592 -0.2762,0.28144 -5.34787,0.78121 -11.27,1.11094 -16.44158,0.91543 -23.63436,3.01249 -28.21077,8.22474 -5.58095,6.35635 -4.24302,14.91845 2.90149,18.56754 5.23986,2.67635 13.57589,2.67976 30.60804,0.0112 25.6328,-4.01552 22.63125,-3.88027 25.04688,-1.129 2.55914,2.91473 5.84978,4.04701 18.65973,6.42129 5.36811,0.99497 13.50147,2.77893 18.07428,3.96407 18.75075,4.85963 28.91939,1.57286 28.91939,-9.34727 0,-10.38741 -12.24037,-17.79032 -33.53723,-20.28328 -3.62348,-0.42416 -7.27094,-0.90779 -8.10546,-1.07484 -1.43717,-0.2877 -1.54113,-0.88663 -1.96656,-11.34286 -0.24702,-6.0715 -0.7981,-15.98748 -1.22509,-22.03577 l -0.77628,-10.99726 3.34893,-4.11172 c 1.8421,-2.26159 3.70222,-4.887 4.13365,-5.83391 0.53092,-1.16523 1.76703,-1.96873 3.82479,-2.4869 3.94703,-0.99386 8.11686,-4.47409 9.79926,-8.1783 1.58022,-3.47921 1.6532,-5.5813 0.32307,-9.31052 l -0.98202,-2.75319 2.27927,0.58416 c 1.25339,0.32126 5.36921,0.58417 9.14678,0.58417 6.08573,0 7.34582,-0.23441 11.05978,-2.05812 5.52929,-2.71506 12.24294,-9.01506 14.55833,-13.66145 4.69813,-9.42792 0.049,-17.42184 -10.07907,-17.33086 -4.74207,0.0427 -7.78997,1.3515 -12.13787,5.21105 -3.10878,2.75957 -3.75606,3.03922 -6.25882,2.70354 -6.1406,-0.82362 -21.71374,-9.41408 -35.11179,-19.36836 -3.98374,-2.95977 -8.05043,-5.92577 -9.03715,-6.59087 l -1.79439,-1.20895 2.89245,-2.35537 c 11.38835,-9.27387 19.40046,-22.46048 22.57094,-37.147303 1.45301,-6.731481 1.40415,-20.187489 -0.0987,-27.123661 -5.02928,-23.212498 -16.67599,-39.194889 -36.43479,-49.999849 l -2.19418,-1.199901 1.33598,-4.292899 c 0.73482,-2.360949 2.22801,-8.3090207 3.31801,-13.21852258 1.73293,-7.80522202 1.88244,-9.40252612 1.18765,-12.71492542 -0.97957,-4.670102 -2.52733,-7.103744 -6.21366,-9.774117 -3.2816,-2.37719 -8.48735,-2.81018 -11.9928,-0.997469 -5.35577,2.769608 -8.85822,9.508199 -12.89481,24.80832633 l -1.96269,7.43874687 -11.79226,0.160539 -11.79292,0.1605397 0.44038,-3.2612599 c 0.24208,-1.7936621 0.48423,-7.1650425 0.5384,-11.9366875 0.0855,-7.5530095 -0.10056,-9.0589355 -1.43785,-11.6362145 -2.86422,-5.519674 -7.75726,-8.554636 -12.51955,-8.559389 z m 0.32817,5.644988 c 3.20267,0.09501 6.58924,3.143375 7.65604,7.59028 1.02065,4.2545073 0.022,18.855625 -2.16449,31.644824 -1.6692,9.763682 -1.90185,17.164071 -0.52486,16.707378 1.59456,-0.528827 4.65834,-7.694431 5.86745,-13.722694 0.64546,-3.21828 1.28405,-5.961908 1.41848,-6.096334 0.56203,-0.562036 17.80174,-1.13589 20.26136,-0.674443 l 2.6771,0.502284 -0.56223,3.759023 c -1.03302,6.906061 -0.40807,14.96518 1.16058,14.96518 1.18488,0 3.04345,-6.43405 5.13951,-17.793815 2.35553,-12.7659558 5.79661,-25.1699357 8.19311,-29.533187 1.92222,-3.499713 5.91253,-6.366344 8.02099,-5.762349 2.88486,0.826465 5.1269,2.994522 6.17953,5.974487 0.95574,2.705665 0.92728,3.658865 -0.29146,9.6948195 -1.41924,7.0291977 -5.2332,19.8225545 -8.99975,30.1901975 -2.24187,6.171008 -2.84967,10.122295 -1.55775,10.122295 1.41408,0 4.59591,-4.121004 6.83135,-8.846267 l 2.30377,-4.869329 4.55663,2.695793 c 12.91624,7.640885 21.53333,18.094162 26.79099,32.500443 7.25275,19.873031 5.37954,40.389554 -5.18206,56.760022 -3.53031,5.472 -11.42767,13.40043 -16.04066,16.10385 -6.17602,3.61938 -6.03665,5.84943 0.56158,8.99846 2.45031,1.16943 7.2826,4.25865 10.7387,6.86555 12.02754,9.07221 23.7159,15.9466 34.01633,20.00667 6.57314,2.59089 11.65404,1.74646 15.70282,-2.61002 3.69317,-3.97395 9.46872,-5.22092 12.93479,-2.79318 1.4257,0.99861 1.62926,1.62625 1.30695,4.02918 -0.74003,5.51765 -7.90458,12.9016 -14.91942,15.37657 -10.1559,3.58323 -25.16994,-1.60188 -46.82538,-16.17093 -9.65042,-6.49243 -11.17906,-7.29622 -12.51503,-6.58119 -1.0737,0.57457 -1.45552,1.37678 -1.2973,2.72286 0.18461,1.57222 2.24729,3.26717 11.71746,9.62971 11.11709,7.46901 11.54467,7.84844 13.05991,11.59882 3.96379,9.81089 4.13058,15.10803 0.69827,22.12347 -2.44975,5.00711 -8.64766,11.67637 -13.08439,14.07927 -1.92037,1.04007 -5.42232,2.24438 -7.78176,2.67645 -5.37339,0.98399 -7.53455,0.92825 -13.42291,-0.34689 -15.29226,-3.3116 -24.33594,-13.55481 -39.35952,-44.57962 -3.41355,-7.04923 -7.19931,-14.49977 -8.41239,-16.55714 -2.38247,-4.04068 -2.10826,-4.93455 1.52105,-4.95638 2.13653,-0.013 5.04146,-1.85302 5.04146,-3.19355 0,-0.51229 -0.57323,-1.44961 -1.27342,-2.08329 -1.09718,-0.99288 -2.05756,-1.04715 -6.95067,-0.3933 -14.70966,1.96559 -38.25857,-3.9537 -51.49805,-12.94446 -9.89266,-6.71799 -17.82581,-16.14646 -21.22077,-25.22032 -2.0944,-5.59775 -3.64555,-13.273252 -3.64555,-18.038135 v -3.929261 h 14.76918 c 12.63641,0 14.93841,-0.168566 15.93815,-1.168309 1.02154,-1.021602 1.03937,-1.362552 0.14443,-2.711279 -0.98251,-1.480674 -1.62288,-1.550134 -15.93749,-1.737677 l -14.91427,-0.195367 v -2.118729 c 0,-6.433556 3.18952,-16.381978 6.24852,-19.48762 1.37615,-1.397183 2.75695,-3.760507 3.16776,-5.422551 0.40041,-1.620214 1.27733,-4.03177 1.94916,-5.359364 1.78339,-3.524139 12.47006,-14.61033 18.10717,-18.784188 5.07988,-3.761234 15.08009,-9.501793 16.58421,-9.518134 0.47901,-0.0056 1.06524,1.209805 1.30243,2.700975 0.78516,4.93466 1.96986,8.817711 2.935,9.618723 1.61243,1.338159 2.30404,-3.590857 2.79446,-19.921563 0.68679,-22.8703917 2.37489,-31.165619 7.03578,-34.569528 0.93391,-0.682069 1.98157,-0.978851 3.04912,-0.947191 z m -61.96529,8.833395 c -2.61815,0.105668 -6.9926,2.164393 -6.9926,3.5301483 0,1.7063781 1.87875,2.1105822 3.74229,0.8053381 2.18919,-1.5333931 3.63517,-1.4480561 5.92031,0.349469 3.09775,2.436678 2.60019,5.135045 -1.52877,8.28531993 -3.73222,2.84758357 -4.8417,4.29114867 -4.15362,5.40449107 0.24383,0.3944977 0.75859,0.7176227 1.14447,0.7176227 1.11179,0 8.15925,-5.78244877 9.1287,-7.49031268 2.48318,-4.37427492 -0.62213,-10.08545342 -6.26397,-11.52017342 -0.28448,-0.07233 -0.62282,-0.097 -0.99681,-0.0819 z m -2.39922,21.3794216 c -0.17173,0.0054 -0.35356,0.04249 -0.54355,0.115413 -1.1587,0.4446437 -1.58245,2.7155994 -0.67572,3.6223184 0.81715,0.817123 1.60532,0.539587 2.33407,-0.822075 0.7748,-1.447726 0.0873,-2.9528591 -1.1148,-2.9156544 z M 487.24847,42.504456 c 7.32257,0.03648 14.35075,2.090543 17.27347,5.806187 2.20266,2.800211 2.04479,6.991928 -0.33399,8.863037 -3.74201,2.943485 -11.68314,4.654517 -25.78317,5.555393 -8.72261,0.557249 -10.42149,1.291313 -9.6942,4.189075 0.44333,1.766233 0.78415,1.922509 4.26326,1.951094 l 3.78223,0.03094 4.13622,6.34135 c 2.27505,3.487794 6.71634,9.362213 9.86956,13.054082 4.85143,5.680182 5.80566,7.229603 6.2053,10.075198 0.83911,5.974658 3.28576,13.962738 5.82682,19.025958 1.36395,2.71778 2.40585,4.94156 2.31537,4.94156 -0.49843,0 -11.48657,-8.60487 -15.49712,-12.13592 -10.19013,-8.97169 -23.51922,-26.405882 -26.99602,-35.31097 -2.19351,-5.618288 -2.43826,-16.027228 -0.46231,-19.646905 1.92803,-3.531832 6.64111,-7.810371 10.87151,-9.868265 4.06485,-1.977344 9.21287,-2.896772 14.22307,-2.871814 z m 11.5582,23.758594 c -7e-5,0.02466 -0.46861,2.493025 -1.04131,5.485739 -0.57266,2.992739 -1.11862,7.141171 -1.21344,9.218351 -0.0948,2.07713 -0.40027,3.776415 -0.67896,3.776415 -0.91706,0 -12.24876,-14.966701 -12.24876,-16.177993 0,-0.247721 1.05722,-0.463226 2.34957,-0.479072 1.29229,-0.01585 4.70865,-0.442526 7.59155,-0.948479 2.88288,-0.505915 5.24142,-0.899522 5.24135,-0.874961 z m 93.8597,17.866044 c -3.56065,-0.0025 -8.08577,0.02134 -13.85039,0.06313 l -26.1475,0.189565 -0.22891,1.988492 c -0.12594,1.093508 -0.12594,2.058689 0,2.145155 0.12581,0.08647 11.61571,0.333327 25.53305,0.548695 26.26978,0.406517 27.84661,0.352803 28.72722,-0.983934 0.77788,-1.180748 0.68178,-1.659396 -0.59125,-2.932425 -0.75734,-0.757336 -2.7603,-1.01021 -13.44222,-1.018732 z m 77.39149,101.304826 c 0.3401,0.01 0.92121,0.31165 1.77699,0.87238 2.89767,1.89863 4.36659,5.69769 3.37024,8.71669 -0.45392,1.37536 -1.52329,2.98982 -2.37662,3.58751 -0.85331,0.59769 -1.72319,1.08701 -1.93305,1.08773 -0.20986,8.4e-4 -0.27186,-2.12418 -0.13799,-4.72231 0.1339,-2.59813 -0.11155,-5.74203 -0.54547,-6.98677 -0.61795,-1.77259 -0.72092,-2.57089 -0.1541,-2.55523 z m -16.9382,37.54193 c 0.0469,0.004 0.081,0.0146 0.10057,0.0342 0.47102,0.47098 2.46827,30.80131 2.47078,37.50905 10e-4,4.11804 0.30926,6.48509 0.90589,6.96548 0.49707,0.40019 4.3197,1.11634 8.49489,1.59194 18.40377,2.09637 28.93555,5.76535 32.62876,11.36672 1.8621,2.8242 1.70585,5.72196 -0.42362,7.8514 -2.65617,2.65617 -9.62001,2.42279 -21.72242,-0.72858 -5.16929,-1.34605 -13.27618,-3.14777 -18.0156,-4.0034 -15.57591,-2.81202 -16.31106,-3.54044 -14.39521,-14.26626 1.1107,-6.21845 1.14344,-8.39928 0.33078,-21.80689 -0.49668,-8.19344 -1.0836,-16.23162 -1.30438,-17.86279 l -0.40108,-2.96597 3.44633,-0.86787 c 1.89544,-0.47727 4.40359,-1.36227 5.57342,-1.96719 1.02359,-0.52932 1.98227,-0.87621 2.31087,-0.84982 z m -26.21649,2.95628 c 0.11579,-0.0183 0.24788,0.006 0.39848,0.0484 0.7036,0.19931 2.94881,0.57335 4.98924,0.83176 l 3.71003,0.47004 0.4217,3.37797 c 0.23177,1.85795 0.81089,9.47698 1.28695,16.9311 0.70621,11.05565 0.68742,14.69982 -0.10256,19.77778 -0.53262,3.42374 -1.37767,6.6345 -1.87758,7.13443 -0.49991,0.49992 -2.96303,1.13747 -5.47416,1.41721 -2.51112,0.27973 -9.28324,1.31987 -15.04898,2.31151 -11.46565,1.97194 -22.87413,2.73344 -26.59949,1.77506 -3.55929,-0.91566 -5.21467,-2.75583 -5.19559,-5.77524 0.0429,-6.94329 7.15336,-9.81787 27.036,-10.93083 6.72701,-0.37658 12.81977,-0.87153 13.53961,-1.1 2.46207,-0.78145 3.00469,-5.4465 2.50429,-21.52833 -0.38608,-12.40753 -0.39817,-14.61216 0.412,-14.74082 z"
       id="path5086"
       inkscape:connector-curvature="0" />
  </g>
</svg>
